<svg width="45" height="46" viewBox="0 0 45 46" fill="none" xmlns="http://www.w3.org/2000/svg">
<path d="M20.6819 16.3497C21.231 15.7883 21.231 14.8782 20.6819 14.3168C20.1327 13.7554 19.2423 13.7554 18.6931 14.3168L11.1931 21.9835C10.9185 22.2641 10.7812 22.632 10.7812 22.9999C10.7812 23.1948 10.8192 23.3807 10.888 23.5502C10.9566 23.7197 11.0583 23.8786 11.1931 24.0164L18.6931 31.6831C19.2423 32.2444 20.1327 32.2444 20.6819 31.6831C21.231 31.1217 21.231 30.2115 20.6819 29.6501L15.5825 24.4374H33.75C34.5266 24.4374 35.1562 23.7938 35.1562 22.9999C35.1562 22.206 34.5266 21.5624 33.75 21.5624H15.5825L20.6819 16.3497Z" fill="black"/>
</svg>
