<svg width="100" height="100" viewBox="0 0 100 100" fill="none" xmlns="http://www.w3.org/2000/svg">
<path d="M50 2.3094L91.3013 26.1547L91.3013 73.8453L50 97.6906L8.69872 73.8453L8.69873 26.1547L50 2.3094Z" fill="#0F203A" stroke="#70BC29" stroke-width="4"/>
<path d="M49.25 10.0104C49.7141 9.74241 50.2859 9.74241 50.75 10.0104L84.257 29.3557C84.7211 29.6236 85.007 30.1188 85.007 30.6547V69.3453C85.007 69.8812 84.7211 70.3764 84.257 70.6443L50.75 89.9896C50.2859 90.2576 49.7141 90.2576 49.25 89.9896L15.743 70.6443C15.2789 70.3764 14.993 69.8812 14.993 69.3453V30.6547C14.993 30.1188 15.2789 29.6236 15.743 29.3557L49.25 10.0104Z" stroke="#BBF613"/>
<path d="M36 73.3715V28.7328H39.697V36.9155L39.0909 35.7553C40.303 33.3941 42.0404 31.5214 44.303 30.1373C46.6061 28.7124 49.2121 28 52.1212 28C55.1515 28 57.8586 28.7328 60.2424 30.1983C62.6667 31.6639 64.5657 33.6791 65.9394 36.2438C67.3131 38.8085 68 41.699 68 44.9151C68 48.1312 67.3131 51.0216 65.9394 53.5863C64.5657 56.1511 62.6667 58.1866 60.2424 59.6928C57.8586 61.1584 55.1515 61.8912 52.1212 61.8912C49.2121 61.8912 46.5859 61.1788 44.2424 59.7539C41.9394 58.2883 40.2222 56.3139 39.0909 53.8306L39.697 52.9757V73.3715H36ZM52 58.2273C54.3434 58.2273 56.4242 57.6573 58.2424 56.5175C60.0606 55.3369 61.4949 53.7492 62.5455 51.7544C63.596 49.7189 64.1212 47.4391 64.1212 44.9151C64.1212 42.391 63.596 40.1316 62.5455 38.1368C61.4949 36.142 60.0606 34.5747 58.2424 33.4348C56.4242 32.2542 54.3434 31.6639 52 31.6639C49.7374 31.6639 47.6768 32.2542 45.8182 33.4348C43.9596 34.5747 42.4848 36.142 41.3939 38.1368C40.303 40.1316 39.7576 42.4114 39.7576 44.9761C39.7576 47.4594 40.303 49.7189 41.3939 51.7544C42.4848 53.7492 43.9596 55.3369 45.8182 56.5175C47.6768 57.6573 49.7374 58.2273 52 58.2273Z" fill="#BBF613"/>
</svg>
