<svg width="726" height="100" viewBox="0 0 726 100" fill="none" xmlns="http://www.w3.org/2000/svg">
<path d="M49.5 1.44338C49.8094 1.26474 50.1906 1.26474 50.5 1.44338L91.8013 25.2887C92.1107 25.4673 92.3013 25.7974 92.3013 26.1547V73.8453C92.3013 74.2026 92.1107 74.5327 91.8013 74.7113L50.5 98.5566C50.1906 98.7353 49.8094 98.7353 49.5 98.5566L8.19873 74.7113C7.88933 74.5327 7.69873 74.2026 7.69873 73.8453V26.1547C7.69873 25.7974 7.88933 25.4673 8.19873 25.2887L49.5 1.44338Z" fill="#0F203A" stroke="#70BC29" stroke-width="2"/>
<path d="M49.5 7.44338C49.8094 7.26474 50.1906 7.26474 50.5 7.44338L86.6051 28.2887C86.9145 28.4673 87.1051 28.7974 87.1051 29.1547V70.8453C87.1051 71.2026 86.9145 71.5327 86.6051 71.7113L50.5 92.5566C50.1906 92.7353 49.8094 92.7353 49.5 92.5566L13.3949 71.7113C13.0855 71.5327 12.8949 71.2026 12.8949 70.8453V29.1547C12.8949 28.7974 13.0855 28.4673 13.3949 28.2887L49.5 7.44338Z" stroke="#BBF613" stroke-width="2"/>
<path d="M36 73.3715V28.7328H39.697V36.9155L39.0909 35.7553C40.303 33.3941 42.0404 31.5214 44.303 30.1373C46.6061 28.7124 49.2121 28 52.1212 28C55.1515 28 57.8586 28.7328 60.2424 30.1983C62.6667 31.6639 64.5657 33.6791 65.9394 36.2438C67.3131 38.8085 68 41.699 68 44.9151C68 48.1312 67.3131 51.0216 65.9394 53.5863C64.5657 56.1511 62.6667 58.1866 60.2424 59.6928C57.8586 61.1584 55.1515 61.8912 52.1212 61.8912C49.2121 61.8912 46.5859 61.1788 44.2424 59.7539C41.9394 58.2883 40.2222 56.3139 39.0909 53.8306L39.697 52.9757V73.3715H36ZM52 58.2273C54.3434 58.2273 56.4242 57.6573 58.2424 56.5175C60.0606 55.3369 61.4949 53.7492 62.5455 51.7544C63.596 49.7189 64.1212 47.4391 64.1212 44.9151C64.1212 42.391 63.596 40.1316 62.5455 38.1368C61.4949 36.142 60.0606 34.5747 58.2424 33.4348C56.4242 32.2542 54.3434 31.6639 52 31.6639C49.7374 31.6639 47.6768 32.2542 45.8182 33.4348C43.9596 34.5747 42.4848 36.142 41.3939 38.1368C40.303 40.1316 39.7576 42.4114 39.7576 44.9761C39.7576 47.4594 40.303 49.7189 41.3939 51.7544C42.4848 53.7492 43.9596 55.3369 45.8182 56.5175C47.6768 57.6573 49.7374 58.2273 52 58.2273Z" fill="#BBF613"/>
<path d="M112.903 66H118.615V54.45H124.579C126.707 54.45 128.583 54.072 130.207 53.316C131.831 52.532 133.105 51.398 134.029 49.914C134.981 48.43 135.457 46.652 135.457 44.58C135.457 42.452 134.995 40.66 134.071 39.204C133.147 37.748 131.859 36.642 130.207 35.886C128.583 35.102 126.707 34.71 124.579 34.71H112.903V66ZM118.615 49.41V39.75H124.663C126.203 39.75 127.435 40.184 128.359 41.052C129.283 41.92 129.745 43.096 129.745 44.58C129.745 46.036 129.283 47.212 128.359 48.108C127.435 48.976 126.203 49.41 124.663 49.41H118.615ZM139.675 66H145.177V34.206H139.675V66ZM157.187 66.504C160.155 66.504 162.535 65.524 164.327 63.564V66H169.535V50.796C169.535 49.2 169.129 47.786 168.317 46.554C167.505 45.322 166.385 44.37 164.957 43.698C163.557 42.998 161.919 42.648 160.043 42.648C157.747 42.648 155.703 43.194 153.911 44.286C152.119 45.378 150.887 46.82 150.215 48.612L154.709 50.796C155.129 49.76 155.787 48.934 156.683 48.318C157.579 47.674 158.629 47.352 159.833 47.352C161.093 47.352 162.101 47.688 162.857 48.36C163.641 49.004 164.033 49.816 164.033 50.796V51.552L157.229 52.644C154.541 53.092 152.553 53.946 151.265 55.206C149.977 56.466 149.333 58.048 149.333 59.952C149.333 61.968 150.047 63.564 151.475 64.74C152.903 65.916 154.807 66.504 157.187 66.504ZM155.045 59.742C155.045 58.146 156.123 57.138 158.279 56.718L164.033 55.752V56.676C164.033 58.244 163.487 59.574 162.395 60.666C161.331 61.758 159.931 62.304 158.195 62.304C157.271 62.304 156.515 62.08 155.927 61.632C155.339 61.156 155.045 60.526 155.045 59.742ZM183.315 66.504C185.051 66.504 186.563 66.21 187.851 65.622C189.139 65.034 190.147 64.222 190.875 63.186C191.603 62.122 191.967 60.904 191.967 59.532C191.967 57.936 191.463 56.564 190.455 55.416C189.447 54.268 187.991 53.428 186.087 52.896L182.433 51.804C181.649 51.58 181.005 51.286 180.501 50.922C179.997 50.558 179.745 50.054 179.745 49.41C179.745 48.738 180.011 48.192 180.543 47.772C181.075 47.352 181.803 47.142 182.727 47.142C183.875 47.142 184.911 47.45 185.835 48.066C186.787 48.682 187.445 49.508 187.809 50.544L192.009 48.57C191.309 46.722 190.133 45.28 188.481 44.244C186.829 43.18 184.925 42.648 182.769 42.648C181.117 42.648 179.647 42.942 178.359 43.53C177.099 44.118 176.105 44.944 175.377 46.008C174.677 47.044 174.327 48.262 174.327 49.662C174.327 51.23 174.817 52.588 175.797 53.736C176.805 54.884 178.275 55.738 180.207 56.298L183.945 57.348C184.673 57.544 185.289 57.838 185.793 58.23C186.325 58.594 186.591 59.098 186.591 59.742C186.591 60.498 186.283 61.1 185.667 61.548C185.079 61.968 184.295 62.178 183.315 62.178C182.027 62.178 180.865 61.814 179.829 61.086C178.793 60.358 177.967 59.35 177.351 58.062L173.235 60.036C173.907 61.996 175.139 63.564 176.931 64.74C178.751 65.916 180.879 66.504 183.315 66.504ZM206.611 66.252C207.535 66.252 208.445 66.182 209.341 66.042V61.296C208.809 61.38 208.319 61.422 207.871 61.422C206.527 61.422 205.547 61.114 204.931 60.498C204.315 59.882 204.007 59 204.007 57.852V48.066H209.257V43.152H204.007V37.944H198.505V39.708C198.505 40.828 198.197 41.682 197.581 42.27C196.965 42.858 196.097 43.152 194.977 43.152H194.557V48.066H198.505V58.146C198.505 60.694 199.205 62.682 200.605 64.11C202.033 65.538 204.035 66.252 206.611 66.252ZM213.544 66H219.046V59.028L221.986 55.836L228.412 66H234.712L226.102 52.35L234.544 43.152H227.698L219.046 52.224V34.206H213.544V66ZM245.712 66H258.9C262.4 66 265.13 65.16 267.09 63.48C269.078 61.772 270.072 59.42 270.072 56.424C270.072 54.996 269.792 53.652 269.232 52.392C268.672 51.132 267.692 50.054 266.292 49.158C267.16 48.374 267.79 47.506 268.182 46.554C268.602 45.602 268.812 44.594 268.812 43.53C268.812 40.786 267.93 38.63 266.166 37.062C264.402 35.494 261.98 34.71 258.9 34.71H245.712V66ZM251.424 46.848V39.582H259.194C260.37 39.582 261.308 39.904 262.008 40.548C262.708 41.192 263.058 42.06 263.058 43.152C263.058 44.244 262.708 45.14 262.008 45.84C261.308 46.512 260.37 46.848 259.194 46.848H251.424ZM251.424 60.96V51.846H259.488C260.972 51.846 262.148 52.266 263.016 53.106C263.912 53.918 264.36 55.024 264.36 56.424C264.36 57.796 263.912 58.902 263.016 59.742C262.148 60.554 260.972 60.96 259.488 60.96H251.424ZM282.437 66.504C283.865 66.504 285.125 66.238 286.217 65.706C287.337 65.146 288.219 64.334 288.863 63.27V66H294.071V43.152H288.569V56.55C288.569 58.062 288.135 59.266 287.267 60.162C286.399 61.03 285.293 61.464 283.949 61.464C282.577 61.464 281.457 61.03 280.589 60.162C279.749 59.294 279.329 58.132 279.329 56.676V43.152H273.827V57.138C273.827 59.938 274.583 62.206 276.095 63.942C277.635 65.65 279.749 66.504 282.437 66.504ZM307.879 66.504C309.615 66.504 311.127 66.21 312.415 65.622C313.703 65.034 314.711 64.222 315.439 63.186C316.167 62.122 316.531 60.904 316.531 59.532C316.531 57.936 316.027 56.564 315.019 55.416C314.011 54.268 312.555 53.428 310.651 52.896L306.997 51.804C306.213 51.58 305.569 51.286 305.065 50.922C304.561 50.558 304.309 50.054 304.309 49.41C304.309 48.738 304.575 48.192 305.107 47.772C305.639 47.352 306.367 47.142 307.291 47.142C308.439 47.142 309.475 47.45 310.399 48.066C311.351 48.682 312.009 49.508 312.373 50.544L316.573 48.57C315.873 46.722 314.697 45.28 313.045 44.244C311.393 43.18 309.489 42.648 307.333 42.648C305.681 42.648 304.211 42.942 302.923 43.53C301.663 44.118 300.669 44.944 299.941 46.008C299.241 47.044 298.891 48.262 298.891 49.662C298.891 51.23 299.381 52.588 300.361 53.736C301.369 54.884 302.839 55.738 304.771 56.298L308.509 57.348C309.237 57.544 309.853 57.838 310.357 58.23C310.889 58.594 311.155 59.098 311.155 59.742C311.155 60.498 310.847 61.1 310.231 61.548C309.643 61.968 308.859 62.178 307.879 62.178C306.591 62.178 305.429 61.814 304.393 61.086C303.357 60.358 302.531 59.35 301.915 58.062L297.799 60.036C298.471 61.996 299.703 63.564 301.495 64.74C303.315 65.916 305.443 66.504 307.879 66.504ZM320.759 40.59H326.261V34.71H320.759V40.59ZM320.759 66H326.261V43.152H320.759V66ZM331.341 66H336.843V52.602C336.843 51.118 337.263 49.928 338.103 49.032C338.971 48.136 340.091 47.688 341.463 47.688C342.835 47.688 343.941 48.136 344.781 49.032C345.649 49.9 346.083 51.09 346.083 52.602V66H351.585V51.3C351.585 49.592 351.221 48.094 350.493 46.806C349.765 45.49 348.743 44.468 347.427 43.74C346.139 43.012 344.655 42.648 342.975 42.648C341.547 42.648 340.259 42.928 339.111 43.488C337.991 44.048 337.123 44.874 336.507 45.966V43.152H331.341V66ZM367.074 66.504C369.398 66.504 371.428 65.986 373.164 64.95C374.928 63.886 376.16 62.542 376.86 60.918L372.408 58.734C371.904 59.602 371.204 60.316 370.308 60.876C369.44 61.408 368.376 61.674 367.116 61.674C365.464 61.674 364.078 61.17 362.958 60.162C361.838 59.154 361.194 57.81 361.026 56.13H377.49C377.602 55.822 377.672 55.472 377.7 55.08C377.756 54.66 377.784 54.24 377.784 53.82C377.784 51.776 377.35 49.914 376.482 48.234C375.614 46.554 374.354 45.21 372.702 44.202C371.05 43.166 369.034 42.648 366.654 42.648C364.526 42.648 362.594 43.166 360.858 44.202C359.15 45.238 357.792 46.652 356.784 48.444C355.804 50.208 355.314 52.238 355.314 54.534C355.314 56.746 355.804 58.762 356.784 60.582C357.764 62.402 359.136 63.844 360.9 64.908C362.664 65.972 364.722 66.504 367.074 66.504ZM366.654 47.184C368.11 47.184 369.314 47.632 370.266 48.528C371.246 49.396 371.792 50.53 371.904 51.93H361.152C361.46 50.418 362.104 49.256 363.084 48.444C364.092 47.604 365.282 47.184 366.654 47.184ZM390.649 66.504C392.385 66.504 393.897 66.21 395.185 65.622C396.473 65.034 397.481 64.222 398.209 63.186C398.937 62.122 399.301 60.904 399.301 59.532C399.301 57.936 398.797 56.564 397.789 55.416C396.781 54.268 395.325 53.428 393.421 52.896L389.767 51.804C388.983 51.58 388.339 51.286 387.835 50.922C387.331 50.558 387.079 50.054 387.079 49.41C387.079 48.738 387.345 48.192 387.877 47.772C388.409 47.352 389.137 47.142 390.061 47.142C391.209 47.142 392.245 47.45 393.169 48.066C394.121 48.682 394.779 49.508 395.143 50.544L399.343 48.57C398.643 46.722 397.467 45.28 395.815 44.244C394.163 43.18 392.259 42.648 390.103 42.648C388.451 42.648 386.981 42.942 385.693 43.53C384.433 44.118 383.439 44.944 382.711 46.008C382.011 47.044 381.661 48.262 381.661 49.662C381.661 51.23 382.151 52.588 383.131 53.736C384.139 54.884 385.609 55.738 387.541 56.298L391.279 57.348C392.007 57.544 392.623 57.838 393.127 58.23C393.659 58.594 393.925 59.098 393.925 59.742C393.925 60.498 393.617 61.1 393.001 61.548C392.413 61.968 391.629 62.178 390.649 62.178C389.361 62.178 388.199 61.814 387.163 61.086C386.127 60.358 385.301 59.35 384.685 58.062L380.569 60.036C381.241 61.996 382.473 63.564 384.265 64.74C386.085 65.916 388.213 66.504 390.649 66.504ZM412.223 66.504C413.959 66.504 415.471 66.21 416.759 65.622C418.047 65.034 419.055 64.222 419.783 63.186C420.511 62.122 420.875 60.904 420.875 59.532C420.875 57.936 420.371 56.564 419.363 55.416C418.355 54.268 416.899 53.428 414.995 52.896L411.341 51.804C410.557 51.58 409.913 51.286 409.409 50.922C408.905 50.558 408.653 50.054 408.653 49.41C408.653 48.738 408.919 48.192 409.451 47.772C409.983 47.352 410.711 47.142 411.635 47.142C412.783 47.142 413.819 47.45 414.743 48.066C415.695 48.682 416.353 49.508 416.717 50.544L420.917 48.57C420.217 46.722 419.041 45.28 417.389 44.244C415.737 43.18 413.833 42.648 411.677 42.648C410.025 42.648 408.555 42.942 407.267 43.53C406.007 44.118 405.013 44.944 404.285 46.008C403.585 47.044 403.235 48.262 403.235 49.662C403.235 51.23 403.725 52.588 404.705 53.736C405.713 54.884 407.183 55.738 409.115 56.298L412.853 57.348C413.581 57.544 414.197 57.838 414.701 58.23C415.233 58.594 415.499 59.098 415.499 59.742C415.499 60.498 415.191 61.1 414.575 61.548C413.987 61.968 413.203 62.178 412.223 62.178C410.935 62.178 409.773 61.814 408.737 61.086C407.701 60.358 406.875 59.35 406.259 58.062L402.143 60.036C402.815 61.996 404.047 63.564 405.839 64.74C407.659 65.916 409.787 66.504 412.223 66.504ZM430.468 66H436.642L438.91 59.28H451.006L453.232 66H459.448L448.654 34.71H441.262L430.468 66ZM440.548 54.24L444.958 41.052L449.368 54.24H440.548ZM472.652 66.504C474.304 66.504 475.83 66.224 477.23 65.664C478.63 65.076 479.834 64.278 480.842 63.27C481.85 62.234 482.578 61.072 483.026 59.784L478.196 57.6C477.748 58.804 477.034 59.756 476.054 60.456C475.102 61.128 473.968 61.464 472.652 61.464C471.448 61.464 470.37 61.17 469.418 60.582C468.494 59.994 467.766 59.182 467.234 58.146C466.702 57.082 466.436 55.892 466.436 54.576C466.436 53.232 466.702 52.042 467.234 51.006C467.766 49.97 468.494 49.158 469.418 48.57C470.37 47.982 471.448 47.688 472.652 47.688C473.968 47.688 475.102 48.038 476.054 48.738C477.034 49.438 477.748 50.362 478.196 51.51L483.026 49.41C482.55 48.066 481.808 46.89 480.8 45.882C479.792 44.846 478.588 44.048 477.188 43.488C475.788 42.928 474.276 42.648 472.652 42.648C470.384 42.648 468.34 43.166 466.52 44.202C464.728 45.238 463.314 46.652 462.278 48.444C461.242 50.236 460.724 52.266 460.724 54.534C460.724 56.802 461.242 58.846 462.278 60.666C463.314 62.458 464.728 63.886 466.52 64.95C468.34 65.986 470.384 66.504 472.652 66.504ZM498.205 66.504C499.857 66.504 501.383 66.224 502.783 65.664C504.183 65.076 505.387 64.278 506.395 63.27C507.403 62.234 508.131 61.072 508.579 59.784L503.749 57.6C503.301 58.804 502.587 59.756 501.607 60.456C500.655 61.128 499.521 61.464 498.205 61.464C497.001 61.464 495.923 61.17 494.971 60.582C494.047 59.994 493.319 59.182 492.787 58.146C492.255 57.082 491.989 55.892 491.989 54.576C491.989 53.232 492.255 52.042 492.787 51.006C493.319 49.97 494.047 49.158 494.971 48.57C495.923 47.982 497.001 47.688 498.205 47.688C499.521 47.688 500.655 48.038 501.607 48.738C502.587 49.438 503.301 50.362 503.749 51.51L508.579 49.41C508.103 48.066 507.361 46.89 506.353 45.882C505.345 44.846 504.141 44.048 502.741 43.488C501.341 42.928 499.829 42.648 498.205 42.648C495.937 42.648 493.893 43.166 492.073 44.202C490.281 45.238 488.867 46.652 487.831 48.444C486.795 50.236 486.277 52.266 486.277 54.534C486.277 56.802 486.795 58.846 487.831 60.666C488.867 62.458 490.281 63.886 492.073 64.95C493.893 65.986 495.937 66.504 498.205 66.504ZM523.589 66.504C525.913 66.504 527.943 65.986 529.679 64.95C531.443 63.886 532.675 62.542 533.375 60.918L528.923 58.734C528.419 59.602 527.719 60.316 526.823 60.876C525.955 61.408 524.891 61.674 523.631 61.674C521.979 61.674 520.593 61.17 519.473 60.162C518.353 59.154 517.709 57.81 517.541 56.13H534.005C534.117 55.822 534.187 55.472 534.215 55.08C534.271 54.66 534.299 54.24 534.299 53.82C534.299 51.776 533.865 49.914 532.997 48.234C532.129 46.554 530.869 45.21 529.217 44.202C527.565 43.166 525.549 42.648 523.169 42.648C521.041 42.648 519.109 43.166 517.373 44.202C515.665 45.238 514.307 46.652 513.299 48.444C512.319 50.208 511.829 52.238 511.829 54.534C511.829 56.746 512.319 58.762 513.299 60.582C514.279 62.402 515.651 63.844 517.415 64.908C519.179 65.972 521.237 66.504 523.589 66.504ZM523.169 47.184C524.625 47.184 525.829 47.632 526.781 48.528C527.761 49.396 528.307 50.53 528.419 51.93H517.667C517.975 50.418 518.619 49.256 519.599 48.444C520.607 47.604 521.797 47.184 523.169 47.184ZM538.47 66H543.972V34.206H538.47V66ZM559.888 66.504C562.212 66.504 564.242 65.986 565.978 64.95C567.742 63.886 568.974 62.542 569.674 60.918L565.222 58.734C564.718 59.602 564.018 60.316 563.122 60.876C562.254 61.408 561.19 61.674 559.93 61.674C558.278 61.674 556.892 61.17 555.772 60.162C554.652 59.154 554.008 57.81 553.84 56.13H570.304C570.416 55.822 570.486 55.472 570.514 55.08C570.57 54.66 570.598 54.24 570.598 53.82C570.598 51.776 570.164 49.914 569.296 48.234C568.428 46.554 567.168 45.21 565.516 44.202C563.864 43.166 561.848 42.648 559.468 42.648C557.34 42.648 555.408 43.166 553.672 44.202C551.964 45.238 550.606 46.652 549.598 48.444C548.618 50.208 548.128 52.238 548.128 54.534C548.128 56.746 548.618 58.762 549.598 60.582C550.578 62.402 551.95 63.844 553.714 64.908C555.478 65.972 557.536 66.504 559.888 66.504ZM559.468 47.184C560.924 47.184 562.128 47.632 563.08 48.528C564.06 49.396 564.606 50.53 564.718 51.93H553.966C554.274 50.418 554.918 49.256 555.898 48.444C556.906 47.604 558.096 47.184 559.468 47.184ZM574.769 66H580.271V53.274C580.271 51.538 580.747 50.194 581.699 49.242C582.679 48.262 583.939 47.772 585.479 47.772H587.453V42.9H586.109C584.709 42.9 583.477 43.152 582.413 43.656C581.349 44.16 580.523 45.07 579.935 46.386V43.152H574.769V66ZM597.408 66.504C600.376 66.504 602.756 65.524 604.548 63.564V66H609.756V50.796C609.756 49.2 609.35 47.786 608.538 46.554C607.726 45.322 606.606 44.37 605.178 43.698C603.778 42.998 602.14 42.648 600.264 42.648C597.968 42.648 595.924 43.194 594.132 44.286C592.34 45.378 591.108 46.82 590.436 48.612L594.93 50.796C595.35 49.76 596.008 48.934 596.904 48.318C597.8 47.674 598.85 47.352 600.054 47.352C601.314 47.352 602.322 47.688 603.078 48.36C603.862 49.004 604.254 49.816 604.254 50.796V51.552L597.45 52.644C594.762 53.092 592.774 53.946 591.486 55.206C590.198 56.466 589.554 58.048 589.554 59.952C589.554 61.968 590.268 63.564 591.696 64.74C593.124 65.916 595.028 66.504 597.408 66.504ZM595.266 59.742C595.266 58.146 596.344 57.138 598.5 56.718L604.254 55.752V56.676C604.254 58.244 603.708 59.574 602.616 60.666C601.552 61.758 600.152 62.304 598.416 62.304C597.492 62.304 596.736 62.08 596.148 61.632C595.56 61.156 595.266 60.526 595.266 59.742ZM624.847 66.252C625.771 66.252 626.681 66.182 627.577 66.042V61.296C627.045 61.38 626.555 61.422 626.107 61.422C624.763 61.422 623.783 61.114 623.167 60.498C622.551 59.882 622.243 59 622.243 57.852V48.066H627.493V43.152H622.243V37.944H616.741V39.708C616.741 40.828 616.433 41.682 615.817 42.27C615.201 42.858 614.333 43.152 613.213 43.152H612.793V48.066H616.741V58.146C616.741 60.694 617.441 62.682 618.841 64.11C620.269 65.538 622.271 66.252 624.847 66.252ZM642.748 66.504C644.96 66.504 646.976 66 648.796 64.992C650.616 63.956 652.072 62.542 653.164 60.75C654.256 58.93 654.802 56.872 654.802 54.576C654.802 52.28 654.256 50.236 653.164 48.444C652.1 46.652 650.658 45.238 648.838 44.202C647.018 43.166 644.988 42.648 642.748 42.648C640.48 42.648 638.436 43.166 636.616 44.202C634.796 45.238 633.34 46.652 632.248 48.444C631.184 50.236 630.652 52.28 630.652 54.576C630.652 56.872 631.184 58.916 632.248 60.708C633.34 62.5 634.796 63.914 636.616 64.95C638.464 65.986 640.508 66.504 642.748 66.504ZM642.748 61.464C641.516 61.464 640.41 61.17 639.43 60.582C638.478 59.994 637.722 59.182 637.162 58.146C636.63 57.082 636.364 55.892 636.364 54.576C636.364 53.26 636.63 52.084 637.162 51.048C637.722 50.012 638.478 49.2 639.43 48.612C640.41 47.996 641.516 47.688 642.748 47.688C643.98 47.688 645.058 47.996 645.982 48.612C646.934 49.2 647.676 50.012 648.208 51.048C648.768 52.084 649.048 53.26 649.048 54.576C649.048 55.892 648.768 57.082 648.208 58.146C647.676 59.182 646.934 59.994 645.982 60.582C645.058 61.17 643.98 61.464 642.748 61.464ZM658.974 66H664.476V53.274C664.476 51.538 664.952 50.194 665.904 49.242C666.884 48.262 668.144 47.772 669.684 47.772H671.658V42.9H670.314C668.914 42.9 667.682 43.152 666.618 43.656C665.554 44.16 664.728 45.07 664.14 46.386V43.152H658.974V66Z" fill="white"/>
</svg>
