<svg width="1440" height="2060" viewBox="0 0 1440 2060" fill="none" xmlns="http://www.w3.org/2000/svg">
<path fill-rule="evenodd" clip-rule="evenodd" d="M786.212 1030C786.212 1047.24 772.238 1061.21 755 1061.21C737.762 1061.21 723.788 1047.24 723.788 1030C723.788 1012.76 737.762 998.788 755 998.788C772.238 998.788 786.212 1012.76 786.212 1030ZM784.478 1030C784.478 1046.28 771.28 1059.48 755 1059.48C738.72 1059.48 725.522 1046.28 725.522 1030C725.522 1013.72 738.72 1000.52 755 1000.52C771.28 1000.52 784.478 1013.72 784.478 1030Z" fill="url(#paint0_radial_3889_14709)"/>
<path fill-rule="evenodd" clip-rule="evenodd" d="M755 1085.57C785.692 1085.57 810.573 1060.69 810.573 1030C810.573 999.308 785.692 974.427 755 974.427C724.308 974.427 699.427 999.308 699.427 1030C699.427 1060.69 724.308 1085.57 755 1085.57ZM755 1083.84C784.734 1083.84 808.839 1059.73 808.839 1030C808.839 1000.27 784.734 976.161 755 976.161C725.266 976.161 701.161 1000.27 701.161 1030C701.161 1059.73 725.266 1083.84 755 1083.84Z" fill="url(#paint1_radial_3889_14709)"/>
<path fill-rule="evenodd" clip-rule="evenodd" d="M834.933 1030C834.933 1074.15 799.146 1109.93 755 1109.93C710.854 1109.93 675.066 1074.15 675.066 1030C675.066 985.854 710.854 950.066 755 950.066C799.146 950.066 834.933 985.854 834.933 1030ZM833.199 1030C833.199 1073.19 798.188 1108.2 755 1108.2C711.811 1108.2 676.8 1073.19 676.8 1030C676.8 986.811 711.811 951.8 755 951.8C798.188 951.8 833.199 986.811 833.199 1030Z" fill="url(#paint2_radial_3889_14709)"/>
<path fill-rule="evenodd" clip-rule="evenodd" d="M755 1134.29C812.6 1134.29 859.294 1087.6 859.294 1030C859.294 972.4 812.6 925.706 755 925.706C697.4 925.706 650.706 972.4 650.706 1030C650.706 1087.6 697.4 1134.29 755 1134.29ZM755 1132.56C811.642 1132.56 857.56 1086.64 857.56 1030C857.56 973.357 811.642 927.44 755 927.44C698.357 927.44 652.44 973.357 652.44 1030C652.44 1086.64 698.357 1132.56 755 1132.56Z" fill="url(#paint3_radial_3889_14709)"/>
<path fill-rule="evenodd" clip-rule="evenodd" d="M883.655 1030C883.655 1101.05 826.054 1158.65 755 1158.65C683.946 1158.65 626.345 1101.05 626.345 1030C626.345 958.946 683.946 901.345 755 901.345C826.054 901.345 883.655 958.946 883.655 1030ZM881.921 1030C881.921 1100.1 825.096 1156.92 755 1156.92C684.903 1156.92 628.079 1100.1 628.079 1030C628.079 959.903 684.903 903.079 755 903.079C825.096 903.079 881.921 959.903 881.921 1030Z" fill="url(#paint4_radial_3889_14709)"/>
<path fill-rule="evenodd" clip-rule="evenodd" d="M755 1183.02C839.508 1183.02 908.015 1114.51 908.015 1030C908.015 945.491 839.508 876.984 755 876.984C670.491 876.984 601.984 945.491 601.984 1030C601.984 1114.51 670.491 1183.02 755 1183.02ZM755 1181.28C838.55 1181.28 906.281 1113.55 906.281 1030C906.281 946.449 838.55 878.718 755 878.718C671.449 878.718 603.718 946.449 603.718 1030C603.718 1113.55 671.449 1181.28 755 1181.28Z" fill="url(#paint5_radial_3889_14709)"/>
<path fill-rule="evenodd" clip-rule="evenodd" d="M932.377 1030C932.377 1127.96 852.963 1207.38 755 1207.38C657.038 1207.38 577.624 1127.96 577.624 1030C577.624 932.037 657.038 852.623 755 852.623C852.963 852.623 932.377 932.037 932.377 1030ZM930.643 1030C930.643 1127 852.005 1205.64 755 1205.64C657.996 1205.64 579.358 1127 579.358 1030C579.358 932.995 657.996 854.357 755 854.357C852.005 854.357 930.643 932.995 930.643 1030Z" fill="url(#paint6_radial_3889_14709)"/>
<path fill-rule="evenodd" clip-rule="evenodd" d="M755 1231.74C866.417 1231.74 956.737 1141.42 956.737 1030C956.737 918.583 866.417 828.263 755 828.263C643.584 828.263 553.263 918.583 553.263 1030C553.263 1141.42 643.584 1231.74 755 1231.74ZM755 1230C865.459 1230 955.003 1140.46 955.003 1030C955.003 919.541 865.459 829.997 755 829.997C644.542 829.997 554.997 919.541 554.997 1030C554.997 1140.46 644.542 1230 755 1230Z" fill="url(#paint7_radial_3889_14709)"/>
<path fill-rule="evenodd" clip-rule="evenodd" d="M981.098 1030C981.098 1154.87 879.87 1256.1 755 1256.1C630.13 1256.1 528.903 1154.87 528.903 1030C528.903 905.129 630.13 803.902 755 803.902C879.87 803.902 981.098 905.129 981.098 1030ZM979.364 1030C979.364 1153.91 878.913 1254.36 755 1254.36C631.088 1254.36 530.637 1153.91 530.637 1030C530.637 906.087 631.088 805.636 755 805.636C878.913 805.636 979.364 906.087 979.364 1030Z" fill="url(#paint8_radial_3889_14709)"/>
<path fill-rule="evenodd" clip-rule="evenodd" d="M755 1280.46C893.324 1280.46 1005.46 1168.32 1005.46 1030C1005.46 891.675 893.324 779.541 755 779.541C616.676 779.541 504.542 891.675 504.542 1030C504.542 1168.32 616.676 1280.46 755 1280.46ZM755 1278.72C892.367 1278.72 1003.72 1167.37 1003.72 1030C1003.72 892.633 892.367 781.275 755 781.275C617.634 781.275 506.276 892.633 506.276 1030C506.276 1167.37 617.634 1278.72 755 1278.72Z" fill="url(#paint9_radial_3889_14709)"/>
<path fill-rule="evenodd" clip-rule="evenodd" d="M1029.82 1030C1029.82 1181.78 906.778 1304.82 755 1304.82C603.222 1304.82 480.181 1181.78 480.181 1030C480.181 878.221 603.222 755.18 755 755.18C906.778 755.18 1029.82 878.221 1029.82 1030ZM1028.08 1030C1028.08 1180.82 905.821 1303.08 755 1303.08C604.179 1303.08 481.915 1180.82 481.915 1030C481.915 879.179 604.179 756.914 755 756.914C905.821 756.914 1028.08 879.179 1028.08 1030Z" fill="url(#paint10_radial_3889_14709)"/>
<path fill-rule="evenodd" clip-rule="evenodd" d="M755 1329.18C920.232 1329.18 1054.18 1195.23 1054.18 1030C1054.18 864.768 920.232 730.821 755 730.821C589.768 730.821 455.82 864.768 455.82 1030C455.82 1195.23 589.768 1329.18 755 1329.18ZM755 1327.45C919.275 1327.45 1052.45 1194.28 1052.45 1030C1052.45 865.726 919.275 732.555 755 732.555C590.725 732.555 457.554 865.726 457.554 1030C457.554 1194.28 590.725 1327.45 755 1327.45Z" fill="url(#paint11_radial_3889_14709)"/>
<path fill-rule="evenodd" clip-rule="evenodd" d="M1078.54 1030C1078.54 1208.69 933.686 1353.54 755 1353.54C576.313 1353.54 431.46 1208.69 431.46 1030C431.46 851.314 576.313 706.46 755 706.46C933.686 706.46 1078.54 851.314 1078.54 1030ZM1076.81 1030C1076.81 1207.73 932.729 1351.81 755 1351.81C577.271 1351.81 433.194 1207.73 433.194 1030C433.194 852.272 577.271 708.194 755 708.194C932.729 708.194 1076.81 852.272 1076.81 1030Z" fill="url(#paint12_radial_3889_14709)"/>
<path fill-rule="evenodd" clip-rule="evenodd" d="M755 1377.9C947.14 1377.9 1102.9 1222.14 1102.9 1030C1102.9 837.86 947.14 682.1 755 682.1C562.859 682.1 407.099 837.86 407.099 1030C407.099 1222.14 562.859 1377.9 755 1377.9ZM755 1376.17C946.182 1376.17 1101.17 1221.18 1101.17 1030C1101.17 838.818 946.182 683.834 755 683.834C563.817 683.834 408.833 838.818 408.833 1030C408.833 1221.18 563.817 1376.17 755 1376.17Z" fill="url(#paint13_radial_3889_14709)"/>
<path fill-rule="evenodd" clip-rule="evenodd" d="M1127.26 1030C1127.26 1235.59 960.594 1402.26 755 1402.26C549.405 1402.26 382.738 1235.59 382.738 1030C382.738 824.406 549.405 657.739 755 657.739C960.594 657.739 1127.26 824.406 1127.26 1030ZM1125.53 1030C1125.53 1234.64 959.636 1400.53 755 1400.53C550.363 1400.53 384.472 1234.64 384.472 1030C384.472 825.364 550.363 659.473 755 659.473C959.636 659.473 1125.53 825.364 1125.53 1030Z" fill="url(#paint14_radial_3889_14709)"/>
<path fill-rule="evenodd" clip-rule="evenodd" d="M755 1426.62C974.048 1426.62 1151.62 1249.05 1151.62 1030C1151.62 810.952 974.048 633.378 755 633.378C535.951 633.378 358.377 810.952 358.377 1030C358.377 1249.05 535.951 1426.62 755 1426.62ZM755 1424.89C973.09 1424.89 1149.89 1248.09 1149.89 1030C1149.89 811.91 973.09 635.112 755 635.112C536.909 635.112 360.111 811.91 360.111 1030C360.111 1248.09 536.909 1424.89 755 1424.89Z" fill="url(#paint15_radial_3889_14709)"/>
<path fill-rule="evenodd" clip-rule="evenodd" d="M1175.98 1030C1175.98 1262.5 987.503 1450.98 755 1450.98C522.498 1450.98 334.017 1262.5 334.017 1030C334.017 797.498 522.498 609.017 755 609.017C987.503 609.017 1175.98 797.498 1175.98 1030ZM1174.25 1030C1174.25 1261.55 986.545 1449.25 755 1449.25C523.456 1449.25 335.751 1261.55 335.751 1030C335.751 798.456 523.456 610.751 755 610.751C986.545 610.751 1174.25 798.456 1174.25 1030Z" fill="url(#paint16_radial_3889_14709)"/>
<path fill-rule="evenodd" clip-rule="evenodd" d="M755 1475.34C1000.96 1475.34 1200.34 1275.96 1200.34 1030C1200.34 784.044 1000.96 584.657 755 584.657C509.044 584.657 309.657 784.044 309.657 1030C309.657 1275.96 509.044 1475.34 755 1475.34ZM755 1473.61C999.999 1473.61 1198.61 1275 1198.61 1030C1198.61 785.001 999.999 586.391 755 586.391C510.001 586.391 311.391 785.001 311.391 1030C311.391 1275 510.001 1473.61 755 1473.61Z" fill="url(#paint17_radial_3889_14709)"/>
<path fill-rule="evenodd" clip-rule="evenodd" d="M1224.7 1030C1224.7 1289.41 1014.41 1499.7 755 1499.7C495.59 1499.7 285.296 1289.41 285.296 1030C285.296 770.59 495.59 560.296 755 560.296C1014.41 560.296 1224.7 770.59 1224.7 1030ZM1222.97 1030C1222.97 1288.45 1013.45 1497.97 755 1497.97C496.547 1497.97 287.03 1288.45 287.03 1030C287.03 771.547 496.547 562.03 755 562.03C1013.45 562.03 1222.97 771.547 1222.97 1030Z" fill="url(#paint18_radial_3889_14709)"/>
<path fill-rule="evenodd" clip-rule="evenodd" d="M755 1524.07C1027.86 1524.07 1249.07 1302.86 1249.07 1030C1249.07 757.135 1027.86 535.935 755 535.935C482.135 535.935 260.935 757.135 260.935 1030C260.935 1302.86 482.135 1524.07 755 1524.07ZM755 1522.33C1026.91 1522.33 1247.33 1301.91 1247.33 1030C1247.33 758.093 1026.91 537.669 755 537.669C483.093 537.669 262.669 758.093 262.669 1030C262.669 1301.91 483.093 1522.33 755 1522.33Z" fill="url(#paint19_radial_3889_14709)"/>
<path fill-rule="evenodd" clip-rule="evenodd" d="M1273.43 1030C1273.43 1316.32 1041.32 1548.43 755 1548.43C468.681 1548.43 236.574 1316.32 236.574 1030C236.574 743.681 468.681 511.574 755 511.574C1041.32 511.574 1273.43 743.681 1273.43 1030ZM1271.69 1030C1271.69 1315.36 1040.36 1546.69 755 1546.69C469.639 1546.69 238.308 1315.36 238.308 1030C238.308 744.639 469.639 513.308 755 513.308C1040.36 513.308 1271.69 744.639 1271.69 1030Z" fill="url(#paint20_radial_3889_14709)"/>
<path fill-rule="evenodd" clip-rule="evenodd" d="M755 1572.79C1054.77 1572.79 1297.79 1329.77 1297.79 1030C1297.79 730.227 1054.77 487.214 755 487.214C455.227 487.214 212.214 730.227 212.214 1030C212.214 1329.77 455.227 1572.79 755 1572.79ZM755 1571.05C1053.81 1571.05 1296.05 1328.81 1296.05 1030C1296.05 731.185 1053.81 488.948 755 488.948C456.185 488.948 213.948 731.185 213.948 1030C213.948 1328.81 456.185 1571.05 755 1571.05Z" fill="url(#paint21_radial_3889_14709)"/>
<path fill-rule="evenodd" clip-rule="evenodd" d="M1322.15 1030C1322.15 1343.23 1068.23 1597.15 755 1597.15C441.773 1597.15 187.853 1343.23 187.853 1030C187.853 716.773 441.773 462.853 755 462.853C1068.23 462.853 1322.15 716.773 1322.15 1030ZM1320.41 1030C1320.41 1342.27 1067.27 1595.41 755 1595.41C442.731 1595.41 189.587 1342.27 189.587 1030C189.587 717.731 442.731 464.587 755 464.587C1067.27 464.587 1320.41 717.731 1320.41 1030Z" fill="url(#paint22_radial_3889_14709)"/>
<path fill-rule="evenodd" clip-rule="evenodd" d="M755 1621.51C1081.68 1621.51 1346.51 1356.68 1346.51 1030C1346.51 703.319 1081.68 438.492 755 438.492C428.319 438.492 163.492 703.319 163.492 1030C163.492 1356.68 428.319 1621.51 755 1621.51ZM755 1619.77C1080.72 1619.77 1344.77 1355.72 1344.77 1030C1344.77 704.277 1080.72 440.226 755 440.226C429.277 440.226 165.226 704.277 165.226 1030C165.226 1355.72 429.277 1619.77 755 1619.77Z" fill="url(#paint23_radial_3889_14709)"/>
<path fill-rule="evenodd" clip-rule="evenodd" d="M1370.87 1030C1370.87 1370.13 1095.13 1645.87 755 1645.87C414.865 1645.87 139.131 1370.13 139.131 1030C139.131 689.865 414.865 414.131 755 414.131C1095.13 414.131 1370.87 689.865 1370.87 1030ZM1369.13 1030C1369.13 1369.18 1094.18 1644.13 755 1644.13C415.823 1644.13 140.865 1369.18 140.865 1030C140.865 690.823 415.823 415.865 755 415.865C1094.18 415.865 1369.13 690.823 1369.13 1030Z" fill="url(#paint24_radial_3889_14709)"/>
<path fill-rule="evenodd" clip-rule="evenodd" d="M755 1670.23C1108.59 1670.23 1395.23 1383.59 1395.23 1030C1395.23 676.411 1108.59 389.771 755 389.771C401.411 389.771 114.771 676.411 114.771 1030C114.771 1383.59 401.411 1670.23 755 1670.23ZM755 1668.49C1107.63 1668.49 1393.49 1382.63 1393.49 1030C1393.49 677.369 1107.63 391.505 755 391.505C402.369 391.505 116.505 677.369 116.505 1030C116.505 1382.63 402.369 1668.49 755 1668.49Z" fill="url(#paint25_radial_3889_14709)"/>
<path fill-rule="evenodd" clip-rule="evenodd" d="M1419.59 1030C1419.59 1397.04 1122.04 1694.59 755 1694.59C387.958 1694.59 90.4106 1397.04 90.4106 1030C90.4106 662.957 387.958 365.41 755 365.41C1122.04 365.41 1419.59 662.957 1419.59 1030ZM1417.86 1030C1417.86 1396.08 1121.09 1692.86 755 1692.86C388.915 1692.86 92.1446 1396.08 92.1446 1030C92.1446 663.914 388.915 367.144 755 367.144C1121.09 367.144 1417.86 663.914 1417.86 1030Z" fill="url(#paint26_radial_3889_14709)"/>
<path fill-rule="evenodd" clip-rule="evenodd" d="M755 1718.95C1135.5 1718.95 1443.95 1410.5 1443.95 1030C1443.95 649.503 1135.5 341.049 755 341.049C374.503 341.049 66.0498 649.503 66.0498 1030C66.0498 1410.5 374.503 1718.95 755 1718.95ZM755 1717.22C1134.54 1717.22 1442.22 1409.54 1442.22 1030C1442.22 650.46 1134.54 342.783 755 342.783C375.461 342.783 67.7838 650.46 67.7838 1030C67.7838 1409.54 375.461 1717.22 755 1717.22Z" fill="url(#paint27_radial_3889_14709)"/>
<path fill-rule="evenodd" clip-rule="evenodd" d="M1468.31 1030C1468.31 1423.95 1148.95 1743.31 755 1743.31C361.049 1743.31 41.6891 1423.95 41.6891 1030C41.6891 636.048 361.049 316.688 755 316.688C1148.95 316.688 1468.31 636.048 1468.31 1030ZM1466.58 1030C1466.58 1422.99 1147.99 1741.58 755 1741.58C362.007 1741.58 43.4231 1422.99 43.4231 1030C43.4231 637.006 362.007 318.422 755 318.422C1147.99 318.422 1466.58 637.006 1466.58 1030Z" fill="url(#paint28_radial_3889_14709)"/>
<path fill-rule="evenodd" clip-rule="evenodd" d="M755 1767.67C1162.41 1767.67 1492.67 1437.4 1492.67 1030C1492.67 622.594 1162.41 292.327 755 292.327C347.595 292.327 17.3283 622.594 17.3283 1030C17.3283 1437.4 347.595 1767.67 755 1767.67ZM755 1765.94C1161.45 1765.94 1490.94 1436.45 1490.94 1030C1490.94 623.552 1161.45 294.061 755 294.061C348.553 294.061 19.0623 623.552 19.0623 1030C19.0623 1436.45 348.553 1765.94 755 1765.94Z" fill="url(#paint29_radial_3889_14709)"/>
<path fill-rule="evenodd" clip-rule="evenodd" d="M1517.03 1030C1517.03 1450.86 1175.86 1792.03 755 1792.03C334.141 1792.03 -7.03244 1450.86 -7.03244 1030C-7.03244 609.14 334.141 267.967 755 267.967C1175.86 267.967 1517.03 609.14 1517.03 1030ZM1515.3 1030C1515.3 1449.9 1174.9 1790.3 755 1790.3C335.099 1790.3 -5.29846 1449.9 -5.29846 1030C-5.29846 610.098 335.099 269.701 755 269.701C1174.9 269.701 1515.3 610.098 1515.3 1030Z" fill="url(#paint30_radial_3889_14709)"/>
<path fill-rule="evenodd" clip-rule="evenodd" d="M755 1816.39C1189.31 1816.39 1541.39 1464.31 1541.39 1030C1541.39 595.688 1189.31 243.608 755 243.608C320.687 243.608 -31.3932 595.688 -31.3932 1030C-31.3932 1464.31 320.687 1816.39 755 1816.39ZM755 1814.66C1188.36 1814.66 1539.66 1463.36 1539.66 1030C1539.66 596.646 1188.36 245.342 755 245.342C321.645 245.342 -29.6592 596.646 -29.6592 1030C-29.6592 1463.36 321.645 1814.66 755 1814.66Z" fill="url(#paint31_radial_3889_14709)"/>
<path fill-rule="evenodd" clip-rule="evenodd" d="M1565.75 1030C1565.75 1477.77 1202.77 1840.75 755 1840.75C307.233 1840.75 -55.754 1477.77 -55.754 1030C-55.754 582.234 307.233 219.247 755 219.247C1202.77 219.247 1565.75 582.234 1565.75 1030ZM1564.02 1030C1564.02 1476.81 1201.81 1839.02 755 1839.02C308.191 1839.02 -54.02 1476.81 -54.02 1030C-54.02 583.191 308.191 220.981 755 220.981C1201.81 220.981 1564.02 583.191 1564.02 1030Z" fill="url(#paint32_radial_3889_14709)"/>
<path fill-rule="evenodd" clip-rule="evenodd" d="M755 1865.12C1216.22 1865.12 1590.11 1491.22 1590.11 1030C1590.11 568.78 1216.22 194.886 755 194.886C293.779 194.886 -80.1147 568.78 -80.1147 1030C-80.1147 1491.22 293.779 1865.12 755 1865.12ZM755 1863.38C1215.26 1863.38 1588.38 1490.26 1588.38 1030C1588.38 569.737 1215.26 196.62 755 196.62C294.736 196.62 -78.3807 569.737 -78.3807 1030C-78.3807 1490.26 294.736 1863.38 755 1863.38Z" fill="url(#paint33_radial_3889_14709)"/>
<path fill-rule="evenodd" clip-rule="evenodd" d="M1614.48 1030C1614.48 1504.68 1229.67 1889.48 755 1889.48C280.325 1889.48 -104.476 1504.68 -104.476 1030C-104.476 555.326 280.325 170.525 755 170.525C1229.67 170.525 1614.48 555.326 1614.48 1030ZM1612.74 1030C1612.74 1503.72 1228.72 1887.74 755 1887.74C281.282 1887.74 -102.742 1503.72 -102.742 1030C-102.742 556.283 281.282 172.259 755 172.259C1228.72 172.259 1612.74 556.283 1612.74 1030Z" fill="url(#paint34_radial_3889_14709)"/>
<path fill-rule="evenodd" clip-rule="evenodd" d="M755 1913.84C1243.13 1913.84 1638.84 1518.13 1638.84 1030C1638.84 541.871 1243.13 146.165 755 146.165C266.871 146.165 -128.836 541.871 -128.836 1030C-128.836 1518.13 266.871 1913.84 755 1913.84ZM755 1912.1C1242.17 1912.1 1637.1 1517.17 1637.1 1030C1637.1 542.829 1242.17 147.899 755 147.899C267.828 147.899 -127.102 542.829 -127.102 1030C-127.102 1517.17 267.828 1912.1 755 1912.1Z" fill="url(#paint35_radial_3889_14709)"/>
<path fill-rule="evenodd" clip-rule="evenodd" d="M1663.2 1030C1663.2 1531.58 1256.58 1938.2 755 1938.2C253.417 1938.2 -153.196 1531.58 -153.196 1030C-153.196 528.417 253.417 121.804 755 121.804C1256.58 121.804 1663.2 528.417 1663.2 1030ZM1661.46 1030C1661.46 1530.63 1255.63 1936.46 755 1936.46C254.375 1936.46 -151.462 1530.63 -151.462 1030C-151.462 529.375 254.375 123.538 755 123.538C1255.63 123.538 1661.46 529.375 1661.46 1030Z" fill="url(#paint36_radial_3889_14709)"/>
<path fill-rule="evenodd" clip-rule="evenodd" d="M755 1962.56C1270.04 1962.56 1687.56 1545.04 1687.56 1030C1687.56 514.963 1270.04 97.4431 755 97.4431C239.963 97.4431 -177.557 514.963 -177.557 1030C-177.557 1545.04 239.963 1962.56 755 1962.56ZM755 1960.82C1269.08 1960.82 1685.82 1544.08 1685.82 1030C1685.82 515.921 1269.08 99.1771 755 99.1771C240.921 99.1771 -175.823 515.921 -175.823 1030C-175.823 1544.08 240.921 1960.82 755 1960.82Z" fill="url(#paint37_radial_3889_14709)"/>
<path fill-rule="evenodd" clip-rule="evenodd" d="M1711.92 1030C1711.92 1558.49 1283.49 1986.92 755 1986.92C226.509 1986.92 -201.918 1558.49 -201.918 1030C-201.918 501.509 226.509 73.0823 755 73.0823C1283.49 73.0823 1711.92 501.509 1711.92 1030ZM1710.18 1030C1710.18 1557.53 1282.53 1985.18 755 1985.18C227.467 1985.18 -200.184 1557.53 -200.184 1030C-200.184 502.467 227.467 74.8163 755 74.8163C1282.53 74.8163 1710.18 502.467 1710.18 1030Z" fill="url(#paint38_radial_3889_14709)"/>
<path fill-rule="evenodd" clip-rule="evenodd" d="M755 2011.28C1296.95 2011.28 1736.28 1571.95 1736.28 1030C1736.28 488.055 1296.95 48.7215 755 48.7215C213.055 48.7215 -226.278 488.055 -226.278 1030C-226.278 1571.95 213.055 2011.28 755 2011.28ZM755 2009.54C1295.99 2009.54 1734.54 1570.99 1734.54 1030C1734.54 489.013 1295.99 50.4555 755 50.4555C214.013 50.4555 -224.544 489.013 -224.544 1030C-224.544 1570.99 214.013 2009.54 755 2009.54Z" fill="url(#paint39_radial_3889_14709)"/>
<path fill-rule="evenodd" clip-rule="evenodd" d="M1760.64 1030C1760.64 1585.4 1310.4 2035.64 755 2035.64C199.601 2035.64 -250.639 1585.4 -250.639 1030C-250.639 474.601 199.601 24.3608 755 24.3608C1310.4 24.3608 1760.64 474.601 1760.64 1030ZM1758.91 1030C1758.91 1584.44 1309.44 2033.91 755 2033.91C200.559 2033.91 -248.905 1584.44 -248.905 1030C-248.905 475.559 200.559 26.0948 755 26.0948C1309.44 26.0948 1758.91 475.559 1758.91 1030Z" fill="url(#paint40_radial_3889_14709)"/>
<path fill-rule="evenodd" clip-rule="evenodd" d="M1785 1030C1785 1598.85 1323.85 2060 755 2060C186.147 2060 -275 1598.85 -275 1030C-275 461.147 186.147 0 755 0C1323.85 0 1785 461.147 1785 1030ZM1783.27 1030C1783.27 1597.9 1322.9 2058.27 755 2058.27C187.104 2058.27 -273.266 1597.9 -273.266 1030C-273.266 462.104 187.104 1.73401 755 1.73401C1322.9 1.73401 1783.27 462.104 1783.27 1030Z" fill="url(#paint41_radial_3889_14709)"/>
<defs>
<radialGradient id="paint0_radial_3889_14709" cx="0" cy="0" r="1" gradientUnits="userSpaceOnUse" gradientTransform="translate(755 1030) rotate(90) scale(1030)">
<stop stop-color="#E9E9E9" stop-opacity="0.5"/>
<stop offset="1" stop-color="#E9E9E9" stop-opacity="0"/>
</radialGradient>
<radialGradient id="paint1_radial_3889_14709" cx="0" cy="0" r="1" gradientUnits="userSpaceOnUse" gradientTransform="translate(755 1030) rotate(90) scale(1030)">
<stop stop-color="#E9E9E9" stop-opacity="0.5"/>
<stop offset="1" stop-color="#E9E9E9" stop-opacity="0"/>
</radialGradient>
<radialGradient id="paint2_radial_3889_14709" cx="0" cy="0" r="1" gradientUnits="userSpaceOnUse" gradientTransform="translate(755 1030) rotate(90) scale(1030)">
<stop stop-color="#E9E9E9" stop-opacity="0.5"/>
<stop offset="1" stop-color="#E9E9E9" stop-opacity="0"/>
</radialGradient>
<radialGradient id="paint3_radial_3889_14709" cx="0" cy="0" r="1" gradientUnits="userSpaceOnUse" gradientTransform="translate(755 1030) rotate(90) scale(1030)">
<stop stop-color="#E9E9E9" stop-opacity="0.5"/>
<stop offset="1" stop-color="#E9E9E9" stop-opacity="0"/>
</radialGradient>
<radialGradient id="paint4_radial_3889_14709" cx="0" cy="0" r="1" gradientUnits="userSpaceOnUse" gradientTransform="translate(755 1030) rotate(90) scale(1030)">
<stop stop-color="#E9E9E9" stop-opacity="0.5"/>
<stop offset="1" stop-color="#E9E9E9" stop-opacity="0"/>
</radialGradient>
<radialGradient id="paint5_radial_3889_14709" cx="0" cy="0" r="1" gradientUnits="userSpaceOnUse" gradientTransform="translate(755 1030) rotate(90) scale(1030)">
<stop stop-color="#E9E9E9" stop-opacity="0.5"/>
<stop offset="1" stop-color="#E9E9E9" stop-opacity="0"/>
</radialGradient>
<radialGradient id="paint6_radial_3889_14709" cx="0" cy="0" r="1" gradientUnits="userSpaceOnUse" gradientTransform="translate(755 1030) rotate(90) scale(1030)">
<stop stop-color="#E9E9E9" stop-opacity="0.5"/>
<stop offset="1" stop-color="#E9E9E9" stop-opacity="0"/>
</radialGradient>
<radialGradient id="paint7_radial_3889_14709" cx="0" cy="0" r="1" gradientUnits="userSpaceOnUse" gradientTransform="translate(755 1030) rotate(90) scale(1030)">
<stop stop-color="#E9E9E9" stop-opacity="0.5"/>
<stop offset="1" stop-color="#E9E9E9" stop-opacity="0"/>
</radialGradient>
<radialGradient id="paint8_radial_3889_14709" cx="0" cy="0" r="1" gradientUnits="userSpaceOnUse" gradientTransform="translate(755 1030) rotate(90) scale(1030)">
<stop stop-color="#E9E9E9" stop-opacity="0.5"/>
<stop offset="1" stop-color="#E9E9E9" stop-opacity="0"/>
</radialGradient>
<radialGradient id="paint9_radial_3889_14709" cx="0" cy="0" r="1" gradientUnits="userSpaceOnUse" gradientTransform="translate(755 1030) rotate(90) scale(1030)">
<stop stop-color="#E9E9E9" stop-opacity="0.5"/>
<stop offset="1" stop-color="#E9E9E9" stop-opacity="0"/>
</radialGradient>
<radialGradient id="paint10_radial_3889_14709" cx="0" cy="0" r="1" gradientUnits="userSpaceOnUse" gradientTransform="translate(755 1030) rotate(90) scale(1030)">
<stop stop-color="#E9E9E9" stop-opacity="0.5"/>
<stop offset="1" stop-color="#E9E9E9" stop-opacity="0"/>
</radialGradient>
<radialGradient id="paint11_radial_3889_14709" cx="0" cy="0" r="1" gradientUnits="userSpaceOnUse" gradientTransform="translate(755 1030) rotate(90) scale(1030)">
<stop stop-color="#E9E9E9" stop-opacity="0.5"/>
<stop offset="1" stop-color="#E9E9E9" stop-opacity="0"/>
</radialGradient>
<radialGradient id="paint12_radial_3889_14709" cx="0" cy="0" r="1" gradientUnits="userSpaceOnUse" gradientTransform="translate(755 1030) rotate(90) scale(1030)">
<stop stop-color="#E9E9E9" stop-opacity="0.5"/>
<stop offset="1" stop-color="#E9E9E9" stop-opacity="0"/>
</radialGradient>
<radialGradient id="paint13_radial_3889_14709" cx="0" cy="0" r="1" gradientUnits="userSpaceOnUse" gradientTransform="translate(755 1030) rotate(90) scale(1030)">
<stop stop-color="#E9E9E9" stop-opacity="0.5"/>
<stop offset="1" stop-color="#E9E9E9" stop-opacity="0"/>
</radialGradient>
<radialGradient id="paint14_radial_3889_14709" cx="0" cy="0" r="1" gradientUnits="userSpaceOnUse" gradientTransform="translate(755 1030) rotate(90) scale(1030)">
<stop stop-color="#E9E9E9" stop-opacity="0.5"/>
<stop offset="1" stop-color="#E9E9E9" stop-opacity="0"/>
</radialGradient>
<radialGradient id="paint15_radial_3889_14709" cx="0" cy="0" r="1" gradientUnits="userSpaceOnUse" gradientTransform="translate(755 1030) rotate(90) scale(1030)">
<stop stop-color="#E9E9E9" stop-opacity="0.5"/>
<stop offset="1" stop-color="#E9E9E9" stop-opacity="0"/>
</radialGradient>
<radialGradient id="paint16_radial_3889_14709" cx="0" cy="0" r="1" gradientUnits="userSpaceOnUse" gradientTransform="translate(755 1030) rotate(90) scale(1030)">
<stop stop-color="#E9E9E9" stop-opacity="0.5"/>
<stop offset="1" stop-color="#E9E9E9" stop-opacity="0"/>
</radialGradient>
<radialGradient id="paint17_radial_3889_14709" cx="0" cy="0" r="1" gradientUnits="userSpaceOnUse" gradientTransform="translate(755 1030) rotate(90) scale(1030)">
<stop stop-color="#E9E9E9" stop-opacity="0.5"/>
<stop offset="1" stop-color="#E9E9E9" stop-opacity="0"/>
</radialGradient>
<radialGradient id="paint18_radial_3889_14709" cx="0" cy="0" r="1" gradientUnits="userSpaceOnUse" gradientTransform="translate(755 1030) rotate(90) scale(1030)">
<stop stop-color="#E9E9E9" stop-opacity="0.5"/>
<stop offset="1" stop-color="#E9E9E9" stop-opacity="0"/>
</radialGradient>
<radialGradient id="paint19_radial_3889_14709" cx="0" cy="0" r="1" gradientUnits="userSpaceOnUse" gradientTransform="translate(755 1030) rotate(90) scale(1030)">
<stop stop-color="#E9E9E9" stop-opacity="0.5"/>
<stop offset="1" stop-color="#E9E9E9" stop-opacity="0"/>
</radialGradient>
<radialGradient id="paint20_radial_3889_14709" cx="0" cy="0" r="1" gradientUnits="userSpaceOnUse" gradientTransform="translate(755 1030) rotate(90) scale(1030)">
<stop stop-color="#E9E9E9" stop-opacity="0.5"/>
<stop offset="1" stop-color="#E9E9E9" stop-opacity="0"/>
</radialGradient>
<radialGradient id="paint21_radial_3889_14709" cx="0" cy="0" r="1" gradientUnits="userSpaceOnUse" gradientTransform="translate(755 1030) rotate(90) scale(1030)">
<stop stop-color="#E9E9E9" stop-opacity="0.5"/>
<stop offset="1" stop-color="#E9E9E9" stop-opacity="0"/>
</radialGradient>
<radialGradient id="paint22_radial_3889_14709" cx="0" cy="0" r="1" gradientUnits="userSpaceOnUse" gradientTransform="translate(755 1030) rotate(90) scale(1030)">
<stop stop-color="#E9E9E9" stop-opacity="0.5"/>
<stop offset="1" stop-color="#E9E9E9" stop-opacity="0"/>
</radialGradient>
<radialGradient id="paint23_radial_3889_14709" cx="0" cy="0" r="1" gradientUnits="userSpaceOnUse" gradientTransform="translate(755 1030) rotate(90) scale(1030)">
<stop stop-color="#E9E9E9" stop-opacity="0.5"/>
<stop offset="1" stop-color="#E9E9E9" stop-opacity="0"/>
</radialGradient>
<radialGradient id="paint24_radial_3889_14709" cx="0" cy="0" r="1" gradientUnits="userSpaceOnUse" gradientTransform="translate(755 1030) rotate(90) scale(1030)">
<stop stop-color="#E9E9E9" stop-opacity="0.5"/>
<stop offset="1" stop-color="#E9E9E9" stop-opacity="0"/>
</radialGradient>
<radialGradient id="paint25_radial_3889_14709" cx="0" cy="0" r="1" gradientUnits="userSpaceOnUse" gradientTransform="translate(755 1030) rotate(90) scale(1030)">
<stop stop-color="#E9E9E9" stop-opacity="0.5"/>
<stop offset="1" stop-color="#E9E9E9" stop-opacity="0"/>
</radialGradient>
<radialGradient id="paint26_radial_3889_14709" cx="0" cy="0" r="1" gradientUnits="userSpaceOnUse" gradientTransform="translate(755 1030) rotate(90) scale(1030)">
<stop stop-color="#E9E9E9" stop-opacity="0.5"/>
<stop offset="1" stop-color="#E9E9E9" stop-opacity="0"/>
</radialGradient>
<radialGradient id="paint27_radial_3889_14709" cx="0" cy="0" r="1" gradientUnits="userSpaceOnUse" gradientTransform="translate(755 1030) rotate(90) scale(1030)">
<stop stop-color="#E9E9E9" stop-opacity="0.5"/>
<stop offset="1" stop-color="#E9E9E9" stop-opacity="0"/>
</radialGradient>
<radialGradient id="paint28_radial_3889_14709" cx="0" cy="0" r="1" gradientUnits="userSpaceOnUse" gradientTransform="translate(755 1030) rotate(90) scale(1030)">
<stop stop-color="#E9E9E9" stop-opacity="0.5"/>
<stop offset="1" stop-color="#E9E9E9" stop-opacity="0"/>
</radialGradient>
<radialGradient id="paint29_radial_3889_14709" cx="0" cy="0" r="1" gradientUnits="userSpaceOnUse" gradientTransform="translate(755 1030) rotate(90) scale(1030)">
<stop stop-color="#E9E9E9" stop-opacity="0.5"/>
<stop offset="1" stop-color="#E9E9E9" stop-opacity="0"/>
</radialGradient>
<radialGradient id="paint30_radial_3889_14709" cx="0" cy="0" r="1" gradientUnits="userSpaceOnUse" gradientTransform="translate(755 1030) rotate(90) scale(1030)">
<stop stop-color="#E9E9E9" stop-opacity="0.5"/>
<stop offset="1" stop-color="#E9E9E9" stop-opacity="0"/>
</radialGradient>
<radialGradient id="paint31_radial_3889_14709" cx="0" cy="0" r="1" gradientUnits="userSpaceOnUse" gradientTransform="translate(755 1030) rotate(90) scale(1030)">
<stop stop-color="#E9E9E9" stop-opacity="0.5"/>
<stop offset="1" stop-color="#E9E9E9" stop-opacity="0"/>
</radialGradient>
<radialGradient id="paint32_radial_3889_14709" cx="0" cy="0" r="1" gradientUnits="userSpaceOnUse" gradientTransform="translate(755 1030) rotate(90) scale(1030)">
<stop stop-color="#E9E9E9" stop-opacity="0.5"/>
<stop offset="1" stop-color="#E9E9E9" stop-opacity="0"/>
</radialGradient>
<radialGradient id="paint33_radial_3889_14709" cx="0" cy="0" r="1" gradientUnits="userSpaceOnUse" gradientTransform="translate(755 1030) rotate(90) scale(1030)">
<stop stop-color="#E9E9E9" stop-opacity="0.5"/>
<stop offset="1" stop-color="#E9E9E9" stop-opacity="0"/>
</radialGradient>
<radialGradient id="paint34_radial_3889_14709" cx="0" cy="0" r="1" gradientUnits="userSpaceOnUse" gradientTransform="translate(755 1030) rotate(90) scale(1030)">
<stop stop-color="#E9E9E9" stop-opacity="0.5"/>
<stop offset="1" stop-color="#E9E9E9" stop-opacity="0"/>
</radialGradient>
<radialGradient id="paint35_radial_3889_14709" cx="0" cy="0" r="1" gradientUnits="userSpaceOnUse" gradientTransform="translate(755 1030) rotate(90) scale(1030)">
<stop stop-color="#E9E9E9" stop-opacity="0.5"/>
<stop offset="1" stop-color="#E9E9E9" stop-opacity="0"/>
</radialGradient>
<radialGradient id="paint36_radial_3889_14709" cx="0" cy="0" r="1" gradientUnits="userSpaceOnUse" gradientTransform="translate(755 1030) rotate(90) scale(1030)">
<stop stop-color="#E9E9E9" stop-opacity="0.5"/>
<stop offset="1" stop-color="#E9E9E9" stop-opacity="0"/>
</radialGradient>
<radialGradient id="paint37_radial_3889_14709" cx="0" cy="0" r="1" gradientUnits="userSpaceOnUse" gradientTransform="translate(755 1030) rotate(90) scale(1030)">
<stop stop-color="#E9E9E9" stop-opacity="0.5"/>
<stop offset="1" stop-color="#E9E9E9" stop-opacity="0"/>
</radialGradient>
<radialGradient id="paint38_radial_3889_14709" cx="0" cy="0" r="1" gradientUnits="userSpaceOnUse" gradientTransform="translate(755 1030) rotate(90) scale(1030)">
<stop stop-color="#E9E9E9" stop-opacity="0.5"/>
<stop offset="1" stop-color="#E9E9E9" stop-opacity="0"/>
</radialGradient>
<radialGradient id="paint39_radial_3889_14709" cx="0" cy="0" r="1" gradientUnits="userSpaceOnUse" gradientTransform="translate(755 1030) rotate(90) scale(1030)">
<stop stop-color="#E9E9E9" stop-opacity="0.5"/>
<stop offset="1" stop-color="#E9E9E9" stop-opacity="0"/>
</radialGradient>
<radialGradient id="paint40_radial_3889_14709" cx="0" cy="0" r="1" gradientUnits="userSpaceOnUse" gradientTransform="translate(755 1030) rotate(90) scale(1030)">
<stop stop-color="#E9E9E9" stop-opacity="0.5"/>
<stop offset="1" stop-color="#E9E9E9" stop-opacity="0"/>
</radialGradient>
<radialGradient id="paint41_radial_3889_14709" cx="0" cy="0" r="1" gradientUnits="userSpaceOnUse" gradientTransform="translate(755 1030) rotate(90) scale(1030)">
<stop stop-color="#E9E9E9" stop-opacity="0.5"/>
<stop offset="1" stop-color="#E9E9E9" stop-opacity="0"/>
</radialGradient>
</defs>
</svg>
