<svg width="40" height="38" viewBox="0 0 40 38" fill="none" xmlns="http://www.w3.org/2000/svg">
<path d="M32.6744 11.6797C33.6121 11.4498 34.1821 10.5179 33.9477 9.59829C33.7133 8.67868 32.7632 8.11956 31.8256 8.34946L24.8256 10.0658C23.8879 10.2957 23.3178 11.2276 23.5522 12.1472C23.7866 13.0668 24.7368 13.6259 25.6744 13.396L32.6744 11.6797Z" fill="white"/>
<path d="M32.6744 18.545C33.6121 18.3151 34.1821 17.3833 33.9477 16.4637C33.7133 15.5441 32.7632 14.9849 31.8256 15.2148L24.8256 16.9312C23.8879 17.1611 23.3178 18.093 23.5522 19.0126C23.7866 19.9322 24.7368 20.4913 25.6744 20.2614L32.6744 18.545Z" fill="white"/>
<path d="M6.05224 16.4637C6.28665 15.5441 7.23678 14.9849 8.17442 15.2148L15.1744 16.9312C16.1121 17.1611 16.6821 18.093 16.4477 19.0126C16.2133 19.9322 15.2632 20.4913 14.3255 20.2614L7.32555 18.545C6.38791 18.3151 5.81783 17.3833 6.05224 16.4637Z" fill="white"/>
<path d="M6.05224 9.59829C6.28665 8.67868 7.23678 8.11956 8.17442 8.34946L15.1744 10.0658C16.1121 10.2957 16.6821 11.2276 16.4477 12.1472C16.2133 13.0668 15.2632 13.6259 14.3255 13.396L7.32555 11.6797C6.38791 11.4498 5.81783 10.5179 6.05224 9.59829Z" fill="white"/>
<path fill-rule="evenodd" clip-rule="evenodd" d="M0.75 6.04597C0.75 2.59682 4.14011 0.12298 7.50858 1.11408L20 4.78945L32.4914 1.11409C35.8599 0.12298 39.25 2.59682 39.25 6.04597V29.5125C39.25 31.967 37.4836 34.0802 35.0296 34.5616L20.3432 37.4424C20.0622 37.4975 19.7716 37.4841 19.4971 37.4033L4.49142 32.9882C2.27076 32.3348 0.75 30.3301 0.75 28.0563V6.04597ZM33.4971 4.40201C34.62 4.07164 35.75 4.89625 35.75 6.04597V22.647C35.75 23.4652 35.1612 24.1696 34.3432 24.3301L21.75 26.8003V7.85838L33.4971 4.40201ZM35.0296 27.6961C35.2771 27.6475 35.5176 27.5824 35.75 27.502V29.5125C35.75 30.3307 35.1612 31.0351 34.3432 31.1955L21.75 33.6657V30.3009L35.0296 27.6961ZM4.49142 26.1227L18.25 30.1709V33.4525L5.49714 29.7002C4.75692 29.4824 4.25 28.8142 4.25 28.0563V26.0454C4.32951 26.0729 4.40999 26.0987 4.49142 26.1227ZM5.49714 22.8348C4.75692 22.617 4.25 21.9487 4.25 21.1908V6.04597C4.25 4.89625 5.38004 4.07164 6.50286 4.40201L18.25 7.85838V26.587L5.49714 22.8348Z" fill="white"/>
<path d="M32.6744 11.6797C33.6121 11.4498 34.1821 10.5179 33.9477 9.59829C33.7133 8.67868 32.7632 8.11956 31.8256 8.34946L24.8256 10.0658C23.8879 10.2957 23.3178 11.2276 23.5522 12.1472C23.7866 13.0668 24.7368 13.6259 25.6744 13.396L32.6744 11.6797Z" stroke="#FCCE31" stroke-linecap="round" stroke-linejoin="round"/>
<path d="M32.6744 18.545C33.6121 18.3151 34.1821 17.3833 33.9477 16.4637C33.7133 15.5441 32.7632 14.9849 31.8256 15.2148L24.8256 16.9312C23.8879 17.1611 23.3178 18.093 23.5522 19.0126C23.7866 19.9322 24.7368 20.4913 25.6744 20.2614L32.6744 18.545Z" stroke="#FCCE31" stroke-linecap="round" stroke-linejoin="round"/>
<path d="M6.05224 16.4637C6.28665 15.5441 7.23678 14.9849 8.17442 15.2148L15.1744 16.9312C16.1121 17.1611 16.6821 18.093 16.4477 19.0126C16.2133 19.9322 15.2632 20.4913 14.3255 20.2614L7.32555 18.545C6.38791 18.3151 5.81783 17.3833 6.05224 16.4637Z" stroke="#FCCE31" stroke-linecap="round" stroke-linejoin="round"/>
<path d="M6.05224 9.59829C6.28665 8.67868 7.23678 8.11956 8.17442 8.34946L15.1744 10.0658C16.1121 10.2957 16.6821 11.2276 16.4477 12.1472C16.2133 13.0668 15.2632 13.6259 14.3255 13.396L7.32555 11.6797C6.38791 11.4498 5.81783 10.5179 6.05224 9.59829Z" stroke="#FCCE31" stroke-linecap="round" stroke-linejoin="round"/>
<path fill-rule="evenodd" clip-rule="evenodd" d="M0.75 6.04597C0.75 2.59682 4.14011 0.12298 7.50858 1.11408L20 4.78945L32.4914 1.11409C35.8599 0.12298 39.25 2.59682 39.25 6.04597V29.5125C39.25 31.967 37.4836 34.0802 35.0296 34.5616L20.3432 37.4424C20.0622 37.4975 19.7716 37.4841 19.4971 37.4033L4.49142 32.9882C2.27076 32.3348 0.75 30.3301 0.75 28.0563V6.04597ZM33.4971 4.40201C34.62 4.07164 35.75 4.89625 35.75 6.04597V22.647C35.75 23.4652 35.1612 24.1696 34.3432 24.3301L21.75 26.8003V7.85838L33.4971 4.40201ZM35.0296 27.6961C35.2771 27.6475 35.5176 27.5824 35.75 27.502V29.5125C35.75 30.3307 35.1612 31.0351 34.3432 31.1955L21.75 33.6657V30.3009L35.0296 27.6961ZM4.49142 26.1227L18.25 30.1709V33.4525L5.49714 29.7002C4.75692 29.4824 4.25 28.8142 4.25 28.0563V26.0454C4.32951 26.0729 4.40999 26.0987 4.49142 26.1227ZM5.49714 22.8348C4.75692 22.617 4.25 21.9487 4.25 21.1908V6.04597C4.25 4.89625 5.38004 4.07164 6.50286 4.40201L18.25 7.85838V26.587L5.49714 22.8348Z" stroke="#FCCE31" stroke-linecap="round" stroke-linejoin="round"/>
</svg>
