<svg id="ePhXMWRTGzZ1" xmlns="http://www.w3.org/2000/svg" xmlns:xlink="http://www.w3.org/1999/xlink" viewBox="0 0 275.15 230.42" shape-rendering="geometricPrecision" text-rendering="geometricPrecision"><style><![CDATA[#ePhXMWRTGzZ3_to {animation: ePhXMWRTGzZ3_to__to 400ms linear infinite alternate forwards}@keyframes ePhXMWRTGzZ3_to__to { 0% {transform: translate(185.774979px,139.757805px);animation-timing-function: cubic-bezier(0.42,0,0.58,1)} 25% {transform: translate(186px,139.757805px);animation-timing-function: cubic-bezier(0.42,0,0.58,1)} 50% {transform: translate(187px,139.757805px);animation-timing-function: cubic-bezier(0.42,0,0.58,1)} 75% {transform: translate(188px,139.757805px);animation-timing-function: cubic-bezier(0.42,0,0.58,1)} 100% {transform: translate(189px,139.757805px)}} #ePhXMWRTGzZ32_to {animation: ePhXMWRTGzZ32_to__to 400ms linear infinite alternate forwards}@keyframes ePhXMWRTGzZ32_to__to { 0% {transform: translate(51.295px,122.213993px);animation-timing-function: cubic-bezier(0.42,0,0.58,1)} 25% {transform: translate(52px,122.213993px);animation-timing-function: cubic-bezier(0.42,0,0.58,1)} 50% {transform: translate(52.5px,122.213993px);animation-timing-function: cubic-bezier(0.42,0,0.58,1)} 75% {transform: translate(53px,122.213993px);animation-timing-function: cubic-bezier(0.42,0,0.58,1)} 100% {transform: translate(53.5px,122.213993px)}} #ePhXMWRTGzZ36_to {animation: ePhXMWRTGzZ36_to__to 400ms linear infinite alternate forwards}@keyframes ePhXMWRTGzZ36_to__to { 0% {transform: translate(182.324783px,64.102752px);animation-timing-function: cubic-bezier(0.42,0,0.58,1)} 25% {transform: translate(182.324783px,63px);animation-timing-function: cubic-bezier(0.42,0,0.58,1)} 50% {transform: translate(182.324783px,62px);animation-timing-function: cubic-bezier(0.42,0,0.58,1)} 75% {transform: translate(182.324783px,61px);animation-timing-function: cubic-bezier(0.42,0,0.58,1)} 100% {transform: translate(182.324783px,60px)}}]]></style><defs><linearGradient id="ePhXMWRTGzZ5-fill" x1="206.37" y1="182.09" x2="201.84" y2="123.73" spreadMethod="pad" gradientUnits="userSpaceOnUse"><stop id="ePhXMWRTGzZ5-fill-0" offset="1%" stop-color="rgb(0,0,0)"/><stop id="ePhXMWRTGzZ5-fill-1" offset="13%" stop-color="rgba(0,0,0,0.69)"/><stop id="ePhXMWRTGzZ5-fill-2" offset="25%" stop-color="rgba(0,0,0,0.32)"/><stop id="ePhXMWRTGzZ5-fill-3" offset="100%" stop-color="rgba(0,0,0,0)"/></linearGradient><linearGradient id="ePhXMWRTGzZ6-fill" x1="161.38" y1="150.67" x2="212.51" y2="126.88" spreadMethod="pad" gradientUnits="userSpaceOnUse"><stop id="ePhXMWRTGzZ6-fill-0" offset="1%" stop-color="rgb(0,0,0)"/><stop id="ePhXMWRTGzZ6-fill-1" offset="13%" stop-color="rgba(0,0,0,0.69)"/><stop id="ePhXMWRTGzZ6-fill-2" offset="25%" stop-color="rgba(0,0,0,0.32)"/><stop id="ePhXMWRTGzZ6-fill-3" offset="100%" stop-color="rgba(0,0,0,0)"/></linearGradient><linearGradient id="ePhXMWRTGzZ9-fill" x1="121.93" y1="260.13" x2="100.9" y2="-112.06" spreadMethod="pad" gradientUnits="userSpaceOnUse"><stop id="ePhXMWRTGzZ9-fill-0" offset="1%" stop-color="rgb(0,0,0)"/><stop id="ePhXMWRTGzZ9-fill-1" offset="13%" stop-color="rgba(0,0,0,0.69)"/><stop id="ePhXMWRTGzZ9-fill-2" offset="25%" stop-color="rgba(0,0,0,0.32)"/><stop id="ePhXMWRTGzZ9-fill-3" offset="100%" stop-color="rgba(0,0,0,0)"/></linearGradient><linearGradient id="ePhXMWRTGzZ10-fill" x1="183.75" y1="256.64" x2="162.71" y2="-115.56" spreadMethod="pad" gradientUnits="userSpaceOnUse"><stop id="ePhXMWRTGzZ10-fill-0" offset="1%" stop-color="rgb(0,0,0)"/><stop id="ePhXMWRTGzZ10-fill-1" offset="13%" stop-color="rgba(0,0,0,0.69)"/><stop id="ePhXMWRTGzZ10-fill-2" offset="25%" stop-color="rgba(0,0,0,0.32)"/><stop id="ePhXMWRTGzZ10-fill-3" offset="100%" stop-color="rgba(0,0,0,0)"/></linearGradient><linearGradient id="ePhXMWRTGzZ15-fill" x1="174.38" y1="145.56" x2="155.13" y2="155.11" spreadMethod="pad" gradientUnits="userSpaceOnUse"><stop id="ePhXMWRTGzZ15-fill-0" offset="1%" stop-color="rgb(0,0,0)"/><stop id="ePhXMWRTGzZ15-fill-1" offset="13%" stop-color="rgba(0,0,0,0.69)"/><stop id="ePhXMWRTGzZ15-fill-2" offset="25%" stop-color="rgba(0,0,0,0.32)"/><stop id="ePhXMWRTGzZ15-fill-3" offset="100%" stop-color="rgba(0,0,0,0)"/></linearGradient><linearGradient id="ePhXMWRTGzZ16-fill" x1="190.04" y1="170.59" x2="178.87" y2="145.46" spreadMethod="pad" gradientUnits="userSpaceOnUse"><stop id="ePhXMWRTGzZ16-fill-0" offset="1%" stop-color="rgb(0,0,0)"/><stop id="ePhXMWRTGzZ16-fill-1" offset="13%" stop-color="rgba(0,0,0,0.69)"/><stop id="ePhXMWRTGzZ16-fill-2" offset="25%" stop-color="rgba(0,0,0,0.32)"/><stop id="ePhXMWRTGzZ16-fill-3" offset="100%" stop-color="rgba(0,0,0,0)"/></linearGradient><linearGradient id="ePhXMWRTGzZ17-fill" x1="171.97" y1="86.47" x2="101.14" y2="184.64" spreadMethod="pad" gradientUnits="userSpaceOnUse"><stop id="ePhXMWRTGzZ17-fill-0" offset="1%" stop-color="rgb(0,0,0)"/><stop id="ePhXMWRTGzZ17-fill-1" offset="13%" stop-color="rgba(0,0,0,0.69)"/><stop id="ePhXMWRTGzZ17-fill-2" offset="25%" stop-color="rgba(0,0,0,0.32)"/><stop id="ePhXMWRTGzZ17-fill-3" offset="100%" stop-color="rgba(0,0,0,0)"/></linearGradient><linearGradient id="ePhXMWRTGzZ21-fill" x1="154.75" y1="76.42" x2="111.3" y2="139.71" spreadMethod="pad" gradientUnits="userSpaceOnUse"><stop id="ePhXMWRTGzZ21-fill-0" offset="1%" stop-color="rgb(0,0,0)"/><stop id="ePhXMWRTGzZ21-fill-1" offset="13%" stop-color="rgba(0,0,0,0.69)"/><stop id="ePhXMWRTGzZ21-fill-2" offset="25%" stop-color="rgba(0,0,0,0.32)"/><stop id="ePhXMWRTGzZ21-fill-3" offset="100%" stop-color="rgba(0,0,0,0)"/></linearGradient><linearGradient id="ePhXMWRTGzZ23-fill" x1="146.22" y1="56.47" x2="137.04" y2="76.53" spreadMethod="pad" gradientUnits="userSpaceOnUse"><stop id="ePhXMWRTGzZ23-fill-0" offset="1%" stop-color="rgb(0,0,0)"/><stop id="ePhXMWRTGzZ23-fill-1" offset="13%" stop-color="rgba(0,0,0,0.69)"/><stop id="ePhXMWRTGzZ23-fill-2" offset="25%" stop-color="rgba(0,0,0,0.32)"/><stop id="ePhXMWRTGzZ23-fill-3" offset="100%" stop-color="rgba(0,0,0,0)"/></linearGradient><linearGradient id="ePhXMWRTGzZ34-fill" x1="71.9" y1="164.55" x2="67.36" y2="106.18" spreadMethod="pad" gradientUnits="userSpaceOnUse"><stop id="ePhXMWRTGzZ34-fill-0" offset="1%" stop-color="rgb(0,0,0)"/><stop id="ePhXMWRTGzZ34-fill-1" offset="13%" stop-color="rgba(0,0,0,0.69)"/><stop id="ePhXMWRTGzZ34-fill-2" offset="25%" stop-color="rgba(0,0,0,0.32)"/><stop id="ePhXMWRTGzZ34-fill-3" offset="100%" stop-color="rgba(0,0,0,0)"/></linearGradient><linearGradient id="ePhXMWRTGzZ35-fill" x1="26.9" y1="133.12" x2="78.04" y2="109.34" spreadMethod="pad" gradientUnits="userSpaceOnUse"><stop id="ePhXMWRTGzZ35-fill-0" offset="1%" stop-color="rgb(0,0,0)"/><stop id="ePhXMWRTGzZ35-fill-1" offset="13%" stop-color="rgba(0,0,0,0.69)"/><stop id="ePhXMWRTGzZ35-fill-2" offset="25%" stop-color="rgba(0,0,0,0.32)"/><stop id="ePhXMWRTGzZ35-fill-3" offset="100%" stop-color="rgba(0,0,0,0)"/></linearGradient><linearGradient id="ePhXMWRTGzZ38-fill" x1="202.92" y1="106.43" x2="198.38" y2="48.07" spreadMethod="pad" gradientUnits="userSpaceOnUse"><stop id="ePhXMWRTGzZ38-fill-0" offset="1%" stop-color="rgb(0,0,0)"/><stop id="ePhXMWRTGzZ38-fill-1" offset="13%" stop-color="rgba(0,0,0,0.69)"/><stop id="ePhXMWRTGzZ38-fill-2" offset="25%" stop-color="rgba(0,0,0,0.32)"/><stop id="ePhXMWRTGzZ38-fill-3" offset="100%" stop-color="rgba(0,0,0,0)"/></linearGradient><linearGradient id="ePhXMWRTGzZ39-fill" x1="157.92" y1="75.01" x2="209.05" y2="51.22" spreadMethod="pad" gradientUnits="userSpaceOnUse"><stop id="ePhXMWRTGzZ39-fill-0" offset="1%" stop-color="rgb(0,0,0)"/><stop id="ePhXMWRTGzZ39-fill-1" offset="13%" stop-color="rgba(0,0,0,0.69)"/><stop id="ePhXMWRTGzZ39-fill-2" offset="25%" stop-color="rgba(0,0,0,0.32)"/><stop id="ePhXMWRTGzZ39-fill-3" offset="100%" stop-color="rgba(0,0,0,0)"/></linearGradient><linearGradient id="ePhXMWRTGzZ40-fill" x1="153.88" y1="80.39" x2="94.78" y2="35.33" spreadMethod="pad" gradientUnits="userSpaceOnUse"><stop id="ePhXMWRTGzZ40-fill-0" offset="1%" stop-color="rgb(0,0,0)"/><stop id="ePhXMWRTGzZ40-fill-1" offset="13%" stop-color="rgba(0,0,0,0.69)"/><stop id="ePhXMWRTGzZ40-fill-2" offset="25%" stop-color="rgba(0,0,0,0.32)"/><stop id="ePhXMWRTGzZ40-fill-3" offset="100%" stop-color="rgba(0,0,0,0)"/></linearGradient></defs><path id="ePhXMWRTGzZ2" style="isolation:isolate" d="M82.85,28.82C73.44,40.41,67.58,54.82,59.47,67.48C53.47,76.94,46.15,85.41,40.05,94.83C27.89,113.59,20.55,136.46,21.89,159.31C23.23,182.16,33.89,204.72,51.66,217.23C62.57,224.92,75.48,228.57,88.32,230.94C131.55,238.94,178.08,232.78,215.02,207.27C221.36,202.89,227.43,197.95,234.31,194.63C251.98,186.09,274.9,188.07,287.71,172.39C295.42,162.95,297.12,149.45,296.86,136.86C296.55,121.74,293.59,105.86,284.38,94.52C272.38,79.65,252.78,75.67,236.56,66.52C220.75,57.65,208,43.7,194.42,31.24C161.75,1.25,114.75,-10.47,82.85,28.82Z" transform="matrix(1 0 0 1 -21.74 -3.78)" opacity="0.18" fill="rgb(0,0,0)" fill-opacity="0.3" stroke="none" stroke-width="1"/><g id="ePhXMWRTGzZ3_to" transform="translate(185.774979,139.757805)"><g id="ePhXMWRTGzZ3" transform="translate(-185.774978,-139.757804)"><path id="ePhXMWRTGzZ4" d="M239.59,152.93C239.594004,154.800431,238.822853,156.588922,237.46,157.87C236.30562,158.966861,234.815604,159.643181,233.23,159.79C232.933866,159.815143,232.636134,159.815143,232.34,159.79L182.67,158.79C178.710372,158.747193,175.504773,155.559329,175.44,151.6C175.432811,149.730069,176.195979,147.939698,177.55,146.65C178.929157,145.338965,180.76736,144.620917,182.67,144.65L184.36,144.65C184.010511,143.423748,183.832158,142.155081,183.83,140.88C183.824355,137.1966,185.336305,133.67354,188.01,131.14C189.177428,130.023546,190.531165,129.119926,192.01,128.47C193.926031,127.634996,196.000398,127.225582,198.09,127.27L202.31,127.36C207.657048,127.469121,212.520384,130.4814,215,135.22C216.216904,134.641267,217.552894,134.356941,218.9,134.39L219.99,134.39C224.690799,134.438046,228.499006,138.219653,228.58,142.92L228.58,143.33C228.579272,144.109133,228.464729,144.88398,228.24,145.63L232.35,145.71C236.31839,145.763546,239.525477,148.961773,239.59,152.93Z" transform="matrix(1 0 0 1 -21.74 -3.78)" fill="rgb(255,255,255)" stroke="none" stroke-width="1"/><path id="ePhXMWRTGzZ5" d="M233.23,159.79C232.933866,159.815143,232.636134,159.815143,232.34,159.79L182.67,158.79C178.710372,158.747193,175.504773,155.559329,175.44,151.6C175.432811,149.730069,176.195979,147.939698,177.55,146.65C175.55,158.92,188.4,157.16,188.4,157.16L220.67,157.16Z" transform="matrix(1 0 0 1 -21.74 -3.78)" fill="url(#ePhXMWRTGzZ5-fill)" stroke="none" stroke-width="1"/><path id="ePhXMWRTGzZ6" d="M188,146.13L184.39,144.76C184.040511,143.533748,183.862158,142.265081,183.86,140.99C183.854355,137.3066,185.366305,133.78354,188.04,131.25C189.207428,130.133546,190.561165,129.229926,192.04,128.58C182.05,137.14,188,146.13,188,146.13Z" transform="matrix(1 0 0 1 -21.74 -3.78)" fill="url(#ePhXMWRTGzZ6-fill)" stroke="none" stroke-width="1"/></g></g><ellipse id="ePhXMWRTGzZ7" style="isolation:isolate" rx="63.54" ry="57.39" transform="matrix(1 0 0 1 106 161.58)" opacity="0.23" fill="rgb(170,225,93)" stroke="none" stroke-width="1"/><path id="ePhXMWRTGzZ8" d="M206.63,155.85C206.646822,169.173696,202.310147,182.138072,194.28,192.77L194.28,192.77L194.15,192.95C175.976347,216.902232,143.125816,224.160948,116.551865,210.096233C89.977914,196.031519,77.506676,164.785486,87.092833,136.288177C96.67899,107.790867,125.499382,90.434849,155.171144,95.290525C184.842906,100.146201,206.627589,125.783556,206.63,155.85Z" transform="matrix(1 0 0 1 -21.74 -3.78)" fill="rgb(170,225,93)" stroke="none" stroke-width="1"/><path id="ePhXMWRTGzZ9" d="M125.51,125.66C122.14,127.05,118.42,127.38,114.96,128.52C111.5,129.66,108.03,131.96,107.14,135.52C106.68,137.31,106.92,139.3,106.04,140.92C104.87,143.1,102.13,143.92,100.47,145.72C97.31,149.2,99.39,155.17,103.25,157.86C107.11,160.55,112.04,160.96,116.66,161.75C117.924269,161.850886,119.129362,162.328047,120.12,163.12C122.81,165.69,119.83,170.34,120.97,173.88C121.61,175.88,123.5,177.25,124.36,179.17C126.01,182.83,123.51,186.87,121.86,190.53C118.883886,197.207117,118.615012,204.778597,121.11,211.65C120.995011,211.815759,120.868003,211.972848,120.73,212.12C114.148987,209.23213,108.122029,205.218671,102.92,200.26C97.85,193.15,93.84,185.4,94.26,176.88C94.49,172.26,96.03,167.8,96.32,163.2C96.8,155.73,94.1,147.62,97.76,141.1C99.76,137.49,103.66,133.53,101.48,130.03C97.63,130.59,93.48,130.68,89.95,129.34C98.744722,111.01872,116.035268,98.236147,136.13,95.2C139.93,106.06,136.91,120.86,125.51,125.66Z" transform="matrix(1 0 0 1 -21.74 -3.78)" fill="url(#ePhXMWRTGzZ9-fill)" stroke="none" stroke-width="1"/><path id="ePhXMWRTGzZ10" d="M206.63,155.85C206.634186,159.732496,206.26921,163.606596,205.54,167.42C203.909534,168.745887,202.381831,170.19336,200.97,171.75C196.12,177.43,195.07,185.31,194.28,192.75L194.28,192.75C194.28,192.91,194.28,193.07,194.23,193.22C194.23,193.12,194.23,193.03,194.15,192.93C193.764088,191.019327,192.931387,189.227135,191.72,187.7C190.34,186.21,187.89,185.47,186.21,186.64Q185.01,183.64,183.8,180.69C178.8,180.69,173.64,180.69,168.94,178.92C164.24,177.15,160.35,173.76,156.59,170.45C157.083612,164.714529,156.976363,158.943172,156.27,153.23C170.875851,151.644844,184.385975,144.734923,194.22,133.82C185.425043,133.381524,176.705042,135.631285,169.22,140.27C167.62,141.27,166,142.39,164.13,142.55C162.945092,142.579612,161.763187,142.417522,160.63,142.07L148.54,139C147.03,131.22,152.42,123.41,159.35,119.56C164.55,116.68,170.86,117.24,175.85,114.72C179.27,113,180.27,109.99,183.26,107.78L183.32,107.78C198.03556,119.392872,206.62408,137.104162,206.63,155.85Z" transform="matrix(1 0 0 1 -21.74 -3.78)" fill="url(#ePhXMWRTGzZ10-fill)" stroke="none" stroke-width="1"/><path id="ePhXMWRTGzZ11" d="M164.25,143.42C163.89,144.6,163.55,145.98,164.25,146.97C164.593998,147.39333,165.046905,147.71486,165.56,147.9C166.777813,148.481381,168.218787,148.330716,169.29,147.51C169.838846,146.909529,170.227484,146.180402,170.42,145.39C171.354845,142.520719,172.02432,139.571679,172.42,136.58C172.4953,136.305063,172.4953,136.014937,172.42,135.74C172.263751,135.451541,172.013072,135.225577,171.71,135.1C170.12,134.25,167.63,133.57,166.71,135.45C165.58,137.87,165.05,140.86,164.25,143.42Z" transform="matrix(1 0 0 1 -21.74 -3.78)" fill="rgb(251,196,214)" stroke="none" stroke-width="1"/><path id="ePhXMWRTGzZ12" d="M169.06,144.79C169.395849,144.743946,169.737771,144.774719,170.06,144.88C170.279456,145.001555,170.470389,145.168622,170.62,145.37L174.07,149.24C174.74,149.99,175.44,151.02,174.97,151.91C174.634653,152.411551,174.090813,152.734915,173.49,152.79C171.819006,152.942875,170.13923,152.613167,168.65,151.84C167.59,151.38,166.54,150.84,165.51,150.34C164.744684,149.992476,164.07543,149.463938,163.56,148.8C162.77,147.6,162.56,144.72,163.94,143.8C164.65,143.35,165.27,143.67,165.94,143.98C166.897834,144.501786,167.96931,144.779958,169.06,144.79Z" transform="matrix(1 0 0 1 -21.74 -3.78)" fill="rgb(170,225,93)" stroke="none" stroke-width="1"/><path id="ePhXMWRTGzZ13" d="M183.37,156.6C183.396933,156.822462,183.372998,157.048136,183.3,157.26C183.180871,157.465667,183.008032,157.635049,182.8,157.75C182.144178,158.201649,181.375361,158.461384,180.58,158.5C179.774767,158.53024,179.001647,158.182521,178.49,157.56C178.121917,156.977995,177.898999,156.3161,177.84,155.63C177.546965,154.15484,177.402908,152.653967,177.41,151.15C177.374633,150.97114,177.419785,150.785779,177.533446,150.643221C177.647108,150.500662,177.817755,150.415359,178,150.41C179.24,150.15,181.71,149.5,182.34,151.02C182.981857,152.812323,183.329679,154.696641,183.37,156.6Z" transform="matrix(1 0 0 1 -21.74 -3.78)" fill="rgb(251,196,214)" stroke="none" stroke-width="1"/><path id="ePhXMWRTGzZ14" d="M188.62,156.45C189.685665,156.507538,190.7386,156.709378,191.75,157.05C192.766201,157.401594,193.591534,158.158149,194.03,159.14C194.231976,159.615537,194.256811,160.147719,194.1,160.64C193.754634,161.370393,193.148081,161.944834,192.4,162.25C188.845957,164.13879,184.836298,165.00097,180.82,164.74C179.789439,164.781409,178.782713,164.423144,178.01,163.74C177.452234,162.914161,177.191333,161.92344,177.27,160.93L177.13,156.23C178.034919,156.270308,178.918115,156.520204,179.71,156.96C181.19,157.46,181.77,156.26,182.99,155.96C184.58,155.59,187,156.29,188.62,156.45Z" transform="matrix(1 0 0 1 -21.74 -3.78)" fill="rgb(170,225,93)" stroke="none" stroke-width="1"/><path id="ePhXMWRTGzZ15" d="M169.06,144.79C169.395849,144.743946,169.737771,144.774719,170.06,144.88C170.279456,145.001555,170.470389,145.168622,170.62,145.37L174.07,149.24C174.74,149.99,175.44,151.02,174.97,151.91C174.634653,152.411551,174.090813,152.734915,173.49,152.79C171.819006,152.942875,170.13923,152.613167,168.65,151.84C167.59,151.38,166.54,150.84,165.51,150.34C164.744684,149.992476,164.07543,149.463938,163.56,148.8C162.77,147.6,162.56,144.72,163.94,143.8C164.65,143.35,165.27,143.67,165.94,143.98C166.897834,144.501786,167.96931,144.779958,169.06,144.79Z" transform="matrix(1 0 0 1 -21.74 -3.78)" fill="url(#ePhXMWRTGzZ15-fill)" stroke="none" stroke-width="1"/><path id="ePhXMWRTGzZ16" d="M188.62,156.45C189.685665,156.507538,190.7386,156.709378,191.75,157.05C192.766201,157.401594,193.591534,158.158149,194.03,159.14C194.231976,159.615537,194.256811,160.147719,194.1,160.64C193.754634,161.370393,193.148081,161.944834,192.4,162.25C188.845957,164.13879,184.836298,165.00097,180.82,164.74C179.789439,164.781409,178.782713,164.423144,178.01,163.74C177.452234,162.914161,177.191333,161.92344,177.27,160.93L177.13,156.23C178.034919,156.270308,178.918115,156.520204,179.71,156.96C181.19,157.46,181.77,156.26,182.99,155.96C184.58,155.59,187,156.29,188.62,156.45Z" transform="matrix(1 0 0 1 -21.74 -3.78)" fill="url(#ePhXMWRTGzZ16-fill)" stroke="none" stroke-width="1"/><path id="ePhXMWRTGzZ17" d="M131.65,105.53C129.498881,105.343238,127.334308,105.376746,125.19,105.63C124.909609,105.644338,124.637593,105.730419,124.4,105.88C124.123957,106.139989,123.965185,106.500834,123.96,106.88C123.66,109.78,125.96,112.3,128.44,113.83C135.15,117.99,143.61,117.83,151.02,120.55C151.726976,120.737326,152.354702,121.147628,152.81,121.72C153.119043,122.340291,153.27018,123.02728,153.25,123.72C153.58,127.63,155.75,131.15,156.47,135C157.19,138.85,156.42,142.88,157.01,146.76C159.44,144.17,163.58,143.76,166.01,141.2C168.29,138.84,168.74,135.32,169.08,132.06L170,123.12C170.352743,121.786167,169.658713,120.398105,168.38,119.88C157.44,112.81,144.62,106.65,131.65,105.53Z" transform="matrix(1 0 0 1 -21.74 -3.78)" fill="url(#ePhXMWRTGzZ17-fill)" stroke="none" stroke-width="1"/><path id="ePhXMWRTGzZ18" d="M175.89,104.63C176.90076,104.832741,177.837451,105.306271,178.6,106C179.382012,107.088831,179.737787,108.426542,179.6,109.76C179.576322,119.248616,177.782285,128.649505,174.31,137.48C174.243736,138.110223,173.869212,138.666548,173.310235,138.96507C172.751257,139.263592,172.080613,139.265439,171.52,138.97C169.44049,138.408733,167.391132,137.741189,165.38,136.97L168.1,118.97C168.229842,118.470476,168.201897,117.943008,168.02,117.46C167.819097,117.117442,167.537618,116.829098,167.2,116.62C164.097621,114.363271,160.820616,112.356941,157.4,110.62C154.67,109.24,151.54,107.62,150.8,104.7C150.488425,103.687428,150.689943,102.586544,151.34,101.75C151.772507,101.325109,152.281444,100.985817,152.84,100.75C154.65,99.86,156.93,98.75,159.01,98.93C160.68,99.1,161.32,100.06,162.71,100.77C166.57,102.69,171.7,103.41,175.89,104.63Z" transform="matrix(1 0 0 1 -21.74 -3.78)" fill="rgb(40,35,40)" stroke="none" stroke-width="1"/><path id="ePhXMWRTGzZ19" d="M157.31,76C158.65,79.69,159.31,83.6,160.49,87.33C160.748386,88.318668,161.21174,89.24197,161.85,90.04C162.69827,90.853642,163.725902,91.45652,164.85,91.8Q167.2,92.71,169.63,93.39C170.71,93.68,172,94.18,172.12,95.28C172.145508,95.646839,172.069386,96.01361,171.9,96.34C171.050348,97.854835,169.475443,98.820221,167.74,98.89C166.036452,98.935654,164.339729,98.657392,162.74,98.07C161.283378,97.775151,159.946987,97.054752,158.9,96C158.304857,95.122767,157.887015,94.137611,157.67,93.1C156.028929,87.274569,153.751896,81.64738,150.88,76.32C150.020948,74.91311,149.348636,73.400408,148.88,71.82C148.22,69.06,148.21,62.52,151.06,64.92C153.36,66.86,156.3,73.26,157.31,76Z" transform="matrix(1 0 0 1 -21.74 -3.78)" fill="rgb(251,196,214)" stroke="none" stroke-width="1"/><path id="ePhXMWRTGzZ20" d="M146.4,104.28C148.085782,103.626731,149.726092,102.861698,151.31,101.99C157.31,98.67,152.4,97.04,150.4,93.05C148.97,90.22,149.55,86.83,150.29,83.76C151.6,78.36,153.35,72.76,152.09,67.37C151.932522,66.495231,151.591724,65.663685,151.09,64.93C150.723039,64.474841,150.299637,64.06824,149.83,63.72C148.563336,62.625854,147.105578,61.774931,145.53,61.21C142.53,60.21,139.13,60.94,136.28,62.37C125.08,67.99,122.69,82.18,123.14,93.53C123.26,96.68,123.75,100.01,125.78,102.42C127.81,104.83,130.68,105.75,133.62,106.11C137.965551,106.554208,142.35373,105.925854,146.4,104.28Z" transform="matrix(1 0 0 1 -21.74 -3.78)" fill="rgb(255,255,255)" stroke="none" stroke-width="1"/><path id="ePhXMWRTGzZ21" d="M129.7,97.86C129.790329,98.925231,130.133124,99.953618,130.7,100.86C131.7,102.27,133.54,102.79,135.23,103.2L142.84,105.08C143.76746,105.361163,144.730867,105.506011,145.7,105.51C147.78,105.41,149.57,104.08,151.22,102.8C151.641666,102.511485,152.007575,102.148964,152.3,101.73C148.1,101.33,143.91,100.91,139.73,100.3C137.27,99.94,134.67,99.44,132.86,97.75C131.924896,96.826262,131.213427,95.700908,130.78,94.46C130.48,93.69,130.34,91.73,129.47,91.56C129.250899,93.660397,129.328324,95.781171,129.7,97.86Z" transform="matrix(1 0 0 1 -21.74 -3.78)" fill="url(#ePhXMWRTGzZ21-fill)" stroke="none" stroke-width="1"/><path id="ePhXMWRTGzZ22" d="M144.72,70C144.719228,70.315312,144.593346,70.617427,144.37,70.84C144.162095,70.962431,143.919181,71.011717,143.68,70.98C142.094497,70.905686,140.618751,70.148806,139.633299,68.904529C138.647847,67.660252,138.249144,66.050367,138.54,64.49C138.72,63.49,139.15,62.63,139.42,61.69C139.95,59.81,139.86,57.69,141.05,56.14C142.080269,58.497293,143.255863,60.788365,144.57,63C145.250251,63.890649,145.492715,65.040514,145.23,66.13Z" transform="matrix(1 0 0 1 -21.74 -3.78)" fill="rgb(251,196,214)" stroke="none" stroke-width="1"/><path id="ePhXMWRTGzZ23" d="M145.31,65.16L144.86,68.16C144.86,68.16,139.71,65.61,140.38,60.88C141.05,56.15,145.31,65.16,145.31,65.16Z" transform="matrix(1 0 0 1 -21.74 -3.78)" fill="url(#ePhXMWRTGzZ23-fill)" stroke="none" stroke-width="1"/><path id="ePhXMWRTGzZ24" d="M151.33,62.24C151.065867,63.201054,150.506117,64.054673,149.73,64.68C149.359785,64.930914,148.946058,65.110648,148.51,65.21C145.36878,65.819497,142.192142,64.338143,140.64,61.54C139.196892,58.744083,139.043549,55.458163,140.22,52.54C140.6959,50.95836,141.772982,49.626369,143.22,48.83C144.826837,48.196328,146.644336,48.410372,148.06,49.4C149.954255,50.722554,151.418208,52.572489,152.27,54.72C153,56.91,152.08,60.15,151.33,62.24Z" transform="matrix(1 0 0 1 -21.74 -3.78)" fill="rgb(251,196,214)" stroke="none" stroke-width="1"/><path id="ePhXMWRTGzZ25" d="M173.94,117.2C175.221637,118.832122,176.234391,120.658455,176.94,122.61C180.872778,132.09412,183.428664,142.092046,184.53,152.3C181.319077,152.700021,178.070923,152.700021,174.86,152.3C174.608608,145.093542,173.497405,137.9429,171.55,131C171.205887,129.505647,170.614404,128.079327,169.8,126.78C168.37,124.71,166.02,123.51,163.8,122.39C158.605437,119.865751,153.176204,117.856164,147.59,116.39C145.23,115.74,142.85,115.14,140.53,114.39C138.58,113.73,133.11,111.31,131.53,110C129.856856,108.731495,128.773424,106.835488,128.53,104.75C128.53,105.27,143.77,106.31,144.86,106.19C148.53,105.8,152.86,103.7,156.48,105.19C159.31,106.35,161.9,108.77,164.48,110.44C167.61,112.4,171.43,114.3,173.94,117.2Z" transform="matrix(1 0 0 1 -21.74 -3.78)" fill="rgb(71,63,71)" stroke="none" stroke-width="1"/><polygon id="ePhXMWRTGzZ26" points="135.5,112.65 116.9,103.56 138.71,94.31 157.32,102.44 135.5,112.65" fill="rgb(170,225,93)" stroke="none" stroke-width="1"/><path id="ePhXMWRTGzZ27" d="M128.91,73.75C128.91,74.1,128.82,74.44,128.78,74.75C128.23,79.87,128.73,84.89,128.92,89.98C129.04,93.13,129.45,99.13,132.8,100.74C139.06,103.74,151.14,102.6,151.14,102.6C152.540635,102.375463,153.972029,102.433262,155.35,102.77C156.1,103,156.79,103.39,157.52,103.67C160.16,104.67,163.11,104.17,165.89,103.67C166.369021,103.613157,166.831614,103.460094,167.25,103.22C168.259431,102.323369,168.361869,100.782353,167.48,99.76C166.577473,98.811728,165.403921,98.165576,164.12,97.91C160.60928,96.764008,156.848742,96.618573,153.26,97.49C152.801339,97.644506,152.333835,97.7714,151.86,97.87C151.3047,97.96003,150.742458,98.000191,150.18,97.99L145.92,97.99C141.02,97.99,136.4,98.05,135.66,92.32C135.386791,90.19784,135.333174,88.053161,135.5,85.92C135.79,82.07,136.8,78.25,136.59,74.4C136.577297,73.178974,136.272104,71.978779,135.7,70.9C135.110302,69.810765,133.996841,69.106331,132.76,69.04C131.478875,69.135638,130.341022,69.894207,129.76,71.04C129.317299,71.885406,129.02943,72.8032,128.91,73.75Z" transform="matrix(1 0 0 1 -21.74 -3.78)" fill="rgb(251,196,214)" stroke="none" stroke-width="1"/><polygon id="ePhXMWRTGzZ28" points="164.98,84.1 138.98,97.33 135.5,112.65 157.32,102.44 164.98,84.1" fill="rgb(170,225,93)" stroke="none" stroke-width="1"/><path id="ePhXMWRTGzZ29" d="M152.61,56.72C152.581488,55.767949,152.228684,54.854186,151.61,54.13C151.295857,53.765501,150.924301,53.454745,150.51,53.21C149.93,52.87,149.79,52.84,149.41,53.39C148.92,54.1,148.76,54.93,148.31,55.67C147.817609,56.490728,147.130728,57.177609,146.31,57.67C145.387613,58.242342,144.314616,58.524527,143.23,58.48C142.799113,58.414884,142.360887,58.414884,141.93,58.48C141.636946,58.535431,141.383929,58.718776,141.24,58.98C141.136814,59.354034,141.099591,59.743187,141.13,60.13C141.04,61.13,140.05,61.84,139.5,62.71C138.95,63.58,138.79,64.87,138.13,65.8C138.007486,65.98659,137.83865,66.138197,137.64,66.24C137.17,66.44,136.64,66.18,136.15,66.09C134.7,65.84,133.53,67.19,132.29,68.01C129.8,69.65,126.54,69.23,123.6,68.74C122.699907,68.631118,121.822529,68.381403,121,68C120.111636,67.475718,119.322854,66.798651,118.67,66C117.58,64.8,116.5,63.58,115.43,62.36C115.032365,61.9694,114.716252,61.503728,114.5,60.99C114.385544,60.631744,114.354755,60.252015,114.41,59.88C114.507573,59.185553,114.713405,58.510695,115.02,57.88C115.8,56.13,116.71,54.23,118.47,53.44C120.23,52.65,122.31,53.24,124.25,53.04C124.486353,53.039486,124.716807,52.96616,124.91,52.83C125.064445,52.655549,125.174254,52.446227,125.23,52.22C126.04,49.53,127.05,46.61,129.47,45.22C131.334776,44.324224,133.43691,44.047443,135.47,44.43C137.482967,44.810356,139.536767,44.928004,141.58,44.78C142.58,44.62,143.58,44.29,144.58,44.09C146.918442,43.570387,149.366244,43.926172,151.46,45.09C153.559058,46.339061,154.889324,48.559928,155,51C154.959909,51.469145,154.959909,51.940855,155,52.41C155.07,52.85,155.26,53.28,155.33,53.72C155.412828,54.489248,155.162914,55.257219,154.643233,55.830398C154.123551,56.403576,153.38366,56.727301,152.61,56.72Z" transform="matrix(1 0 0 1 -21.74 -3.78)" fill="rgb(255,104,28)" stroke="none" stroke-width="1"/><path id="ePhXMWRTGzZ30" d="M128,76.59C127.69168,79.420111,127.65819,82.273432,127.9,85.11C127.887919,85.356158,127.950673,85.600204,128.08,85.81C128.292567,86.042698,128.585765,86.185722,128.9,86.21C130.519559,86.511472,132.162659,86.668755,133.81,86.68C134.277959,86.82958,134.788234,86.76285,135.201993,86.497967C135.615752,86.233084,135.889955,85.797601,135.95,85.31C136.85,81.55,137.74,77.79,138.42,73.98C138.69,72.45,138.88,70.73,137.96,69.49C136.63,67.69,133.04,67.49,131.31,68.8C129.22,70.41,128.33,74.17,128,76.59Z" transform="matrix(1 0 0 1 -21.74 -3.78)" fill="rgb(255,255,255)" stroke="none" stroke-width="1"/><path id="ePhXMWRTGzZ31" d="M156.3,71.79L159.13,78.57C159.269976,78.833576,159.325817,79.133718,159.29,79.43C159.218017,79.673189,159.079468,79.891405,158.89,80.06C157.507585,81.521815,155.866633,82.715235,154.05,83.58C152.375058,82.083496,151.015229,80.268125,150.05,78.24C149.11,75.83,149.32,73.15,149.6,70.58C149.77,68.95,149.71,63.71,152.48,65.74C154.41,67.13,155.43,69.7,156.3,71.79Z" transform="matrix(1 0 0 1 -21.74 -3.78)" fill="rgb(255,255,255)" stroke="none" stroke-width="1"/><g id="ePhXMWRTGzZ32_to" transform="translate(51.295,122.213993)"><g id="ePhXMWRTGzZ32" transform="translate(-51.295,-122.213993)"><path id="ePhXMWRTGzZ33" d="M105.11,135.39C105.111835,137.257953,104.345178,139.044409,102.99,140.33C101.834303,141.424905,100.344999,142.100902,98.76,142.25C98.463528,142.265184,98.166472,142.265184,97.87,142.25L48.2,141.25C44.23485,141.207192,41.024775,138.014852,40.96,134.05C40.958165,132.182047,41.724822,130.395591,43.08,129.11C44.453207,127.789635,46.29541,127.070024,48.2,127.11L49.89,127.11C49.535729,125.881348,49.35729,124.608705,49.36,123.33C49.353168,119.646357,50.865311,116.122847,53.54,113.59C54.706002,112.474343,56.060209,111.573795,57.54,110.93C59.455745,110.09408,61.530315,109.684625,63.62,109.73L67.84,109.82C73.152293,109.918848,77.99718,112.878551,80.51,117.56C81.73005,116.990602,83.063822,116.706748,84.41,116.73L85.5,116.73C90.19852,116.788786,93.999259,120.571806,94.08,125.27L94.08,125.68C94.084006,126.455463,93.972792,127.22722,93.75,127.97L97.86,128.06C101.879262,128.098433,105.115675,131.370558,105.11,135.39Z" transform="matrix(1 0 0 1 -21.74 -3.78)" fill="rgb(255,255,255)" stroke="none" stroke-width="1"/><path id="ePhXMWRTGzZ34" d="M98.76,142.25C98.463528,142.265184,98.166472,142.265184,97.87,142.25L48.2,141.25C44.23485,141.207192,41.024775,138.014852,40.96,134.05C40.958165,132.182047,41.724822,130.395591,43.08,129.11C41.13,141.37,53.93,139.62,53.93,139.62L86.2,139.62Z" transform="matrix(1 0 0 1 -21.74 -3.78)" fill="url(#ePhXMWRTGzZ34-fill)" stroke="none" stroke-width="1"/><path id="ePhXMWRTGzZ35" d="M53.49,128.59L49.89,127.22C49.535729,125.991348,49.35729,124.718705,49.36,123.44C49.353168,119.756357,50.865311,116.232847,53.54,113.7C54.706002,112.584343,56.060209,111.683795,57.54,111.04C47.57,119.6,53.49,128.59,53.49,128.59Z" transform="matrix(1 0 0 1 -21.74 -3.78)" fill="url(#ePhXMWRTGzZ35-fill)" stroke="none" stroke-width="1"/></g></g><g id="ePhXMWRTGzZ36_to" transform="translate(182.324783,64.102752)"><g id="ePhXMWRTGzZ36" transform="translate(-182.324783,-64.102752)"><path id="ePhXMWRTGzZ37" d="M236.13,77.27C236.131611,79.139939,235.360853,80.92752,234,82.21C232.840366,83.304984,231.347918,83.980809,229.76,84.13C229.463876,84.155385,229.166124,84.155385,228.87,84.13L179.21,83.13C175.28097,83.077429,172.096405,79.928199,172,76C171.978964,74.112734,172.743254,72.301622,174.11,71C175.49339,69.689278,177.334495,68.971498,179.24,69L180.92,69C180.570511,67.773748,180.392158,66.505081,180.39,65.23C180.384355,61.5466,181.896305,58.02354,184.57,55.49C185.736257,54.372088,187.090267,53.468286,188.57,52.82C190.485457,51.983159,192.560232,51.573664,194.65,51.62L198.87,51.71C204.182662,51.808102,209.026352,54.773237,211.53,59.46C212.747266,58.882334,214.082998,58.598063,215.43,58.63L216.52,58.63C221.220799,58.678046,225.029006,62.459653,225.11,67.16L225.11,67.57C225.109272,68.349133,224.994729,69.12398,224.77,69.87L228.88,69.95C232.890801,69.999168,236.119372,73.258911,236.13,77.27Z" transform="matrix(1 0 0 1 -21.74 -3.78)" fill="rgb(255,255,255)" stroke="none" stroke-width="1"/><path id="ePhXMWRTGzZ38" d="M229.77,84.13C229.473876,84.155385,229.176124,84.155385,228.88,84.13L179.22,83.13C175.287074,83.08276,172.096567,79.932024,172,76C171.978964,74.112734,172.743254,72.301622,174.11,71C172.11,83.27,184.96,81.51,184.96,81.51L217.23,81.51Z" transform="matrix(1 0 0 1 -21.74 -3.78)" fill="url(#ePhXMWRTGzZ38-fill)" stroke="none" stroke-width="1"/><path id="ePhXMWRTGzZ39" d="M184.51,70.47L180.9,69.1C180.550511,67.873748,180.372158,66.605081,180.37,65.33C180.364355,61.6466,181.876305,58.12354,184.55,55.59C185.716257,54.472088,187.070267,53.568286,188.55,52.92C178.59,61.48,184.51,70.47,184.51,70.47Z" transform="matrix(1 0 0 1 -21.74 -3.78)" fill="url(#ePhXMWRTGzZ39-fill)" stroke="none" stroke-width="1"/></g></g><path id="ePhXMWRTGzZ40" d="M142,58.5C141.706946,58.555431,141.453929,58.738776,141.31,59C141.206814,59.374034,141.169591,59.763187,141.2,60.15C141.11,61.15,140.12,61.86,139.57,62.73C139.02,63.6,138.86,64.89,138.2,65.82C138.077486,66.00659,137.90865,66.158197,137.71,66.26C137.24,66.46,136.71,66.2,136.22,66.11C134.77,65.86,133.6,67.21,132.36,68.03C129.87,69.67,126.61,69.25,123.67,68.76C122.744888,68.652065,121.843279,68.395427,121,68C120.111636,67.475718,119.322854,66.798651,118.67,66C117.58,64.8,116.5,63.58,115.43,62.36C115.032365,61.9694,114.716252,61.503728,114.5,60.99C114.385544,60.631744,114.354755,60.252015,114.41,59.88C114.876348,59.598446,115.360729,59.347904,115.86,59.13C117.392929,58.307293,119.184893,58.110177,120.86,58.58C122.2,59.1,123.15,60.29,124.3,61.14C127.612457,63.459279,132.117687,63.035856,134.94,60.14C135.443951,59.47607,136.03607,58.883951,136.7,58.38C137.89,57.73,140.31,57.83,142,58.5Z" transform="matrix(1 0 0 1 -21.74 -3.78)" fill="url(#ePhXMWRTGzZ40-fill)" stroke="none" stroke-width="1"/></svg>