<svg width="149" height="30" viewBox="0 0 149 30" fill="none" xmlns="http://www.w3.org/2000/svg">
<path d="M115.685 2.56429C118.932 2.56429 121.906 2.54357 124.88 2.59192C125.183 2.59192 125.578 2.94418 125.767 3.24578C126.626 4.61335 127.428 6.02467 128.317 7.53499C129.729 6.08913 131.045 4.66861 132.457 3.34938C132.924 2.91533 133.511 2.65069 134.131 2.59422C136.153 2.50213 138.179 2.55739 140.537 2.55739C139.999 3.09383 139.687 3.42536 139.354 3.73617C136.78 6.11216 134.231 8.50656 131.629 10.8388C130.986 11.4144 130.975 11.8012 131.431 12.5172C133.159 15.2155 134.817 17.9645 136.499 20.695C136.717 21.0357 136.907 21.3857 137.218 21.9267C134.619 21.9267 132.206 21.8047 129.794 21.9682C128.269 22.0741 127.415 21.5699 126.802 20.1056C126.234 18.7519 125.41 17.5178 124.809 16.4219C123.17 18.0335 121.54 19.6452 119.895 21.2384C119.598 21.5238 119.2 21.8784 118.844 21.883C115.256 21.9313 111.664 21.9129 107.98 21.9129C107.805 20.5039 107.64 19.1502 107.45 17.6122C106.108 17.6122 104.755 17.7941 103.462 17.5754C100.582 17.0896 98.5814 18.1049 97.4352 20.9552C97.104 21.7794 96.5026 21.9797 95.6919 21.9337C94.3845 21.86 93.0771 21.9152 91.5953 21.9152C91.8459 21.4916 92.0115 21.1762 92.2076 20.8838C96.1299 15.029 100.035 9.16963 103.988 3.34248C104.144 3.13172 104.338 2.95598 104.559 2.82552C104.78 2.69507 105.024 2.61252 105.275 2.58271C107.779 2.51134 110.287 2.58271 112.791 2.53206C113.549 2.52055 113.739 2.81525 113.817 3.58192C114.29 8.11517 114.826 12.6369 115.343 17.1656C115.398 17.4942 115.471 17.8193 115.561 18.1394L121.645 12.2271L115.685 2.56429ZM106.376 7.39915L106.121 7.31627L102.238 13.5095H107.032C106.807 11.3914 106.592 9.39065 106.376 7.38994V7.39915Z" fill="white"/>
<path d="M50.5535 29.0883C47.6248 29.0883 45.0121 29.1136 42.4016 29.0584C42.0486 29.0584 41.6215 28.7107 41.3687 28.3953C39.8216 26.466 38.3376 24.4814 36.7687 22.5636C36.6021 22.3969 36.4038 22.2696 36.187 22.1902C35.9702 22.1108 35.7399 22.0811 35.5114 22.1031C31.8941 22.6787 28.303 22.8859 24.7446 21.7187C22.267 20.9059 21.2058 19.5936 21.2821 16.8631C21.378 13.4879 21.8617 10.1542 23.0449 6.97931C24.0408 4.30403 25.8777 2.6694 28.5493 2.14447C32.3365 1.39319 36.2195 1.35345 40.0199 2.02705C43.8071 2.69933 45.0012 4.46289 44.6918 8.50113C44.5915 9.82495 44.2974 11.1304 44.0795 12.5186H37.5728L50.5535 29.0883ZM37.6185 8.34918L37.3026 8.27781C37.429 7.1681 37.3353 6.10904 36.1804 5.70153C33.694 4.82435 31.5607 5.12595 30.3884 7.79663C29.1986 10.5041 28.704 13.4027 28.5253 16.3589C28.449 17.6067 29.0199 18.355 30.14 18.7809C32.245 19.5798 34.6964 18.6359 35.4831 16.3658C36.3895 13.7665 36.9212 11.0268 37.6185 8.34918Z" fill="white"/>
<path d="M4.51284 0.144531H22.9085C22.6622 1.48218 22.4574 2.78298 22.148 4.05847C22.1 4.25416 21.5684 4.42223 21.2589 4.42684C18.6092 4.45446 15.9573 4.44295 13.3075 4.44295H12.0698L11.2919 8.175H20.152C19.86 9.64158 19.653 10.9171 19.3174 12.1534C19.2585 12.3698 18.6637 12.531 18.3216 12.5379C16.0357 12.5701 13.7455 12.6001 11.4597 12.5379C10.5881 12.5126 10.2351 12.8303 10.1043 13.7075C9.92999 14.8724 9.65324 16.0213 9.39176 17.3221H19.8687L18.8881 21.8646H0C1.50355 14.6284 2.99621 7.44057 4.51284 0.144531Z" fill="white"/>
<path d="M55.6021 2.56453C54.6585 7.06325 53.7564 11.3594 52.8521 15.6532C52.3814 17.8841 53.2879 19.0261 55.4669 18.9662C57.3148 18.9156 58.2736 18.1259 58.6985 16.2172C59.6355 12.0063 60.5747 7.79539 61.4441 3.57064C61.6141 2.7395 61.93 2.52769 62.6731 2.54381C64.8522 2.58525 67.0203 2.55762 69.3214 2.55762C68.6895 5.59207 68.0859 8.49299 67.4779 11.3916C67.1554 12.9249 66.809 14.4537 66.4995 15.9962C65.7194 19.8572 64.266 21.5218 60.5398 22.0905C58.121 22.4588 55.6369 22.3898 53.1789 22.4289C52.6936 22.3845 52.2436 22.1426 51.9238 21.7543C49.9801 19.3737 48.1061 16.9195 46.1711 14.5366C45.9767 14.322 45.8399 14.0567 45.7748 13.7677C45.7097 13.4788 45.7186 13.1768 45.8006 12.8927C46.487 9.72012 47.1081 6.53372 47.8032 3.36343C47.8707 3.05953 48.263 2.61288 48.5136 2.60597C50.8299 2.5415 53.1506 2.56453 55.6021 2.56453Z" fill="white"/>
<path d="M86.4457 21.8922H78.8821C79.209 20.2414 79.5119 18.669 79.8388 17.0804C80.7714 12.5586 81.7236 8.04145 82.641 3.51509C82.7739 2.85892 82.9766 2.5389 83.6913 2.54351C88.6618 2.57574 93.6322 2.55962 98.6026 2.56423C98.8423 2.57972 99.081 2.60969 99.3174 2.65402C99.0995 3.70618 98.9382 4.72611 98.631 5.69538C98.5373 5.98548 98.0208 6.29859 97.6918 6.3055C95.3675 6.35768 93.0431 6.36229 90.7188 6.31931C89.9627 6.3055 89.5988 6.53573 89.5116 7.37608C89.4244 8.21643 89.1847 9.01533 88.9864 9.96158H96.4083C96.1447 11.2647 95.9093 12.4228 95.6653 13.6315C93.4405 13.6315 91.3072 13.6683 89.1651 13.6131C88.3981 13.5923 88.1105 13.8249 87.9601 14.6422C87.5243 17.0412 86.973 19.4195 86.4457 21.8922Z" fill="white"/>
<path d="M79.915 2.57375C78.5422 9.12148 77.2064 15.4988 75.8663 21.89H68.2701C68.9239 18.7543 69.5667 15.6738 70.2117 12.5818C70.8567 9.48985 71.4842 6.44851 72.151 3.39106C72.2164 3.08946 72.5106 2.61519 72.7067 2.61058C75.0557 2.55533 77.4069 2.57375 79.915 2.57375Z" fill="white"/>
<path d="M148.919 5.42055C148.93 7.43729 147.525 8.96827 145.679 8.94985C144.817 8.93388 143.994 8.56492 143.385 7.92072C142.775 7.27653 142.426 6.40741 142.411 5.49652C142.411 4.56597 142.757 3.67284 143.376 3.01055C143.995 2.34826 144.836 1.97012 145.716 1.95801C146.143 1.95976 146.565 2.05109 146.957 2.2267C147.35 2.4023 147.706 2.65867 148.004 2.98088C148.302 3.30309 148.536 3.68472 148.694 4.10355C148.851 4.52239 148.928 4.97007 148.919 5.42055ZM145.764 8.31213C146.46 8.27487 147.116 7.96239 147.604 7.43684C148.091 6.9113 148.373 6.2112 148.394 5.4758C148.393 5.10151 148.322 4.73116 148.185 4.38588C148.048 4.04061 147.849 3.72717 147.597 3.46347C147.346 3.19978 147.048 2.99098 146.72 2.849C146.392 2.70702 146.041 2.63465 145.687 2.63601C145.333 2.63737 144.982 2.71244 144.655 2.85693C144.328 3.00142 144.032 3.2125 143.782 3.47813C143.533 3.74375 143.335 4.05871 143.201 4.40503C143.066 4.75134 142.998 5.12223 142.999 5.49652C143.03 6.25093 143.335 6.96382 143.849 7.48784C144.364 8.01186 145.049 8.30695 145.764 8.31213Z" fill="white"/>
<path d="M144.443 3.34937C145.354 3.68089 146.186 3.91572 146.916 4.32553C147.018 4.38078 146.698 5.30399 146.321 5.79437C146.604 6.27324 146.89 6.75212 147.173 7.23329L146.97 7.48193L145.024 5.50429C144.902 6.38836 144.833 6.90406 144.763 7.42207L144.443 7.39675V3.34937ZM145.081 3.97788C144.763 4.95865 144.955 5.32011 145.604 5.19118C145.898 5.13362 146.155 4.86426 146.428 4.68928L145.081 3.97788Z" fill="white"/>
</svg>
