<svg width="93" height="70" viewBox="0 0 93 70" fill="none" xmlns="http://www.w3.org/2000/svg">
<path d="M85.7451 35.0599L85.7524 35L85.7451 34.9401L85.7446 34.9359C85.7307 34.8199 85.6629 34.2975 85.2859 33.3103C84.8729 32.2293 84.1976 30.8749 83.2174 29.3181C81.2552 26.2019 78.3026 22.6414 74.5545 19.2853C66.9687 12.4929 56.9893 7.27778 46.5 7.27778C35.8372 7.27778 25.8301 12.1585 18.357 18.6341C14.6489 21.8473 11.7481 25.3011 9.82421 28.431C7.80067 31.7231 7.25 34.0066 7.25 35C7.25 35.9934 7.80067 38.2769 9.82421 41.569C11.7481 44.6989 14.6489 48.1527 18.357 51.3659C25.8301 57.8415 35.8372 62.7222 46.5 62.7222C56.9893 62.7222 66.9687 57.5071 74.5545 50.7147C78.3026 47.3586 81.2552 43.7981 83.2174 40.6819C84.1976 39.1251 84.8729 37.7707 85.2859 36.6897C85.6629 35.7025 85.7307 35.1801 85.7446 35.0641L85.7451 35.0599ZM65.375 35C65.375 45.4644 56.9227 53.9444 46.5 53.9444C36.0773 53.9444 27.625 45.4644 27.625 35C27.625 24.5356 36.0773 16.0556 46.5 16.0556C56.9227 16.0556 65.375 24.5356 65.375 35ZM46.5 47.1667C53.1981 47.1667 58.625 41.7178 58.625 35C58.625 28.2822 53.1981 22.8333 46.5 22.8333C39.8019 22.8333 34.375 28.2822 34.375 35C34.375 41.7178 39.8019 47.1667 46.5 47.1667ZM92.5 35C92.5 37.2866 91.261 40.5903 88.9227 44.3039C86.5965 47.9982 83.2227 52.0343 79.0469 55.7733C70.6891 63.257 59.1778 69.5 46.5 69.5C33.8102 69.5 22.297 63.7326 13.947 56.4971C9.77396 52.8811 6.40372 48.909 4.08017 45.1288C1.7498 41.3375 0.5 37.785 0.5 35C0.5 32.215 1.7498 28.6625 4.08017 24.8712C6.40372 21.091 9.77396 17.1189 13.947 13.5029C22.297 6.26739 33.8102 0.5 46.5 0.5C59.1778 0.5 70.6891 6.74301 79.0469 14.2267C83.2227 17.9657 86.5965 22.0018 88.9227 25.6961C91.261 29.4097 92.5 32.7134 92.5 35Z" fill="white" stroke="#2687E5"/>
</svg>
