<svg width="69" height="69" viewBox="0 0 69 69" fill="none" xmlns="http://www.w3.org/2000/svg">
<path fill-rule="evenodd" clip-rule="evenodd" d="M34.5 69C53.5538 69 69 53.5538 69 34.5C69 15.4462 53.5538 0 34.5 0C15.4462 0 0 15.4462 0 34.5C0 53.5538 15.4462 69 34.5 69Z" fill="#C3E1F5"/>
<path d="M14.7042 53.2957H20.8626V51.2416H23.3251V49.1916H24.5584V24.1458H14.7042V53.2957Z" fill="#B8C0CE"/>
<path d="M15.9376 24.1458H24.5584V52.0624C22.272 52.0624 20.0793 51.1542 18.4625 49.5374C16.8458 47.9207 15.9376 45.728 15.9376 43.4416V24.1458Z" fill="#CCD1DC"/>
<path d="M44.2624 14.7041H23.7374V17.1666H44.2624V14.7041Z" fill="#7190C4"/>
<path d="M24.5583 14.7041H44.2625V15.9541H25.7875C25.456 15.9541 25.138 15.8224 24.9036 15.588C24.6692 15.3536 24.5375 15.0356 24.5375 14.7041H24.5583Z" fill="#89A3CE"/>
<path d="M43.4417 17.1667H24.5584V49.1876H43.4417V17.1667Z" fill="#CCD1DC"/>
<path d="M25.7875 17.1667H43.4416V47.9584H28.6625C27.9 47.9584 27.1687 47.6555 26.6295 47.1163C26.0904 46.5772 25.7875 45.8459 25.7875 45.0834V17.1667Z" fill="#DEE1E7"/>
<path d="M40.5708 18.3999H35.6417C34.735 18.3999 34 19.1349 34 20.0416V45.4957C34 46.4024 34.735 47.1374 35.6417 47.1374H40.5708C41.4775 47.1374 42.2125 46.4024 42.2125 45.4957V20.0416C42.2125 19.1349 41.4775 18.3999 40.5708 18.3999Z" fill="#F3F4F5"/>
<path d="M47.1374 51.2417H20.8624V53.2959H47.1374V51.2417Z" fill="#8288A1"/>
<path d="M44.6751 49.1917H23.3251V51.2458H44.6751V49.1917Z" fill="#969CB2"/>
<path d="M53.2958 53.2957H47.1374V51.2416H44.6749V49.1916H43.4416V24.1458H53.2958V53.2957Z" fill="#B8C0CE"/>
<path d="M44.6749 24.1458H53.2958V52.0624C51.0094 52.0624 48.8166 51.1542 47.1999 49.5374C45.5832 47.9207 44.6749 45.728 44.6749 43.4416V24.1458Z" fill="#CCD1DC"/>
<path d="M51.2416 25.3792H48.7791C48.3258 25.3792 47.9583 25.7467 47.9583 26.2V47.1375C47.9583 47.5908 48.3258 47.9583 48.7791 47.9583H51.2416C51.695 47.9583 52.0625 47.5908 52.0625 47.1375V26.2C52.0625 25.7467 51.695 25.3792 51.2416 25.3792Z" fill="#DEE1E7"/>
<path d="M22.5043 25.7876H20.4502C19.9968 25.7876 19.6293 26.1551 19.6293 26.6084V47.1376C19.6293 47.5909 19.9968 47.9584 20.4502 47.9584H22.5043C22.9577 47.9584 23.3252 47.5909 23.3252 47.1376V26.6084C23.3252 26.1551 22.9577 25.7876 22.5043 25.7876Z" fill="#DEE1E7"/>
<path d="M34 42.6208H29.8959V49.1875H34V42.6208Z" fill="#77CACB"/>
<path d="M31.1249 42.6208H33.9999V47.9583H32.7499C32.3145 47.9583 31.897 47.7854 31.5891 47.4775C31.2812 47.1696 31.1083 46.7521 31.1083 46.3167V42.6208H31.1249Z" fill="#90D1D7"/>
<path d="M38.1042 42.6208H34V49.1875H38.1042V42.6208Z" fill="#77CACB"/>
<path d="M35.25 42.6208H38.125V47.9583H36.875C36.4425 47.954 36.0292 47.7791 35.7249 47.4717C35.4206 47.1643 35.25 46.7492 35.25 46.3167V42.6208Z" fill="#90D1D7"/>
<path d="M30.3041 19.6292H27.0208V22.9125H30.3041V19.6292Z" fill="#ABD9E6"/>
<path d="M40.9791 19.6292H37.6957V22.9125H40.9791V19.6292Z" fill="#ABD9E6"/>
<path d="M35.6416 19.6292H32.3583V22.9125H35.6416V19.6292Z" fill="#ABD9E6"/>
<path d="M30.3041 25.3792H27.0208V28.6625H30.3041V25.3792Z" fill="#ABD9E6"/>
<path d="M40.9791 25.3792H37.6957V28.6625H40.9791V25.3792Z" fill="#ABD9E6"/>
<path d="M35.6416 25.3792H32.3583V28.6625H35.6416V25.3792Z" fill="#ABD9E6"/>
<path d="M30.3041 31.125H27.0208V34.4083H30.3041V31.125Z" fill="#ABD9E6"/>
<path d="M40.9791 31.125H37.6957V34.4083H40.9791V31.125Z" fill="#ABD9E6"/>
<path d="M35.6416 31.125H32.3583V34.4083H35.6416V31.125Z" fill="#ABD9E6"/>
<path d="M30.3041 36.875H27.0208V40.1583H30.3041V36.875Z" fill="#ABD9E6"/>
<path d="M27.8416 36.875H30.3041V39.3375C29.651 39.3375 29.0246 39.0781 28.5628 38.6162C28.101 38.1544 27.8416 37.5281 27.8416 36.875Z" fill="#C3E1F5"/>
<path d="M40.9791 36.875H37.6957V40.1583H40.9791V36.875Z" fill="#ABD9E6"/>
<path d="M35.6416 36.875H32.3583V40.1583H35.6416V36.875Z" fill="#ABD9E6"/>
<path d="M33.1667 36.875H35.6292V39.3375C34.9761 39.3375 34.3497 39.0781 33.8879 38.6162C33.4261 38.1544 33.1667 37.5281 33.1667 36.875Z" fill="#C3E1F5"/>
<path d="M38.5168 36.875H40.9793V39.3375C40.3262 39.3375 39.6998 39.0781 39.238 38.6162C38.7762 38.1544 38.5168 37.5281 38.5168 36.875Z" fill="#C3E1F5"/>
<path d="M27.8416 31.125H30.3041V33.5833C29.651 33.5833 29.0246 33.3239 28.5628 32.8621C28.101 32.4003 27.8416 31.7739 27.8416 31.1208V31.125Z" fill="#C3E1F5"/>
<path d="M33.1667 31.125H35.6292V33.5833C34.9768 33.5833 34.3511 33.3245 33.8894 32.8636C33.4277 32.4027 33.1678 31.7774 33.1667 31.125Z" fill="#C3E1F5"/>
<path d="M38.5168 31.125H40.9793V33.5833C40.3262 33.5833 39.6998 33.3239 39.238 32.8621C38.7762 32.4003 38.5168 31.7739 38.5168 31.1208V31.125Z" fill="#C3E1F5"/>
<path d="M27.8416 25.3792H30.3041V27.8417C29.651 27.8417 29.0246 27.5822 28.5628 27.1204C28.101 26.6586 27.8416 26.0322 27.8416 25.3792Z" fill="#C3E1F5"/>
<path d="M33.1667 25.3792H35.6292V27.8417C34.9761 27.8417 34.3497 27.5822 33.8879 27.1204C33.4261 26.6586 33.1667 26.0322 33.1667 25.3792Z" fill="#C3E1F5"/>
<path d="M38.5168 25.3792H40.9793V27.8417C40.3262 27.8417 39.6998 27.5822 39.238 27.1204C38.7762 26.6586 38.5168 26.0322 38.5168 25.3792Z" fill="#C3E1F5"/>
<path d="M27.8416 19.6292H30.3041V22.0917C29.651 22.0917 29.0246 21.8322 28.5628 21.3704C28.101 20.9086 27.8416 20.2822 27.8416 19.6292Z" fill="#C3E1F5"/>
<path d="M33.1667 19.6292H35.6292V22.0917C34.9761 22.0917 34.3497 21.8322 33.8879 21.3704C33.4261 20.9086 33.1667 20.2822 33.1667 19.6292Z" fill="#C3E1F5"/>
<path d="M38.5168 19.6292H40.9793V22.0917C40.3262 22.0917 39.6998 21.8322 39.238 21.3704C38.7762 20.9086 38.5168 20.2822 38.5168 19.6292Z" fill="#C3E1F5"/>
<path d="M50.8333 27.4333H43.4416V29.8959H50.8333V27.4333Z" fill="#ABD9E6"/>
<path d="M50.8333 32.7666H43.4416V35.2291H50.8333V32.7666Z" fill="#ABD9E6"/>
<path d="M50.8333 38.1042H43.4416V40.5668H50.8333V38.1042Z" fill="#ABD9E6"/>
<path d="M50.8333 43.4417H43.4416V45.9042H50.8333V43.4417Z" fill="#ABD9E6"/>
<path d="M44.2626 43.4417H50.8334V44.6917H45.4959C45.1644 44.6917 44.8464 44.56 44.612 44.3255C44.3776 44.0911 44.2459 43.7732 44.2459 43.4417H44.2626Z" fill="#C3E1F5"/>
<path d="M44.2626 38.1042H50.8334V39.3542H45.4959C45.1644 39.3542 44.8464 39.2226 44.612 38.9881C44.3776 38.7537 44.2459 38.4358 44.2459 38.1042H44.2626Z" fill="#C3E1F5"/>
<path d="M44.2626 32.75H50.8334V34H45.4959C45.1644 34 44.8464 33.8683 44.612 33.6339C44.3776 33.3995 44.2459 33.0815 44.2459 32.75H44.2626Z" fill="#C3E1F5"/>
<path d="M44.2626 27.4333H50.8334V28.6833H45.4959C45.1644 28.6833 44.8464 28.5517 44.612 28.3172C44.3776 28.0828 44.2459 27.7649 44.2459 27.4333H44.2626Z" fill="#C3E1F5"/>
<path d="M24.5583 27.4333H17.1666V29.8959H24.5583V27.4333Z" fill="#ABD9E6"/>
<path d="M24.5583 32.7666H17.1666V35.2291H24.5583V32.7666Z" fill="#ABD9E6"/>
<path d="M24.5583 38.1042H17.1666V40.5668H24.5583V38.1042Z" fill="#ABD9E6"/>
<path d="M24.5583 43.4417H17.1666V45.9042H24.5583V43.4417Z" fill="#ABD9E6"/>
<path d="M24.5584 27.4333V28.6625H19.2209C18.893 28.6626 18.5782 28.5337 18.3443 28.3038C18.1105 28.0739 17.9764 27.7612 17.9709 27.4333H24.5584Z" fill="#C3E1F5"/>
<path d="M24.5584 32.75V34H19.2209C18.8894 34 18.5715 33.8683 18.3371 33.6339C18.1026 33.3995 17.9709 33.0815 17.9709 32.75H24.5584Z" fill="#C3E1F5"/>
<path d="M24.5584 38.1042V39.3542H19.2209C18.8894 39.3542 18.5715 39.2226 18.3371 38.9881C18.1026 38.7537 17.9709 38.4358 17.9709 38.1042H24.5584Z" fill="#C3E1F5"/>
<path d="M24.5584 43.4417V44.6917H19.2209C18.8894 44.6917 18.5715 44.56 18.3371 44.3255C18.1026 44.0911 17.9709 43.7732 17.9709 43.4417H24.5584Z" fill="#C3E1F5"/>
<path d="M52.0624 21.6833H43.4416V24.1459H52.0624V21.6833Z" fill="#7190C4"/>
<path d="M44.6751 21.6833H52.0626V22.9333H45.9043C45.5728 22.9333 45.2548 22.8017 45.0204 22.5672C44.786 22.3328 44.6543 22.0149 44.6543 21.6833H44.6751Z" fill="#89A3CE"/>
<path d="M24.5584 21.6833H15.9376V24.1459H24.5584V21.6833Z" fill="#7190C4"/>
<path d="M17.1666 21.6833H24.5583V22.9333H18.4C18.0684 22.9333 17.7505 22.8017 17.5161 22.5672C17.2817 22.3328 17.15 22.0149 17.15 21.6833H17.1666Z" fill="#89A3CE"/>
<path d="M53.2959 23.7376H52.4625V21.6834C52.4625 21.5729 52.4186 21.4669 52.3405 21.3888C52.2624 21.3107 52.1564 21.2668 52.0459 21.2668H43.8542V17.5793H44.2709C44.3814 17.5793 44.4874 17.5354 44.5655 17.4572C44.6436 17.3791 44.6875 17.2731 44.6875 17.1626V14.7043C44.6875 14.5938 44.6436 14.4878 44.5655 14.4096C44.4874 14.3315 44.3814 14.2876 44.2709 14.2876H23.7375C23.627 14.2876 23.5211 14.3315 23.4429 14.4096C23.3648 14.4878 23.3209 14.5938 23.3209 14.7043V17.1668C23.3209 17.2773 23.3648 17.3833 23.4429 17.4614C23.5211 17.5395 23.627 17.5834 23.7375 17.5834H24.1542V21.2793H15.9375C15.827 21.2793 15.7211 21.3232 15.6429 21.4013C15.5648 21.4794 15.5209 21.5854 15.5209 21.6959V23.7501H14.6875C14.577 23.7501 14.4711 23.794 14.3929 23.8721C14.3148 23.9503 14.2709 24.0563 14.2709 24.1668V53.3334C14.2709 53.4439 14.3148 53.5499 14.3929 53.6281C14.4711 53.7062 14.577 53.7501 14.6875 53.7501H53.2959C53.4064 53.7501 53.5124 53.7062 53.5905 53.6281C53.6686 53.5499 53.7125 53.4439 53.7125 53.3334V24.1668C53.7142 24.111 53.7047 24.0555 53.6845 24.0035C53.6643 23.9515 53.6339 23.904 53.595 23.864C53.5562 23.824 53.5097 23.7922 53.4583 23.7705C53.4069 23.7487 53.3517 23.7376 53.2959 23.7376ZM51.6542 22.0959V23.7376H43.8542V22.0959H51.6542ZM43.8542 27.8418H50.4209V29.4834H43.8542V27.8418ZM43.8542 33.1793H50.4209V34.8334H43.8542V33.1793ZM43.8542 38.5168H50.4209V40.1584H43.8542V38.5168ZM43.8542 43.8543H50.4209V45.4959H43.8542V43.8543ZM44.2709 50.8334H23.7375V49.5834H44.2625L44.2709 50.8334ZM24.1459 45.4959H17.5792V43.8543H24.1459V45.4959ZM24.1459 40.1584H17.5792V38.5168H24.1459V40.1584ZM24.1459 34.8209H17.5792V33.1668H24.1459V34.8209ZM24.1459 29.4834H17.5792V27.8418H24.1459V29.4834ZM34.4167 43.0334H37.7V48.7793H34.4167V43.0334ZM33.5834 48.7793H30.3042V43.0334H33.5834V48.7793ZM24.1459 15.1168H43.8542V16.7584H24.1459V15.1168ZM43.0334 17.5793V48.7793H38.5167V42.6209C38.5167 42.5104 38.4728 42.4044 38.3947 42.3263C38.3165 42.2482 38.2106 42.2043 38.1 42.2043H29.8959C29.7854 42.2043 29.6794 42.2482 29.6012 42.3263C29.5231 42.4044 29.4792 42.5104 29.4792 42.6209V48.7793H24.9667V17.5793H43.0334ZM16.3459 22.0959H24.1459V23.7376H16.3459V22.0959ZM20.4542 51.2418V52.8834H15.1167V24.5501H24.1459V27.0126H17.1667C17.0562 27.0126 16.9502 27.0565 16.8721 27.1346C16.7939 27.2128 16.75 27.3188 16.75 27.4293V29.8918C16.75 30.0023 16.7939 30.1083 16.8721 30.1864C16.9502 30.2645 17.0562 30.3084 17.1667 30.3084H24.1459V32.3626H17.1667C17.0562 32.3626 16.9502 32.4065 16.8721 32.4846C16.7939 32.5628 16.75 32.6688 16.75 32.7793V35.2501C16.75 35.3606 16.7939 35.4666 16.8721 35.5447C16.9502 35.6229 17.0562 35.6668 17.1667 35.6668H24.1459V37.7209H17.1667C17.0562 37.7209 16.9502 37.7648 16.8721 37.843C16.7939 37.9211 16.75 38.0271 16.75 38.1376V40.6001C16.75 40.7106 16.7939 40.8166 16.8721 40.8947C16.9502 40.9729 17.0562 41.0168 17.1667 41.0168H24.1459V43.0709H17.1667C17.0562 43.0709 16.9502 43.1148 16.8721 43.193C16.7939 43.2711 16.75 43.3771 16.75 43.4876V45.9501C16.75 46.0606 16.7939 46.1666 16.8721 46.2447C16.9502 46.3229 17.0562 46.3668 17.1667 46.3668H24.1459V48.8293H23.3125C23.202 48.8293 23.0961 48.8732 23.0179 48.9513C22.9398 49.0294 22.8959 49.1354 22.8959 49.2459V50.8334H20.8625C20.7549 50.8356 20.6523 50.8793 20.5762 50.9554C20.5 51.0315 20.4563 51.1341 20.4542 51.2418ZM21.2875 51.6584H46.725V52.8876H21.275L21.2875 51.6584ZM52.8959 52.8876H47.5459V51.2418C47.5459 51.1313 47.502 51.0253 47.4238 50.9471C47.3457 50.869 47.2397 50.8251 47.1292 50.8251H45.0834V49.1918C45.0834 49.0813 45.0395 48.9753 44.9613 48.8971C44.8832 48.819 44.7772 48.7751 44.6667 48.7751H43.8334V46.3168H50.8334C50.9439 46.3168 51.0499 46.2729 51.128 46.1947C51.2061 46.1166 51.25 46.0106 51.25 45.9001V43.4418C51.25 43.3313 51.2061 43.2253 51.128 43.1471C51.0499 43.069 50.9439 43.0251 50.8334 43.0251H43.8542V40.9793H50.8334C50.9439 40.9793 51.0499 40.9354 51.128 40.8572C51.2061 40.7791 51.25 40.6731 51.25 40.5626V38.1043C51.25 37.9938 51.2061 37.8878 51.128 37.8096C51.0499 37.7315 50.9439 37.6876 50.8334 37.6876H43.8542V35.6418H50.8334C50.9439 35.6418 51.0499 35.5979 51.128 35.5197C51.2061 35.4416 51.25 35.3356 51.25 35.2251V32.7501C51.25 32.6396 51.2061 32.5336 51.128 32.4555C51.0499 32.3773 50.9439 32.3334 50.8334 32.3334H43.8542V30.3043H50.8334C50.9439 30.3043 51.0499 30.2604 51.128 30.1822C51.2061 30.1041 51.25 29.9981 51.25 29.8876V27.4334C51.25 27.3229 51.2061 27.2169 51.128 27.1388C51.0499 27.0607 50.9439 27.0168 50.8334 27.0168H43.8542V24.5584H52.8834L52.8959 52.8876Z" fill="#39426A"/>
<path d="M27.0209 23.3249H30.3042C30.4147 23.3249 30.5207 23.281 30.5988 23.2029C30.677 23.1247 30.7209 23.0187 30.7209 22.9082V19.6291C30.7209 19.5186 30.677 19.4126 30.5988 19.3344C30.5207 19.2563 30.4147 19.2124 30.3042 19.2124H27.0209C26.9103 19.2124 26.8044 19.2563 26.7262 19.3344C26.6481 19.4126 26.6042 19.5186 26.6042 19.6291V22.9166C26.6064 23.0256 26.6512 23.1295 26.7291 23.2058C26.807 23.2822 26.9118 23.3249 27.0209 23.3249ZM27.4375 20.0416H29.9V22.5041H27.4334L27.4375 20.0416Z" fill="#39426A"/>
<path d="M37.6958 23.3249H40.9791C41.0896 23.3249 41.1956 23.281 41.2737 23.2029C41.3519 23.1247 41.3958 23.0187 41.3958 22.9082V19.6291C41.3958 19.5186 41.3519 19.4126 41.2737 19.3344C41.1956 19.2563 41.0896 19.2124 40.9791 19.2124H37.6958C37.5853 19.2124 37.4793 19.2563 37.4012 19.3344C37.323 19.4126 37.2791 19.5186 37.2791 19.6291V22.9166C37.2813 23.0256 37.3262 23.1295 37.4041 23.2058C37.482 23.2822 37.5867 23.3249 37.6958 23.3249ZM38.1124 20.0416H40.5749V22.5041H38.1041L38.1124 20.0416Z" fill="#39426A"/>
<path d="M32.3583 23.3249H35.6416C35.7522 23.3249 35.8581 23.281 35.9363 23.2029C36.0144 23.1247 36.0583 23.0187 36.0583 22.9082V19.6291C36.0583 19.5186 36.0144 19.4126 35.9363 19.3344C35.8581 19.2563 35.7522 19.2124 35.6416 19.2124H32.3583C32.2478 19.2124 32.1418 19.2563 32.0637 19.3344C31.9855 19.4126 31.9417 19.5186 31.9417 19.6291V22.9166C31.9438 23.0256 31.9887 23.1295 32.0666 23.2058C32.1445 23.2822 32.2492 23.3249 32.3583 23.3249ZM32.775 20.0416H35.25V22.5041H32.75L32.775 20.0416Z" fill="#39426A"/>
<path d="M27.0209 29.0749H30.3042C30.4147 29.0749 30.5207 29.031 30.5988 28.9529C30.677 28.8747 30.7209 28.7687 30.7209 28.6582V25.3791C30.7209 25.2686 30.677 25.1626 30.5988 25.0844C30.5207 25.0063 30.4147 24.9624 30.3042 24.9624H27.0209C26.9103 24.9624 26.8044 25.0063 26.7262 25.0844C26.6481 25.1626 26.6042 25.2686 26.6042 25.3791V28.6624C26.6053 28.7722 26.6497 28.8771 26.7277 28.9543C26.8057 29.0316 26.9111 29.0749 27.0209 29.0749ZM27.4375 25.7874H29.9V28.2541H27.4334L27.4375 25.7874Z" fill="#39426A"/>
<path d="M37.6958 29.0749H40.9791C41.0896 29.0749 41.1956 29.031 41.2737 28.9529C41.3519 28.8747 41.3958 28.7687 41.3958 28.6582V25.3791C41.3958 25.2686 41.3519 25.1626 41.2737 25.0844C41.1956 25.0063 41.0896 24.9624 40.9791 24.9624H37.6958C37.5853 24.9624 37.4793 25.0063 37.4012 25.0844C37.323 25.1626 37.2791 25.2686 37.2791 25.3791V28.6624C37.2802 28.7722 37.3246 28.8771 37.4026 28.9543C37.4806 29.0316 37.586 29.0749 37.6958 29.0749ZM38.1124 25.7874H40.5749V28.2541H38.1041L38.1124 25.7874Z" fill="#39426A"/>
<path d="M32.3583 29.0749H35.6416C35.7522 29.0749 35.8581 29.031 35.9363 28.9529C36.0144 28.8747 36.0583 28.7687 36.0583 28.6582V25.3791C36.0583 25.2686 36.0144 25.1626 35.9363 25.0844C35.8581 25.0063 35.7522 24.9624 35.6416 24.9624H32.3583C32.2478 24.9624 32.1418 25.0063 32.0637 25.0844C31.9855 25.1626 31.9417 25.2686 31.9417 25.3791V28.6624C31.9427 28.7722 31.9871 28.8771 32.0652 28.9543C32.1432 29.0316 32.2485 29.0749 32.3583 29.0749ZM32.775 25.7874H35.25V28.2541H32.75L32.775 25.7874Z" fill="#39426A"/>
<path d="M27.0209 34.8333H30.3042C30.4147 34.8333 30.5207 34.7894 30.5988 34.7112C30.677 34.6331 30.7209 34.5271 30.7209 34.4166V31.1249C30.7209 31.0144 30.677 30.9084 30.5988 30.8303C30.5207 30.7522 30.4147 30.7083 30.3042 30.7083H27.0209C26.9103 30.7083 26.8044 30.7522 26.7262 30.8303C26.6481 30.9084 26.6042 31.0144 26.6042 31.1249V34.4166C26.6042 34.5271 26.6481 34.6331 26.7262 34.7112C26.8044 34.7894 26.9103 34.8333 27.0209 34.8333ZM27.4375 31.5499H29.9V33.9999H27.4334L27.4375 31.5499Z" fill="#39426A"/>
<path d="M37.6958 34.8333H40.9791C41.0896 34.8333 41.1956 34.7894 41.2737 34.7112C41.3519 34.6331 41.3958 34.5271 41.3958 34.4166V31.1249C41.3958 31.0144 41.3519 30.9084 41.2737 30.8303C41.1956 30.7522 41.0896 30.7083 40.9791 30.7083H37.6958C37.5853 30.7083 37.4793 30.7522 37.4012 30.8303C37.323 30.9084 37.2791 31.0144 37.2791 31.1249V34.4166C37.2791 34.5271 37.323 34.6331 37.4012 34.7112C37.4793 34.7894 37.5853 34.8333 37.6958 34.8333ZM38.1124 31.5499H40.5749V33.9999H38.1041L38.1124 31.5499Z" fill="#39426A"/>
<path d="M32.3583 34.8333H35.6416C35.7522 34.8333 35.8581 34.7894 35.9363 34.7112C36.0144 34.6331 36.0583 34.5271 36.0583 34.4166V31.1249C36.0583 31.0144 36.0144 30.9084 35.9363 30.8303C35.8581 30.7522 35.7522 30.7083 35.6416 30.7083H32.3583C32.2478 30.7083 32.1418 30.7522 32.0637 30.8303C31.9855 30.9084 31.9417 31.0144 31.9417 31.1249V34.4166C31.9417 34.5271 31.9855 34.6331 32.0637 34.7112C32.1418 34.7894 32.2478 34.8333 32.3583 34.8333ZM32.775 31.5499H35.25V33.9999H32.75L32.775 31.5499Z" fill="#39426A"/>
<path d="M27.0209 40.5666H30.3042C30.4147 40.5666 30.5207 40.5227 30.5988 40.4445C30.677 40.3664 30.7209 40.2604 30.7209 40.1499V36.8749C30.7209 36.7644 30.677 36.6584 30.5988 36.5803C30.5207 36.5022 30.4147 36.4583 30.3042 36.4583H27.0209C26.9103 36.4583 26.8044 36.5022 26.7262 36.5803C26.6481 36.6584 26.6042 36.7644 26.6042 36.8749V40.1583C26.6064 40.2673 26.6512 40.3712 26.7291 40.4475C26.807 40.5239 26.9118 40.5666 27.0209 40.5666ZM27.4375 37.2833H29.9V39.7458H27.4334L27.4375 37.2833Z" fill="#39426A"/>
<path d="M37.6958 40.5666H40.9791C41.0896 40.5666 41.1956 40.5227 41.2737 40.4445C41.3519 40.3664 41.3958 40.2604 41.3958 40.1499V36.8749C41.3958 36.7644 41.3519 36.6584 41.2737 36.5803C41.1956 36.5022 41.0896 36.4583 40.9791 36.4583H37.6958C37.5853 36.4583 37.4793 36.5022 37.4012 36.5803C37.323 36.6584 37.2791 36.7644 37.2791 36.8749V40.1583C37.2813 40.2673 37.3262 40.3712 37.4041 40.4475C37.482 40.5239 37.5867 40.5666 37.6958 40.5666ZM38.1124 37.2833H40.5749V39.7458H38.1041L38.1124 37.2833Z" fill="#39426A"/>
<path d="M32.3583 40.5666H35.6416C35.7522 40.5666 35.8581 40.5227 35.9363 40.4445C36.0144 40.3664 36.0583 40.2604 36.0583 40.1499V36.8749C36.0583 36.7644 36.0144 36.6584 35.9363 36.5803C35.8581 36.5022 35.7522 36.4583 35.6416 36.4583H32.3583C32.2478 36.4583 32.1418 36.5022 32.0637 36.5803C31.9855 36.6584 31.9417 36.7644 31.9417 36.8749V40.1583C31.9438 40.2673 31.9887 40.3712 32.0666 40.4475C32.1445 40.5239 32.2492 40.5666 32.3583 40.5666ZM32.775 37.2833H35.25V39.7458H32.75L32.775 37.2833Z" fill="#39426A"/>
<path d="M32.7668 44.2667C32.7668 44.0389 32.583 43.8542 32.3563 43.8542C32.1297 43.8542 31.9459 44.0389 31.9459 44.2667V46.7251C31.9459 46.9529 32.1297 47.1376 32.3563 47.1376C32.583 47.1376 32.7668 46.9529 32.7668 46.7251V44.2667Z" fill="#ABD9E6"/>
<path d="M36.8749 44.2667C36.8749 44.0389 36.6912 43.8542 36.4645 43.8542C36.2378 43.8542 36.0541 44.0389 36.0541 44.2667V46.7251C36.0541 46.9529 36.2378 47.1376 36.4645 47.1376C36.6912 47.1376 36.8749 46.9529 36.8749 46.7251V44.2667Z" fill="#ABD9E6"/>
</svg>
