<svg width="69" height="69" viewBox="0 0 69 69" fill="none" xmlns="http://www.w3.org/2000/svg">
<path fill-rule="evenodd" clip-rule="evenodd" d="M34.5 69C53.5538 69 69 53.5538 69 34.5C69 15.4462 53.5538 0 34.5 0C15.4462 0 0 15.4462 0 34.5C0 53.5538 15.4462 69 34.5 69Z" fill="#D2FDE7"/>
<path d="M39.6999 15.7417C39.6979 17.9551 38.9194 20.0976 37.4999 21.7959L35.6166 22.5459C27.6083 22.5459 28.2541 22.5751 28.1458 22.4667C26.3632 20.682 25.3596 18.2642 25.3541 15.7417H25.4374C26.5541 15.6959 26.5791 14.6709 27.7458 14.6709C28.9124 14.6709 28.9374 15.7459 30.1333 15.7459C31.3291 15.7459 31.3458 14.6667 32.5416 14.6667C33.7374 14.6667 33.7499 15.7417 34.9249 15.7417C36.0999 15.7417 36.1166 14.6667 37.3166 14.6667C38.5166 14.6667 38.5083 15.6917 39.6208 15.7376L39.6999 15.7417Z" fill="#4DA67F"/>
<path d="M39.6208 15.7374C38.5041 15.6916 38.4833 14.6666 37.3166 14.6666C36.15 14.6666 36.1166 15.7416 34.9249 15.7416C33.9833 15.7416 33.7833 15.0707 33.15 14.7916C32.9565 14.7081 32.7481 14.665 32.5374 14.665C32.3268 14.665 32.1184 14.7081 31.9249 14.7916C31.2958 15.0707 31.0916 15.7416 30.15 15.7416C28.9625 15.7416 28.9624 14.6666 27.7624 14.6666C26.5624 14.6666 26.5708 15.6916 25.4541 15.7374C25.4955 16.0206 25.5625 16.2996 25.6541 16.5707C26.1085 17.9378 26.9782 19.129 28.1419 19.9783C29.3056 20.8275 30.7053 21.2924 32.1458 21.3082H32.5374H32.9333C34.3759 21.2939 35.7778 20.8287 36.9427 19.9776C38.1076 19.1266 38.977 17.9324 39.4291 16.5624C39.5174 16.2936 39.5815 16.0175 39.6208 15.7374Z" fill="#62B28A"/>
<path d="M49.325 40.1C49.3273 42.1695 48.5509 44.1641 47.15 45.6875C47.0625 45.7833 46.9667 45.8792 46.8709 45.975C46.3986 46.4523 45.8713 46.8719 45.3 47.225C44.9523 47.4237 44.5918 47.5991 44.2209 47.75C43.9702 47.856 43.7144 47.9492 43.4542 48.0292C43.1917 48.1125 42.925 48.1792 42.6542 48.2375C42.1054 48.3469 41.5472 48.4027 40.9875 48.4042H24.0584C23.4987 48.4027 22.9406 48.3469 22.3917 48.2375C22.1209 48.1792 21.8542 48.1125 21.5917 48.0292C21.3259 47.9498 21.0645 47.8566 20.8084 47.75C20.4364 47.5918 20.0758 47.408 19.7292 47.2C19.1574 46.8459 18.6289 46.4265 18.1542 45.95L17.8751 45.6625C16.483 44.144 15.7087 42.16 15.7042 40.1C15.7028 39.8217 15.7168 39.5435 15.7459 39.2667C15.7459 39.1 15.7834 38.9375 15.8126 38.775C15.8417 38.6125 15.8459 38.5625 15.8709 38.4583C15.8894 38.339 15.9145 38.2208 15.9459 38.1042V38.0583C16.36 36.5491 17.1682 35.1771 18.2876 34.0833L25.5376 26.8708L28.2376 24.1875H36.7917L39.4917 26.8708L46.7417 34.0833C47.8584 35.1821 48.6624 36.5584 49.0709 38.0708V38.1167C49.0959 38.2333 49.125 38.35 49.1459 38.4708C49.1667 38.5917 49.1875 38.6833 49.2042 38.7875C49.2209 38.8917 49.2542 39.1125 49.2709 39.2792C49.3037 39.5516 49.3218 39.8256 49.325 40.1Z" fill="#4DA67F"/>
<path d="M49.2833 39.2792C49.1042 41.0551 48.3559 42.7256 47.15 44.0417C47.0625 44.1375 46.9666 44.2333 46.8708 44.3292C46.3985 44.8065 45.8712 45.2261 45.3 45.5792C44.9529 45.7864 44.5924 45.9701 44.2208 46.1292C43.9708 46.2333 43.7166 46.325 43.4541 46.4083C43.1914 46.491 42.9244 46.5592 42.6541 46.6125C42.1057 46.7253 41.5474 46.7825 40.9875 46.7833H24.0583C23.4984 46.7825 22.9401 46.7253 22.3916 46.6125C22.1214 46.5592 21.8544 46.491 21.5916 46.4083C21.3291 46.325 21.075 46.2333 20.825 46.1292C20.453 45.971 20.0924 45.7872 19.7458 45.5792C19.174 45.2251 18.6455 44.8056 18.1708 44.3292L17.8916 44.0417C16.6817 42.7286 15.929 41.0594 15.7458 39.2833C15.7458 39.1167 15.7833 38.9542 15.8125 38.7917C15.8416 38.6292 15.8458 38.5792 15.8708 38.475C15.8894 38.3557 15.9144 38.2374 15.9458 38.1208V38.075C16.3572 36.5597 17.1656 35.1818 18.2875 34.0833L25.5375 26.8708L28.2375 24.1875H36.7916L39.4916 26.8708L46.7416 34.0833C47.8584 35.1821 48.6623 36.5584 49.0708 38.0708V38.1167C49.0958 38.2333 49.125 38.35 49.1458 38.4708C49.1666 38.5917 49.1875 38.6833 49.2041 38.7875C49.2208 38.8917 49.2666 39.1125 49.2833 39.2792Z" fill="#62B28A"/>
<path d="M47.3166 53.3333C51.1711 53.3333 54.2958 50.2087 54.2958 46.3542C54.2958 42.4997 51.1711 39.375 47.3166 39.375C43.4621 39.375 40.3375 42.4997 40.3375 46.3542C40.3375 50.2087 43.4621 53.3333 47.3166 53.3333Z" fill="#F6B756"/>
<path d="M47.3167 52.1001C50.49 52.1001 53.0625 49.5276 53.0625 46.3542C53.0625 43.1809 50.49 40.6084 47.3167 40.6084C44.1433 40.6084 41.5708 43.1809 41.5708 46.3542C41.5708 49.5276 44.1433 52.1001 47.3167 52.1001Z" fill="#FAC77D"/>
<path d="M51.8333 46.7668C51.7228 46.7668 51.6168 46.7229 51.5387 46.6447C51.4605 46.5666 51.4166 46.4606 51.4166 46.3501C51.4155 45.2619 50.9828 44.2187 50.2133 43.4492C49.4439 42.6798 48.4006 42.247 47.3125 42.2459C47.202 42.2459 47.096 42.202 47.0179 42.1239C46.9397 42.0458 46.8958 41.9398 46.8958 41.8293C46.8958 41.7188 46.9397 41.6128 47.0179 41.5346C47.096 41.4565 47.202 41.4126 47.3125 41.4126C47.9608 41.4126 48.6028 41.5405 49.2017 41.789C49.8005 42.0375 50.3445 42.4017 50.8024 42.8607C51.2602 43.3198 51.623 43.8646 51.87 44.4641C52.117 45.0636 52.2433 45.7059 52.2416 46.3543C52.2406 46.4626 52.1973 46.5663 52.1211 46.6433C52.0449 46.7203 51.9416 46.7646 51.8333 46.7668Z" fill="#FFD69E"/>
<path d="M47.3167 51.2833C46.0104 51.2811 44.7584 50.761 43.8351 49.8369C42.9119 48.9129 42.3928 47.6604 42.3917 46.3542C42.3917 46.2437 42.4356 46.1377 42.5137 46.0595C42.5918 45.9814 42.6978 45.9375 42.8083 45.9375C42.9188 45.9375 43.0248 45.9814 43.103 46.0595C43.1811 46.1377 43.225 46.2437 43.225 46.3542C43.225 47.443 43.6573 48.4874 44.4268 49.2577C45.1964 50.0281 46.2403 50.4614 47.3292 50.4625C47.4397 50.4625 47.5457 50.5064 47.6238 50.5845C47.7019 50.6627 47.7458 50.7687 47.7458 50.8792C47.7458 50.9897 47.7019 51.0957 47.6238 51.1738C47.5457 51.2519 47.4397 51.2958 47.3292 51.2958L47.3167 51.2833Z" fill="#FFD69E"/>
<path d="M36.2333 22.5459H28.0208C27.5675 22.5459 27.2 22.9134 27.2 23.3667C27.2 23.8201 27.5675 24.1876 28.0208 24.1876H36.2333C36.6866 24.1876 37.0541 23.8201 37.0541 23.3667C37.0541 22.9134 36.6866 22.5459 36.2333 22.5459Z" fill="#CBA07A"/>
<path d="M37.0542 25.0084C37.9608 25.0084 38.6958 24.2734 38.6958 23.3668C38.6958 22.4601 37.9608 21.7251 37.0542 21.7251C36.1475 21.7251 35.4125 22.4601 35.4125 23.3668C35.4125 24.2734 36.1475 25.0084 37.0542 25.0084Z" fill="#CBA07A"/>
<path d="M41.3375 21.2166C41.3366 21.362 41.2977 21.5047 41.2246 21.6304C41.1515 21.7562 41.0468 21.8606 40.9208 21.9333L38.6791 23.2249C38.656 22.9361 38.5555 22.6587 38.3884 22.422C38.2213 22.1852 37.9936 21.9977 37.7291 21.8791L40.1 20.5083C40.2892 20.4028 40.512 20.3752 40.7212 20.4312C40.9304 20.4872 41.1096 20.6224 41.2208 20.8083C41.2934 20.9324 41.3336 21.0729 41.3375 21.2166Z" fill="#CBA07A"/>
<path d="M41.3375 25.4499C41.3368 25.5957 41.2996 25.739 41.2292 25.8666C41.118 26.0525 40.9388 26.1877 40.7296 26.2437C40.5203 26.2997 40.2975 26.2721 40.1084 26.1666L37.7959 24.8333C38.0541 24.7035 38.2731 24.5074 38.4306 24.265C38.588 24.0227 38.6781 23.7428 38.6917 23.4541L40.9292 24.7499C41.0512 24.8222 41.1527 24.9245 41.2242 25.047C41.2956 25.1694 41.3346 25.3082 41.3375 25.4499Z" fill="#CBA07A"/>
<path d="M32.5375 43.0708C35.9386 43.0708 38.6958 40.3136 38.6958 36.9125C38.6958 33.5113 35.9386 30.7542 32.5375 30.7542C29.1363 30.7542 26.3791 33.5113 26.3791 36.9125C26.3791 40.3136 29.1363 43.0708 32.5375 43.0708Z" fill="#F6B756"/>
<path d="M32.5375 41.8375C35.2575 41.8375 37.4625 39.6326 37.4625 36.9126C37.4625 34.1925 35.2575 31.9875 32.5375 31.9875C29.8175 31.9875 27.6125 34.1925 27.6125 36.9126C27.6125 39.6326 29.8175 41.8375 32.5375 41.8375Z" fill="#FAC77D"/>
<path d="M36.2499 37.3334C36.1394 37.3334 36.0334 37.2895 35.9553 37.2113C35.8772 37.1332 35.8333 37.0272 35.8333 36.9167C35.8322 36.0463 35.4859 35.2118 34.8704 34.5963C34.2549 33.9808 33.4204 33.6345 32.5499 33.6334C32.4394 33.6334 32.3334 33.5895 32.2553 33.5113C32.1772 33.4332 32.1333 33.3272 32.1333 33.2167C32.1333 33.1062 32.1772 33.0002 32.2553 32.9221C32.3334 32.8439 32.4394 32.8 32.5499 32.8C33.6381 32.8045 34.68 33.2404 35.4471 34.0122C36.2142 34.784 36.6438 35.8286 36.6416 36.9167C36.6418 37.023 36.6013 37.1254 36.5285 37.2028C36.4557 37.2803 36.356 37.327 36.2499 37.3334Z" fill="#FFD69E"/>
<path d="M32.5375 41.0167C31.4501 41.0156 30.4074 40.5834 29.6381 39.8148C28.8688 39.0463 28.4355 38.0041 28.4333 36.9167C28.4333 36.8062 28.4772 36.7002 28.5554 36.622C28.6335 36.5439 28.7395 36.5 28.85 36.5C28.9605 36.5 29.0665 36.5439 29.1446 36.622C29.2228 36.7002 29.2667 36.8062 29.2667 36.9167C29.2667 37.3478 29.3516 37.7748 29.5166 38.1731C29.6816 38.5715 29.9235 38.9334 30.2283 39.2383C30.5332 39.5432 30.8952 39.7851 31.2935 39.9501C31.6919 40.1151 32.1188 40.2 32.55 40.2C32.6605 40.2 32.7665 40.2439 32.8446 40.322C32.9228 40.4002 32.9667 40.5062 32.9667 40.6167C32.9667 40.7272 32.9228 40.8332 32.8446 40.9113C32.7665 40.9894 32.6605 41.0333 32.55 41.0333L32.5375 41.0167Z" fill="#FFD69E"/>
<path d="M45.2916 36.1543C45.1349 36.1501 44.9858 36.086 44.875 35.9751L35.5083 26.6751C35.4508 26.6179 35.4052 26.55 35.374 26.4752C35.3428 26.4004 35.3266 26.3201 35.3265 26.2391C35.3261 26.0754 35.3907 25.9182 35.5062 25.8022C35.6217 25.6862 35.7785 25.6208 35.9422 25.6204C36.1059 25.62 36.2631 25.6846 36.3791 25.8001L45.7291 35.1043C45.8134 35.1895 45.871 35.2974 45.895 35.4148C45.9189 35.5322 45.9081 35.6541 45.8639 35.7654C45.8197 35.8768 45.744 35.9729 45.6461 36.042C45.5482 36.111 45.4322 36.1501 45.3125 36.1543H45.2916Z" fill="#75BE9A"/>
<path d="M32.5375 43.4835C31.2375 43.4843 29.9665 43.0995 28.8853 42.3778C27.8041 41.6561 26.9613 40.6299 26.4634 39.4291C25.9656 38.2283 25.8351 36.9068 26.0885 35.6317C26.3419 34.3567 26.9678 33.1856 27.887 32.2664C28.8062 31.3472 29.9774 30.7213 31.2524 30.4679C32.5274 30.2144 33.8489 30.3449 35.0498 30.8428C36.2506 31.3406 37.2768 32.1835 37.9985 33.2647C38.7202 34.3459 39.105 35.6169 39.1041 36.9168C39.0997 38.657 38.4065 40.3247 37.1759 41.5553C35.9454 42.7858 34.2777 43.4791 32.5375 43.4835ZM32.5375 31.1668C31.4012 31.1668 30.2905 31.5037 29.3457 32.1349C28.4009 32.766 27.6644 33.6632 27.2294 34.7128C26.7944 35.7625 26.6804 36.9176 26.9017 38.0321C27.1231 39.1465 27.6699 40.1703 28.4731 40.9741C29.2762 41.7778 30.2996 42.3254 31.414 42.5476C32.5283 42.7697 33.6834 42.6565 34.7334 42.2223C35.7834 41.788 36.6811 41.0522 37.3129 40.1079C37.9448 39.1635 38.2825 38.053 38.2833 36.9168C38.2822 35.3929 37.6766 33.9316 36.5994 32.8536C35.5222 31.7756 34.0614 31.169 32.5375 31.1668Z" fill="#39426A"/>
<path d="M33.0834 39.7874H30.8959C30.7854 39.7874 30.6794 39.7435 30.6013 39.6654C30.5231 39.5872 30.4792 39.4812 30.4792 39.3707C30.4792 39.2602 30.5231 39.1542 30.6013 39.0761C30.6794 38.998 30.7854 38.9541 30.8959 38.9541H33.0834C33.2765 38.9202 33.4516 38.8194 33.5777 38.6692C33.7038 38.5191 33.7729 38.3293 33.7729 38.1332C33.7729 37.9372 33.7038 37.7474 33.5777 37.5972C33.4516 37.4471 33.2765 37.3462 33.0834 37.3124H31.9917C31.5701 37.2912 31.1727 37.1087 30.8818 36.8028C30.5909 36.4968 30.4287 36.0908 30.4287 35.6687C30.4287 35.2465 30.5909 34.8405 30.8818 34.5345C31.1727 34.2286 31.5701 34.0461 31.9917 34.0249H34.1667C34.2772 34.0249 34.3832 34.0688 34.4614 34.1469C34.5395 34.2251 34.5834 34.3311 34.5834 34.4416C34.5834 34.5521 34.5395 34.6581 34.4614 34.7362C34.3832 34.8143 34.2772 34.8582 34.1667 34.8582H31.9917C31.796 34.8895 31.6178 34.9895 31.4891 35.1403C31.3604 35.2911 31.2898 35.4829 31.2898 35.6812C31.2898 35.8794 31.3604 36.0712 31.4891 36.222C31.6178 36.3728 31.796 36.4728 31.9917 36.5041H33.0834C33.5188 36.5041 33.9364 36.677 34.2442 36.9849C34.5521 37.2928 34.7251 37.7103 34.7251 38.1457C34.7251 38.5811 34.5521 38.9987 34.2442 39.3066C33.9364 39.6144 33.5188 39.7874 33.0834 39.7874Z" fill="#39426A"/>
<path d="M32.5374 34.8582C32.4269 34.8582 32.321 34.8143 32.2428 34.7362C32.1647 34.6581 32.1208 34.5521 32.1208 34.4416V33.1916C32.1208 33.0811 32.1647 32.9751 32.2428 32.8969C32.321 32.8188 32.4269 32.7749 32.5374 32.7749C32.648 32.7749 32.7539 32.8188 32.8321 32.8969C32.9102 32.9751 32.9541 33.0811 32.9541 33.1916V34.4416C32.9541 34.5521 32.9102 34.6581 32.8321 34.7362C32.7539 34.8143 32.648 34.8582 32.5374 34.8582Z" fill="#39426A"/>
<path d="M32.5374 41.0167C32.4269 41.0167 32.321 40.9728 32.2428 40.8946C32.1647 40.8165 32.1208 40.7105 32.1208 40.6V39.35C32.1208 39.2395 32.1647 39.1335 32.2428 39.0554C32.321 38.9772 32.4269 38.9333 32.5374 38.9333C32.648 38.9333 32.7539 38.9772 32.8321 39.0554C32.9102 39.1335 32.9541 39.2395 32.9541 39.35V40.6C32.9541 40.7105 32.9102 40.8165 32.8321 40.8946C32.7539 40.9728 32.648 41.0167 32.5374 41.0167Z" fill="#39426A"/>
<path d="M40.6417 48.8166H24.0584C23.4665 48.8172 22.8761 48.7586 22.2959 48.6416C21.9792 48.5749 21.7042 48.5041 21.4625 48.4249C21.2209 48.3458 20.9417 48.2499 20.6584 48.1333C20.268 47.9676 19.8893 47.7755 19.525 47.5583C18.9202 47.1938 18.3607 46.7588 17.8584 46.2624C17.7417 46.1499 17.65 46.0583 17.5667 45.9624C16.103 44.3612 15.2928 42.2694 15.2959 40.0999C15.2945 39.8105 15.3084 39.5212 15.3375 39.2333C15.3375 39.0624 15.375 38.8874 15.4084 38.7166C15.4417 38.5458 15.4417 38.4916 15.4709 38.3749C15.5 38.2583 15.5125 38.1624 15.5417 38.0416C15.5417 38.0416 15.5417 37.9958 15.5417 37.9874C15.9714 36.3964 16.8187 34.9492 17.9959 33.7958L27.95 23.8958C27.9871 23.857 28.0318 23.8263 28.0812 23.8055C28.1307 23.7847 28.1839 23.7743 28.2375 23.7749H35.6334C35.7439 23.7749 35.8499 23.8188 35.928 23.897C36.0061 23.9751 36.05 24.0811 36.05 24.1916C36.05 24.3021 36.0061 24.4081 35.928 24.4862C35.8499 24.5644 35.7439 24.6083 35.6334 24.6083H28.4084L18.575 34.3749C17.5123 35.4194 16.7472 36.7282 16.3584 38.1666C16.3565 38.1902 16.3565 38.2139 16.3584 38.2374C16.3584 38.3291 16.3125 38.4291 16.2959 38.5291C16.2792 38.6291 16.2542 38.7458 16.2375 38.8416C16.2084 39.0041 16.1917 39.1583 16.175 39.3083C16.1494 39.5686 16.1369 39.83 16.1375 40.0916C16.129 42.0568 16.8575 43.9539 18.1792 45.4083C18.2584 45.4958 18.3417 45.5791 18.4209 45.6583C18.8781 46.1163 19.3887 46.5178 19.9417 46.8541C20.2729 47.0513 20.6167 47.2267 20.9709 47.3791C21.2092 47.4793 21.4526 47.5669 21.7 47.6416C21.9506 47.7203 22.2051 47.7856 22.4625 47.8374C22.988 47.9427 23.5225 47.9957 24.0584 47.9958H40.6417C40.7522 47.9958 40.8582 48.0397 40.9363 48.1178C41.0145 48.1959 41.0584 48.3019 41.0584 48.4124C41.0584 48.5229 41.0145 48.6289 40.9363 48.7071C40.8582 48.7852 40.7522 48.8291 40.6417 48.8291V48.8166Z" fill="#39426A"/>
<path d="M49.325 39.6458C49.2214 39.6463 49.1213 39.6082 49.0442 39.5388C48.9672 39.4695 48.9187 39.3739 48.9084 39.2708C48.9084 39.1333 48.875 38.9999 48.8542 38.8541C48.8417 38.7518 48.8236 38.6503 48.8 38.5499C48.8 38.4249 48.7542 38.3249 48.7292 38.2208L49.1167 38.0791L48.7 38.1541C48.3089 36.7157 47.5425 35.4071 46.4792 34.3624L37.2667 25.1958C37.2091 25.1157 37.1817 25.0178 37.1895 24.9195C37.1973 24.8211 37.2397 24.7287 37.3092 24.6587C37.3787 24.5887 37.4708 24.5457 37.569 24.5372C37.6673 24.5287 37.7654 24.5554 37.8459 24.6124L47.0417 33.7791L47.075 33.8124C48.2371 34.9622 49.0725 36.4002 49.4959 37.9791V38.0291C49.5292 38.1749 49.5584 38.2916 49.5792 38.4124C49.6049 38.5196 49.6243 38.6281 49.6375 38.7374C49.6667 38.8999 49.6917 39.0583 49.7042 39.2166C49.7112 39.3251 49.6754 39.4321 49.6045 39.5146C49.5337 39.5971 49.4334 39.6487 49.325 39.6583V39.6458Z" fill="#39426A"/>
<path d="M49.6667 38.7251C49.6535 38.6157 49.634 38.5072 49.6083 38.4001C49.6083 38.2792 49.5583 38.1626 49.525 38.0167V37.9667C49.1017 36.3878 48.2662 34.9498 47.1042 33.8001L47.0708 33.7667L39.5833 26.3209L39.9208 26.5167C40.1085 26.6248 40.321 26.6822 40.5375 26.6834C40.646 26.6828 40.754 26.6673 40.8583 26.6376C41.1641 26.5545 41.4256 26.3557 41.5875 26.0834C41.7409 25.8005 41.7792 25.4694 41.6946 25.159C41.61 24.8486 41.409 24.5827 41.1333 24.4167L39.3167 23.3334L41.1375 22.2834C41.3672 22.0944 41.522 21.8296 41.574 21.5367C41.626 21.2438 41.5718 20.9419 41.4212 20.6854C41.2706 20.4288 41.0334 20.2344 40.7523 20.137C40.4711 20.0397 40.1645 20.0458 39.8875 20.1542L38.6583 20.8667C39.6024 19.3241 40.1014 17.5503 40.1 15.7417C40.1 15.6312 40.0561 15.5252 39.978 15.4471C39.8998 15.369 39.7938 15.3251 39.6833 15.3251C39.509 15.3257 39.3365 15.2888 39.1776 15.2169C39.0187 15.145 38.8772 15.0398 38.7625 14.9084C38.5758 14.7086 38.35 14.5492 38.0991 14.4403C37.8483 14.3314 37.5777 14.2751 37.3042 14.2751C37.0307 14.2751 36.7601 14.3314 36.5092 14.4403C36.2584 14.5492 36.0326 14.7086 35.8458 14.9084C35.7332 15.0432 35.5924 15.1516 35.4333 15.226C35.2742 15.3004 35.1007 15.3389 34.925 15.3389C34.7494 15.3389 34.5759 15.3004 34.4167 15.226C34.2576 15.1516 34.1168 15.0432 34.0042 14.9084C33.8181 14.7075 33.5925 14.5471 33.3416 14.4375C33.0906 14.3278 32.8197 14.2712 32.5458 14.2712C32.272 14.2712 32.0011 14.3278 31.7501 14.4375C31.4992 14.5471 31.2736 14.7075 31.0875 14.9084C30.9727 15.0396 30.8311 15.1446 30.6722 15.2165C30.5134 15.2884 30.341 15.3254 30.1667 15.3251C29.9929 15.3259 29.8209 15.2891 29.6627 15.2171C29.5045 15.1452 29.3637 15.0399 29.25 14.9084C29.0633 14.7086 28.8375 14.5492 28.5866 14.4403C28.3358 14.3314 28.0652 14.2751 27.7917 14.2751C27.5182 14.2751 27.2476 14.3314 26.9967 14.4403C26.7459 14.5492 26.5201 14.7086 26.3333 14.9084C26.2184 15.0405 26.0762 15.1462 25.9165 15.2181C25.7568 15.2901 25.5835 15.3265 25.4083 15.3251C25.2978 15.3251 25.1919 15.369 25.1137 15.4471C25.0356 15.5252 24.9917 15.6312 24.9917 15.7417C25.0002 18.15 25.8776 20.4743 27.4625 22.2876C27.3601 22.3418 27.266 22.4106 27.1833 22.4917C27.049 22.6225 26.9466 22.7824 26.8841 22.9592C26.8215 23.1359 26.8005 23.3247 26.8227 23.5108C26.8448 23.697 26.9096 23.8755 27.0119 24.0326C27.1141 24.1897 27.2512 24.3212 27.4125 24.4167L17.9958 33.7959C16.8247 34.9513 15.9833 36.3983 15.5583 37.9876C15.5583 37.9876 15.5583 38.0292 15.5583 38.0417C15.5292 38.1626 15.5 38.2792 15.4875 38.3751C15.475 38.4709 15.4417 38.6084 15.425 38.7167C15.4083 38.8251 15.3708 39.0626 15.3542 39.2334C15.325 39.5214 15.3111 39.8106 15.3125 40.1001C15.3071 42.2684 16.1143 44.36 17.575 45.9626C17.6583 46.0584 17.75 46.1501 17.8667 46.2626C18.369 46.7589 18.9285 47.1939 19.5333 47.5584C19.8976 47.7756 20.2763 47.9677 20.6667 48.1334C20.95 48.2501 21.2125 48.3459 21.4708 48.4251C21.7292 48.5042 21.9958 48.5751 22.3042 48.6417C22.8844 48.7587 23.4748 48.8173 24.0667 48.8167H40.65C40.7605 48.8167 40.8665 48.7728 40.9446 48.6947C41.0228 48.6166 41.0667 48.5106 41.0667 48.4001C41.0667 48.2896 41.0228 48.1836 40.9446 48.1054C40.8665 48.0273 40.7605 47.9834 40.65 47.9834H24.0583C23.5225 47.9833 22.9879 47.9303 22.4625 47.8251C22.2051 47.7733 21.9505 47.7079 21.7 47.6292C21.4525 47.5546 21.2091 47.4669 20.9708 47.3667C20.6167 47.2144 20.2729 47.039 19.9417 46.8417C19.3898 46.5119 18.8793 46.1175 18.4208 45.6667C18.3417 45.5876 18.2583 45.5042 18.1792 45.4167C16.8499 43.9655 16.1138 42.0681 16.1167 40.1001C16.116 39.8385 16.1285 39.577 16.1542 39.3167C16.1542 39.1667 16.1875 39.0126 16.2167 38.8501C16.2167 38.7542 16.2458 38.6584 16.275 38.5376C16.3042 38.4167 16.3167 38.3376 16.3375 38.2459C16.3357 38.2223 16.3357 38.1986 16.3375 38.1751C16.7309 36.7314 17.5034 35.4194 18.575 34.3751L28.4083 24.5959H35.4167C35.6051 24.8525 35.8509 25.0615 36.1345 25.2062C36.4181 25.3509 36.7316 25.4273 37.05 25.4292C37.1899 25.4291 37.3295 25.4151 37.4667 25.3876L46.4958 34.3751C47.5591 35.4198 48.3256 36.7283 48.7167 38.1667L49.1333 38.0917L48.7458 38.2334C48.7708 38.3376 48.7958 38.4376 48.8167 38.5626C48.8402 38.6629 48.8583 38.7644 48.8708 38.8667C48.8708 39.0001 48.9167 39.1334 48.925 39.2834C48.9354 39.3865 48.9838 39.4821 49.0608 39.5514C49.1379 39.6208 49.238 39.6589 49.3417 39.6584H49.3708C49.4792 39.6488 49.5795 39.5973 49.6503 39.5148C49.7212 39.4322 49.757 39.3253 49.75 39.2167C49.7208 39.0459 49.6958 38.8876 49.6667 38.7251ZM40.9167 25.4501C40.9159 25.5234 40.8958 25.5953 40.8583 25.6584C40.8035 25.7501 40.7155 25.8172 40.6125 25.8459C40.5069 25.8735 40.3947 25.8585 40.3 25.8042L38.525 24.7792V24.7542C38.7055 24.5609 38.847 24.3345 38.9417 24.0876L40.6875 25.1001C40.7555 25.1313 40.8138 25.1803 40.8564 25.2419C40.8989 25.3035 40.924 25.3754 40.9292 25.4501H40.9167ZM40.3 20.8667C40.3939 20.8143 40.5044 20.8002 40.6085 20.8273C40.7126 20.8545 40.8021 20.9209 40.8583 21.0126C40.8944 21.0762 40.9145 21.1477 40.9167 21.2209C40.9167 21.2932 40.8978 21.3643 40.862 21.4271C40.8262 21.4899 40.7747 21.5424 40.7125 21.5792L38.9417 22.6001V22.5626C38.8967 22.4579 38.8423 22.3575 38.7792 22.2626C38.7738 22.2492 38.7668 22.2366 38.7583 22.2251C38.6883 22.1183 38.6073 22.0191 38.5167 21.9292L40.3 20.8667ZM26.8458 15.5084C26.9577 15.373 27.098 15.2641 27.2568 15.1893C27.4156 15.1144 27.589 15.0757 27.7646 15.0757C27.9402 15.0757 28.1135 15.1144 28.2724 15.1893C28.4312 15.2641 28.5715 15.373 28.6833 15.5084C28.8703 15.7108 29.0971 15.8723 29.3495 15.9827C29.6019 16.0932 29.8745 16.1501 30.15 16.1501C30.4261 16.15 30.6992 16.0929 30.9523 15.9825C31.2054 15.8721 31.433 15.7107 31.6208 15.5084C31.7359 15.3774 31.8775 15.2725 32.0363 15.2007C32.1951 15.1288 32.3674 15.0917 32.5417 15.0917C32.7141 15.0921 32.8844 15.1295 33.0411 15.2014C33.1978 15.2733 33.3373 15.378 33.45 15.5084C33.6393 15.71 33.8677 15.871 34.1214 15.9813C34.375 16.0916 34.6484 16.149 34.925 16.1501C35.2005 16.1501 35.4731 16.0932 35.7255 15.9827C35.9779 15.8723 36.2047 15.7108 36.3917 15.5084C36.5039 15.373 36.6446 15.264 36.8038 15.1891C36.9629 15.1143 37.1366 15.0755 37.3125 15.0755C37.4884 15.0755 37.6621 15.1143 37.8213 15.1891C37.9804 15.264 38.1211 15.373 38.2333 15.5084C38.5186 15.8057 38.8829 16.0153 39.2833 16.1126C39.2072 18.0148 38.5304 19.8439 37.35 21.3376C37.2523 21.321 37.1533 21.3126 37.0542 21.3126C36.7358 21.3145 36.4223 21.3909 36.1387 21.5356C35.8551 21.6802 35.6093 21.8893 35.4208 22.1459H28.4042C26.8173 20.527 25.8865 18.3775 25.7917 16.1126C26.1932 16.0152 26.5588 15.8057 26.8458 15.5084ZM28.2375 23.7751H28.0208C27.9408 23.7716 27.8635 23.7452 27.7981 23.699C27.7327 23.6527 27.6821 23.5886 27.6522 23.5143C27.6223 23.44 27.6144 23.3587 27.6296 23.28C27.6447 23.2014 27.6822 23.1288 27.7375 23.0709C27.7745 23.0334 27.8186 23.0038 27.8673 22.9837C27.916 22.9637 27.9682 22.9536 28.0208 22.9542H35.0417C34.9844 23.2291 34.9844 23.5127 35.0417 23.7876L28.2375 23.7751ZM35.8208 23.3584C35.8208 23.0269 35.9525 22.7089 36.187 22.4745C36.4214 22.2401 36.7393 22.1084 37.0708 22.1084C37.2501 22.1077 37.4271 22.1491 37.5875 22.2292C37.788 22.324 37.9597 22.4705 38.0849 22.6535C38.2101 22.8366 38.2843 23.0497 38.3 23.2709C38.302 23.2945 38.302 23.3182 38.3 23.3417V23.4042C38.24 23.6905 38.0816 23.9467 37.8522 24.1282C37.6229 24.3097 37.3372 24.405 37.0448 24.3975C36.7524 24.3901 36.4719 24.2804 36.2521 24.0875C36.0322 23.8946 35.887 23.6307 35.8417 23.3417L35.8208 23.3584Z" fill="#39426A"/>
<path d="M47.3166 53.7457C45.8545 53.7466 44.425 53.3138 43.2089 52.502C41.9928 51.6903 41.0447 50.5362 40.4846 49.1856C39.9246 47.8351 39.7776 46.3487 40.0623 44.9146C40.3471 43.4805 41.0507 42.163 42.0843 41.1288C43.1179 40.0947 44.4349 39.3903 45.8689 39.1047C47.3028 38.8192 48.7893 38.9653 50.1402 39.5247C51.4911 40.084 52.6457 41.0314 53.4581 42.247C54.2705 43.4627 54.7041 44.892 54.7041 46.3541C54.7019 48.3131 53.923 50.1913 52.5382 51.5769C51.1534 52.9625 49.2756 53.7424 47.3166 53.7457ZM47.3166 39.7874C46.0167 39.7866 44.7457 40.1714 43.6645 40.8931C42.5833 41.6147 41.7404 42.6409 41.2426 43.8418C40.7448 45.0426 40.6143 46.3641 40.8677 47.6391C41.1211 48.9141 41.747 50.0853 42.6662 51.0045C43.5854 51.9237 44.7566 52.5496 46.0316 52.803C47.3066 53.0564 48.6281 52.9259 49.8289 52.4281C51.0298 51.9302 52.0559 51.0874 52.7776 50.0062C53.4993 48.925 53.8841 47.654 53.8833 46.3541C53.88 44.6135 53.1871 42.9452 51.9563 41.7144C50.7255 40.4836 49.0572 39.7907 47.3166 39.7874Z" fill="#39426A"/>
<path d="M47.9167 49.6375H45.2626C45.1521 49.6375 45.0461 49.5936 44.9679 49.5155C44.8898 49.4373 44.8459 49.3314 44.8459 49.2208C44.8459 49.1103 44.8898 49.0044 44.9679 48.9262C45.0461 48.8481 45.1521 48.8042 45.2626 48.8042H47.9167C48.1886 48.8042 48.4493 48.6962 48.6415 48.504C48.8337 48.3117 48.9417 48.051 48.9417 47.7792C48.9417 47.5073 48.8337 47.2466 48.6415 47.0544C48.4493 46.8622 48.1886 46.7542 47.9167 46.7542H46.6667C46.1918 46.7316 45.7438 46.5271 45.4157 46.183C45.0876 45.8389 44.9045 45.3817 44.9045 44.9063C44.9045 44.4308 45.0876 43.9736 45.4157 43.6295C45.7438 43.2854 46.1918 43.0809 46.6667 43.0583H49.3376C49.4481 43.0583 49.5541 43.1022 49.6322 43.1804C49.7103 43.2585 49.7542 43.3645 49.7542 43.475C49.7542 43.5855 49.7103 43.6915 49.6322 43.7696C49.5541 43.8478 49.4481 43.8917 49.3376 43.8917H46.7001C46.439 43.9083 46.194 44.0238 46.015 44.2146C45.836 44.4053 45.7364 44.6571 45.7364 44.9188C45.7364 45.1804 45.836 45.4322 46.015 45.623C46.194 45.8138 46.439 45.9292 46.7001 45.9458H47.9501C48.4396 45.9458 48.9091 46.1403 49.2553 46.4865C49.6014 46.8326 49.7959 47.3021 49.7959 47.7917C49.7959 48.2812 49.6014 48.7507 49.2553 49.0969C48.9091 49.443 48.4396 49.6375 47.9501 49.6375H47.9167Z" fill="#39426A"/>
<path d="M47.3166 43.8917C47.2061 43.8917 47.1001 43.8478 47.022 43.7696C46.9439 43.6915 46.9 43.5855 46.9 43.475V42.225C46.9 42.1145 46.9439 42.0085 47.022 41.9304C47.1001 41.8522 47.2061 41.8083 47.3166 41.8083C47.4271 41.8083 47.5331 41.8522 47.6113 41.9304C47.6894 42.0085 47.7333 42.1145 47.7333 42.225V43.475C47.7333 43.5855 47.6894 43.6915 47.6113 43.7696C47.5331 43.8478 47.4271 43.8917 47.3166 43.8917Z" fill="#39426A"/>
<path d="M47.3166 50.8709C47.2061 50.8709 47.1001 50.827 47.022 50.7489C46.9439 50.6708 46.9 50.5648 46.9 50.4543V49.2043C46.9 49.0938 46.9439 48.9878 47.022 48.9096C47.1001 48.8315 47.2061 48.7876 47.3166 48.7876C47.4271 48.7876 47.5331 48.8315 47.6113 48.9096C47.6894 48.9878 47.7333 49.0938 47.7333 49.2043V50.4543C47.7333 50.5648 47.6894 50.6708 47.6113 50.7489C47.5331 50.827 47.4271 50.8709 47.3166 50.8709Z" fill="#39426A"/>
</svg>
