<svg width="58" height="72" viewBox="0 0 58 72" fill="none" xmlns="http://www.w3.org/2000/svg">
<path d="M28.9824 21.4629C24.6537 21.4644 20.4226 22.7497 16.8244 25.156C13.2262 27.5624 10.4224 30.9818 8.76762 34.9817C7.11287 38.9817 6.68151 43.3826 7.52809 47.6277C8.37466 51.8728 10.4612 55.7716 13.5237 58.8308C16.5862 61.89 20.4871 63.9723 24.7332 64.8144C28.9792 65.6564 33.3796 65.2203 37.3778 63.5613C41.376 61.9023 44.7924 59.0948 47.1949 55.494C49.5974 51.8932 50.8781 47.6608 50.875 43.332C50.8714 37.5271 48.5621 31.9614 44.455 27.8591C40.3479 23.7568 34.7795 21.4539 28.9746 21.457L28.9824 21.4629Z" fill="white"/>
<path d="M29 31.627C26.6823 31.627 24.4166 32.3142 22.4894 33.6019C20.5623 34.8896 19.0603 36.7198 18.1733 38.8611C17.2863 41.0025 17.0543 43.3587 17.5064 45.6319C17.9586 47.9051 19.0747 49.9932 20.7136 51.6321C22.3525 53.271 24.4406 54.3871 26.7138 54.8393C28.987 55.2915 31.3433 55.0594 33.4846 54.1724C35.6259 53.2855 37.4561 51.7834 38.7438 49.8563C40.0315 47.9292 40.7188 45.6635 40.7188 43.3457C40.7188 40.2377 39.4841 37.257 37.2864 35.0593C35.0887 32.8616 32.108 31.627 29 31.627Z" fill="#70BC29"/>
<path d="M28.9805 15.0215C13.3555 15.0332 0.660171 27.75 0.675796 43.3633C0.691421 58.9766 13.3984 71.6836 29.0215 71.668C44.6348 71.6563 57.3418 58.9473 57.3223 43.3223C57.3028 27.6973 44.5957 15.0098 28.9805 15.0215ZM28.9805 21.4668C33.3093 21.4645 37.5415 22.7459 41.1421 25.1489C44.7426 27.5519 47.5497 30.9686 49.2084 34.967C50.8671 38.9654 51.3029 43.3659 50.4607 47.6119C49.6184 51.858 47.536 55.7589 44.4767 58.8215C41.4175 61.884 37.5187 63.9706 33.2736 64.8174C29.0284 65.6642 24.6275 65.2331 20.6273 63.5787C16.6272 61.9243 13.2074 59.1208 10.8006 55.5229C8.3937 51.9249 7.1078 47.694 7.10548 43.3652C7.10858 37.5624 9.41351 31.9978 13.5145 27.8924C17.6155 23.787 23.1777 21.4761 28.9805 21.4668Z" fill="#70BC29"/>
<path d="M43.584 16.5564L49.9805 14.7107L54.1465 6.28691C54.2111 6.15705 54.2366 6.01119 54.2199 5.8671C54.2031 5.723 54.1448 5.58689 54.0521 5.47532C53.9594 5.36376 53.8362 5.28157 53.6976 5.23875C53.559 5.19594 53.411 5.19435 53.2715 5.23418L49.7129 6.24394C48.9243 6.46817 48.0804 6.39089 47.3457 6.02714C46.6078 5.66255 46.0325 5.03572 45.7324 4.26933L44.3926 0.81816C44.3399 0.683072 44.2491 0.566197 44.1313 0.481756C44.0134 0.397314 43.8735 0.348944 43.7287 0.34253C43.5839 0.336115 43.4403 0.371932 43.3154 0.445625C43.1905 0.519317 43.0898 0.627708 43.0254 0.757612L38.8594 9.16386L41.2578 15.3357" fill="#0F203A"/>
<path d="M42.6836 15.5312L29.002 43.3437" stroke="#0F203A" stroke-width="2" stroke-linecap="round" stroke-linejoin="round"/>
</svg>
