<svg width="54" height="60" viewBox="0 0 54 60" fill="none" xmlns="http://www.w3.org/2000/svg">
<path d="M10.6309 59.459C10.6309 59.459 12.7247 55.832 11.2383 48.4531C10.9576 47.0249 10.1747 45.7445 9.03129 44.8438C6.20512 42.6504 0.589884 37.1465 0.207072 27.8379C0.207072 27.8379 -1.50191 12.1172 10.6309 4.42774C10.6309 4.42774 29.0879 -7.19336 44.4668 9.72461C44.4668 9.72461 48 14.6973 48.0821 19.7168C48.1094 21.4063 48.3301 23.082 49.004 24.6309C49.9454 26.7793 51.3848 29.709 52.9551 31.541C52.9551 31.541 57.0567 36.7813 47.9415 36.3262C47.9415 36.3262 50.2657 51.1094 38.2383 50.3887C37.8119 50.3677 37.3924 50.5025 37.0582 50.7681C36.7239 51.0337 36.4978 51.4119 36.4219 51.832C36.084 53.7051 35.7676 56.877 36.7774 59.4609L10.6309 59.459Z" fill="#70BC29"/>
<path d="M13.875 33.0449L32.8672 14.0547" stroke="white" stroke-width="2" stroke-linecap="round" stroke-linejoin="round"/>
<path d="M22.5586 14.0527H32.8672L32.7344 24.4941" stroke="white" stroke-width="2" stroke-linecap="round" stroke-linejoin="round"/>
</svg>
