<svg width="64" height="61" viewBox="0 0 64 61" fill="none" xmlns="http://www.w3.org/2000/svg">
<path d="M24.6191 46.4707L31.8008 42.2031" stroke="#0F203A" stroke-width="2" stroke-linecap="round" stroke-linejoin="round"/>
<path d="M39.0117 46.4531L31.8008 42.2031" stroke="#0F203A" stroke-width="2" stroke-linecap="round" stroke-linejoin="round"/>
<path d="M31.8008 33.998V42.2031" stroke="#0F203A" stroke-width="2" stroke-linecap="round" stroke-linejoin="round"/>
<path d="M54.8242 49.2598C52.9746 49.0098 51.0997 49.0098 49.25 49.2598C44.625 49.9766 41.0469 53.166 41.0469 58.8125L42.9609 59.3047C48.9099 60.8438 55.1526 60.8438 61.1016 59.3047L63.0156 58.8125C63.0215 53.166 59.4473 49.9766 54.8242 49.2598Z" fill="#70BC29"/>
<path d="M56.5301 46.2407C59.0113 43.7595 59.0113 39.7366 56.5301 37.2554C54.0489 34.7742 50.0261 34.7742 47.5449 37.2554C45.0637 39.7366 45.0637 43.7595 47.5449 46.2407C50.0261 48.7219 54.0489 48.7219 56.5301 46.2407Z" fill="#70BC29"/>
<path d="M14.75 49.2598C12.9003 49.0098 11.0254 49.0098 9.17578 49.2598C4.55274 49.9766 0.972656 53.166 0.972656 58.8125L2.88672 59.3047C8.83566 60.8438 15.0784 60.8438 21.0273 59.3047L22.9414 58.8125C22.9473 53.166 19.375 49.9766 14.75 49.2598Z" fill="#70BC29"/>
<path d="M16.4554 46.2407C18.9366 43.7595 18.9366 39.7366 16.4554 37.2554C13.9742 34.7742 9.95136 34.7742 7.47015 37.2554C4.98895 39.7366 4.98895 43.7595 7.47015 46.2407C9.95135 48.7219 13.9742 48.7219 16.4554 46.2407Z" fill="#70BC29"/>
<path d="M34.5859 15.4058C32.7368 15.1577 30.8628 15.1577 29.0137 15.4058C24.3887 16.1245 20.8105 19.312 20.8105 24.9604L22.7246 25.4507C28.6729 26.9897 34.915 26.9897 40.8633 25.4507L42.7773 24.9604C42.7832 19.314 39.2109 16.1245 34.5859 15.4058Z" fill="#70BC29"/>
<path d="M37.9825 9.35153C38.7885 5.93641 36.6734 2.51448 33.2583 1.70844C29.8432 0.9024 26.4213 3.01748 25.6152 6.43259C24.8092 9.84771 26.9243 13.2696 30.3394 14.0757C33.7545 14.8817 37.1764 12.7666 37.9825 9.35153Z" fill="#70BC29"/>
</svg>
