<svg width="69" height="69" viewBox="0 0 69 69" fill="none" xmlns="http://www.w3.org/2000/svg">
<path fill-rule="evenodd" clip-rule="evenodd" d="M34.5 69C53.5538 69 69 53.5538 69 34.5C69 15.4462 53.5538 0 34.5 0C15.4462 0 0 15.4462 0 34.5C0 53.5538 15.4462 69 34.5 69Z" fill="#FFE9D3"/>
<path d="M35 25.2499V39.4166L22.5 33.9999V19.8333L23.75 20.3749L35 25.2499Z" fill="#CBA07A"/>
<path d="M35 25.25V38.0417L27.2625 34.6875C26.2193 34.2351 25.3311 33.4877 24.707 32.5372C24.083 31.5867 23.7503 30.4746 23.75 29.3375V20.375L35 25.25Z" fill="#D9B18C"/>
<path d="M27.0833 31.8209V33.9042L24.1667 32.6375V30.5542L27.0833 31.8209Z" fill="#F3F4F5"/>
<path d="M30.0791 24.6958L32.9958 25.9458C33.2215 26.0433 33.4134 26.2052 33.5476 26.4113C33.6817 26.6173 33.7521 26.8583 33.75 27.1041V34.8583C33.7497 35.0653 33.698 35.2691 33.5996 35.4512C33.5011 35.6333 33.3589 35.7881 33.1859 35.9017C33.0128 36.0153 32.8142 36.0841 32.6079 36.102C32.4017 36.1199 32.1942 36.0863 32.0042 36.0041L29.0875 34.7541C28.8598 34.6558 28.6665 34.492 28.5322 34.2835C28.3979 34.075 28.3287 33.8313 28.3333 33.5833V25.8416C28.3336 25.6346 28.3853 25.4309 28.4837 25.2488C28.5822 25.0666 28.7244 24.9118 28.8974 24.7982C29.0705 24.6846 29.2691 24.6158 29.4754 24.5979C29.6816 24.5801 29.8891 24.6137 30.0791 24.6958Z" fill="#E5C2A1"/>
<path d="M30.4167 23.2625V26.5958L27.0833 25.1542V21.8167L27.175 21.8583L28.75 22.5417L30.3208 23.2208L30.4167 23.2625Z" fill="#F6B756"/>
<path d="M30.4167 23.2626V25.8751C29.9214 25.6611 29.4997 25.3067 29.2035 24.8558C28.9073 24.4049 28.7497 23.8771 28.75 23.3376V22.5417L30.3208 23.2209L30.4167 23.2626Z" fill="#FAC77D"/>
<path d="M47.5 19.8333V33.9999L35 39.4166V25.2499L36.25 24.7083L47.5 19.8333Z" fill="#D9B18C"/>
<path d="M47.5 19.8333V32.4583L38.5792 36.3249C38.3256 36.4348 38.0487 36.4798 37.7734 36.4561C37.4981 36.4323 37.233 36.3405 37.002 36.1888C36.771 36.0372 36.5813 35.8304 36.45 35.5873C36.3188 35.3441 36.25 35.0721 36.25 34.7958V24.7083L47.5 19.8333Z" fill="#E5C2A1"/>
<path d="M47.5 19.8334L35 25.2501L30.4167 23.2626L27.0833 21.8167L22.5 19.8334L24.425 19.0001L35 14.4167L39.6792 16.4459L42.825 17.8084L45.575 19.0001L47.5 19.8334Z" fill="#E5C2A1"/>
<path d="M45.5749 19.0001L37.3208 22.5792C36.5883 22.8969 35.7983 23.0608 34.9999 23.0608C34.2015 23.0608 33.4116 22.8969 32.6791 22.5792L30.4166 21.5959L27.0833 20.1501L24.4249 19.0001L34.9999 14.4167L39.6791 16.4459L42.8249 17.8084L45.5749 19.0001Z" fill="#F2D3B8"/>
<path d="M42.825 17.8083L42.4875 17.9541L30.3209 23.2208L28.7625 22.5458L27.175 21.8583L39.6792 16.4458L42.825 17.8083Z" fill="#F6B756"/>
<path d="M42.4999 17.9543L30.3208 23.2209C30.1883 23.1647 30.0753 23.0707 29.9959 22.9506C29.9164 22.8306 29.8741 22.6899 29.8741 22.5459C29.8741 22.402 29.9164 22.2612 29.9959 22.1412C30.0753 22.0212 30.1883 21.9272 30.3208 21.8709L39.8458 17.7501C40.1882 17.6036 40.5567 17.5281 40.9291 17.5281C41.3015 17.5281 41.67 17.6036 42.0124 17.7501L42.4999 17.9543Z" fill="#FAC77D"/>
<path d="M39.1667 54V45.6667C39.1667 45.2034 39.2582 44.7448 39.4359 44.317C39.6137 43.8893 39.8742 43.5009 40.2026 43.1741C40.5309 42.8473 40.9205 42.5886 41.3491 42.4129C41.7777 42.2371 42.2368 42.1478 42.7 42.15C43.6524 42.144 44.5635 41.7604 45.2333 41.0833L48.15 38.1667C48.4604 37.8588 48.8794 37.6852 49.3167 37.6833C49.5622 37.6815 49.8048 37.7372 50.025 37.8458C50.1989 37.9233 50.3571 38.032 50.4917 38.1667C50.8034 38.4791 50.9784 38.9024 50.9784 39.3438C50.9784 39.7851 50.8034 40.2084 50.4917 40.5208L47.0833 44L50.5208 40.6208C50.7553 40.3856 50.9405 40.106 51.0657 39.7984C51.1909 39.4908 51.2536 39.1613 51.25 38.8292V34.4167C51.25 33.9746 51.4256 33.5507 51.7382 33.2382C52.0507 32.9256 52.4746 32.75 52.9167 32.75C53.3587 32.75 53.7826 32.9256 54.0952 33.2382C54.4077 33.5507 54.5833 33.9746 54.5833 34.4167V40.8458C54.5833 41.295 54.4924 41.7394 54.3163 42.1526C54.1401 42.5657 53.8823 42.939 53.5583 43.25L46.25 50.2792V54H39.1667Z" fill="#EEDBCD"/>
<path d="M30.8333 45.6875V54H23.7499V50.2791L16.4416 43.25C16.1176 42.9389 15.8598 42.5657 15.6837 42.1525C15.5075 41.7394 15.4167 41.2949 15.4166 40.8458V34.4166C15.4146 34.1247 15.4893 33.8373 15.6333 33.5833C15.7089 33.4535 15.7999 33.3332 15.9041 33.225C16.138 32.9908 16.4362 32.8316 16.7608 32.7676C17.0855 32.7036 17.4219 32.7376 17.7271 32.8654C18.0323 32.9932 18.2926 33.209 18.4747 33.4853C18.6569 33.7615 18.7527 34.0857 18.7499 34.4166V38.8291C18.7502 39.1603 18.8163 39.4881 18.9443 39.7935C19.0724 40.099 19.2598 40.3759 19.4958 40.6083L22.9166 44L19.5083 40.5416C19.2519 40.2848 19.0863 39.9514 19.0366 39.5919C18.987 39.2325 19.056 38.8666 19.2333 38.55C19.3073 38.4167 19.3999 38.2946 19.5083 38.1875C19.6492 38.0458 19.8161 37.9326 19.9999 37.8541C20.2202 37.7455 20.4627 37.6898 20.7083 37.6916C21.1414 37.6934 21.5569 37.8638 21.8666 38.1666L24.7833 41.0833C25.1126 41.4238 25.5059 41.6959 25.9406 41.884C26.3754 42.072 26.843 42.1723 27.3166 42.1791C28.2478 42.1791 29.1411 42.5485 29.8003 43.2062C30.4596 43.8639 30.8311 44.7562 30.8333 45.6875Z" fill="#EEDBCD"/>
<path d="M29.5833 46.5209V54.0001H23.7499V50.2793L16.4416 43.2501C16.1176 42.9391 15.8598 42.5658 15.6837 42.1527C15.5075 41.7395 15.4167 41.295 15.4166 40.8459V34.4168C15.4146 34.1248 15.4893 33.8374 15.6333 33.5834C15.6999 33.5793 15.7667 33.5793 15.8333 33.5834C16.2753 33.5834 16.6992 33.759 17.0118 34.0716C17.3244 34.3841 17.4999 34.8081 17.4999 35.2501V39.6626C17.5002 39.9938 17.5663 40.3216 17.6943 40.627C17.8224 40.9324 18.0098 41.2094 18.2458 41.4418L22.9166 44.0001C22.9166 44.0001 18.5708 38.7626 18.7499 38.6876C18.907 38.6107 19.0762 38.5614 19.2499 38.5418C19.3165 38.5376 19.3833 38.5376 19.4499 38.5418C19.8837 38.5369 20.3022 38.7013 20.6166 39.0001L23.5333 41.9168C23.8626 42.2573 24.2559 42.5294 24.6906 42.7174C25.1254 42.9055 25.593 43.0058 26.0666 43.0126C26.9978 43.0126 27.8911 43.382 28.5503 44.0397C29.2096 44.6974 29.5811 45.5897 29.5833 46.5209Z" fill="#EAD4C6"/>
<path d="M40.4167 46.5209V54.0001H46.25V50.2793L53.5583 43.2501C53.8823 42.9391 54.1402 42.5658 54.3163 42.1527C54.4924 41.7395 54.5833 41.295 54.5833 40.8459V34.4168C54.5854 34.1248 54.5106 33.8374 54.3667 33.5834C54.3001 33.5793 54.2333 33.5793 54.1667 33.5834C53.7246 33.5834 53.3007 33.759 52.9882 34.0716C52.6756 34.3841 52.5 34.8081 52.5 35.2501V39.6626C52.4997 39.9938 52.4337 40.3216 52.3056 40.627C52.1776 40.9324 51.9901 41.2094 51.7542 41.4418L47.0833 44.0001C47.0833 44.0001 51.4292 38.7626 51.25 38.6876C51.0929 38.6107 50.9238 38.5614 50.75 38.5418C50.6834 38.5376 50.6166 38.5376 50.55 38.5418C50.1163 38.5369 49.6978 38.7013 49.3833 39.0001L46.4667 41.9168C46.1374 42.2573 45.7441 42.5294 45.3093 42.7174C44.8746 42.9055 44.407 43.0058 43.9333 43.0126C43.0021 43.0126 42.1089 43.382 41.4496 44.0397C40.7904 44.6974 40.4189 45.5897 40.4167 46.5209Z" fill="#EAD4C6"/>
<path d="M52.9167 32.3333C52.3641 32.3333 51.8342 32.5527 51.4435 32.9434C51.0528 33.3341 50.8333 33.8641 50.8333 34.4166V37.9458L50.7708 37.8833C50.6087 37.7076 50.4133 37.5659 50.1958 37.4666C49.8065 37.2904 49.3731 37.2358 48.9522 37.3102C48.5314 37.3845 48.1429 37.5843 47.8375 37.8833L44.9208 40.7999C44.3342 41.4038 43.5334 41.7526 42.6917 41.7708C41.6499 41.7685 40.6498 42.1797 39.9109 42.914C39.1719 43.6482 38.7544 44.6457 38.75 45.6874V53.5833C38.75 53.6938 38.7939 53.7997 38.872 53.8779C38.9502 53.956 39.0562 53.9999 39.1667 53.9999C39.2772 53.9999 39.3832 53.956 39.4613 53.8779C39.5394 53.7997 39.5833 53.6938 39.5833 53.5833V45.6666C39.5833 45.2591 39.6637 44.8557 39.8197 44.4793C39.9758 44.1029 40.2045 43.761 40.4928 43.4731C40.7811 43.1852 41.1233 42.9569 41.4999 42.8014C41.8765 42.6458 42.2801 42.566 42.6875 42.5666C43.7512 42.5477 44.7646 42.1106 45.5083 41.3499L48.425 38.4333C48.6089 38.2526 48.8441 38.1332 49.0984 38.0915C49.3528 38.0497 49.6138 38.0876 49.8458 38.1999C49.9712 38.2572 50.0854 38.3362 50.1833 38.4333C50.4174 38.6676 50.5489 38.9853 50.5489 39.3166C50.5489 39.6478 50.4174 39.9655 50.1833 40.1999L46.775 43.6583C46.6974 43.7363 46.6538 43.8419 46.6538 43.952C46.6538 44.0621 46.6974 44.1677 46.775 44.2458C46.8529 44.3221 46.9576 44.3649 47.0667 44.3649C47.1757 44.3649 47.2804 44.3221 47.3583 44.2458L50.7958 40.8666C51.0722 40.5946 51.2915 40.2703 51.441 39.9126C51.5906 39.5549 51.6673 39.171 51.6667 38.7833V34.4166C51.6667 34.0851 51.7984 33.7671 52.0328 33.5327C52.2672 33.2983 52.5851 33.1666 52.9167 33.1666C53.2482 33.1666 53.5661 33.2983 53.8006 33.5327C54.035 33.7671 54.1667 34.0851 54.1667 34.4166V40.8458C54.164 41.2352 54.0834 41.6202 53.9295 41.978C53.7757 42.3359 53.5517 42.6592 53.2708 42.9291L45.9625 49.9791C45.9219 50.0178 45.8895 50.0644 45.8673 50.1159C45.8451 50.1675 45.8335 50.223 45.8333 50.2791V53.5833C45.8333 53.6938 45.8772 53.7997 45.9554 53.8779C46.0335 53.956 46.1395 53.9999 46.25 53.9999C46.3605 53.9999 46.4665 53.956 46.5446 53.8779C46.6228 53.7997 46.6667 53.6938 46.6667 53.5833V50.4541L53.85 43.5499C54.2124 43.1987 54.5008 42.7785 54.6983 42.314C54.8958 41.8496 54.9984 41.3504 55 40.8458V34.4166C55 34.143 54.9461 33.8721 54.8414 33.6193C54.7367 33.3666 54.5833 33.1369 54.3898 32.9434C54.1964 32.75 53.9667 32.5965 53.7139 32.4918C53.4612 32.3871 53.1903 32.3333 52.9167 32.3333Z" fill="#39426A"/>
<path d="M27.3125 41.7542H27.2917C26.4499 41.736 25.6491 41.3873 25.0625 40.7834L22.1458 37.8667C21.7574 37.4793 21.2319 37.2607 20.6833 37.2584C20.3805 37.2557 20.0811 37.3227 19.8083 37.4542C19.5846 37.5533 19.3823 37.6948 19.2125 37.8709L19.15 37.9334V34.4167C19.1035 33.8985 18.8648 33.4164 18.4808 33.0653C18.0968 32.7142 17.5953 32.5195 17.075 32.5195C16.5547 32.5195 16.0532 32.7142 15.6692 33.0653C15.2852 33.4164 15.0465 33.8985 15 34.4167V40.8459C15.0016 41.3505 15.1042 41.8498 15.3017 42.3142C15.4992 42.7786 15.7876 43.1988 16.15 43.55L23.3333 50.4542V53.5834C23.3333 53.6939 23.3772 53.7999 23.4554 53.878C23.5335 53.9561 23.6395 54 23.75 54C23.8605 54 23.9665 53.9561 24.0446 53.878C24.1228 53.7999 24.1667 53.6939 24.1667 53.5834V50.2792C24.1665 50.2231 24.1549 50.1676 24.1327 50.116C24.1105 50.0645 24.0781 50.0179 24.0375 49.9792L16.7292 42.95C16.4483 42.6802 16.2243 42.3568 16.0705 41.999C15.9166 41.6412 15.836 41.2562 15.8333 40.8667V34.4167C15.8333 34.0852 15.965 33.7672 16.1994 33.5328C16.4339 33.2984 16.7518 33.1667 17.0833 33.1667C17.4149 33.1667 17.7328 33.2984 17.9672 33.5328C18.2016 33.7672 18.3333 34.0852 18.3333 34.4167V38.8292C18.3327 39.2169 18.4094 39.6009 18.559 39.9586C18.7085 40.3163 18.9278 40.6406 19.2042 40.9125L22.6417 44.2917C22.7196 44.3681 22.8243 44.4108 22.9333 44.4108C23.0424 44.4108 23.1471 44.3681 23.225 44.2917C23.3026 44.2136 23.3462 44.108 23.3462 43.998C23.3462 43.8879 23.3026 43.7823 23.225 43.7042L19.8167 40.25C19.5839 40.0158 19.4532 39.699 19.4532 39.3688C19.4532 39.0386 19.5839 38.7217 19.8167 38.4875C19.9202 38.3856 20.0417 38.3037 20.175 38.2459C20.406 38.1427 20.6625 38.1106 20.9118 38.1536C21.1611 38.1967 21.3919 38.3129 21.575 38.4875L24.4917 41.4042C25.2354 42.1649 26.2488 42.602 27.3125 42.6209H27.3333C28.1469 42.6252 28.9261 42.9492 29.5029 43.5229C30.0798 44.0966 30.4079 44.874 30.4167 45.6875V53.5834C30.4167 53.6939 30.4606 53.7999 30.5387 53.878C30.6168 53.9561 30.7228 54 30.8333 54C30.9438 54 31.0498 53.9561 31.128 53.878C31.2061 53.7999 31.25 53.6939 31.25 53.5834V45.6667C31.25 45.1498 31.1481 44.638 30.9502 44.1605C30.7523 43.683 30.4622 43.2492 30.0965 42.8839C29.7308 42.5187 29.2967 42.229 28.819 42.0316C28.3413 41.8342 27.8294 41.7328 27.3125 41.7334V41.7542Z" fill="#39426A"/>
<path d="M47.6667 34.3834C47.7412 34.3509 47.8046 34.2973 47.849 34.2292C47.8934 34.161 47.9169 34.0814 47.9167 34.0001V19.8334C47.9207 19.796 47.9207 19.7583 47.9167 19.7209V19.6876C47.9081 19.6642 47.8969 19.6418 47.8833 19.6209L47.8583 19.5834L47.8125 19.5334C47.8034 19.5216 47.7921 19.5117 47.7792 19.5043V19.4834H47.7375L35.2375 14.0668C35.1849 14.0438 35.1282 14.032 35.0708 14.032C35.0135 14.032 34.9567 14.0438 34.9042 14.0668L22.4042 19.4834H22.3792H22.3417L22.3208 19.5043C22.3079 19.5117 22.2966 19.5216 22.2875 19.5334L22.2417 19.5834L22.2167 19.6209C22.2031 19.6418 22.1919 19.6642 22.1833 19.6876V19.7209C22.1448 19.7534 22.1111 19.7913 22.0833 19.8334V34.0001C22.083 34.0814 22.1066 34.161 22.151 34.2292C22.1954 34.2973 22.2588 34.3509 22.3333 34.3834L34.8333 39.8001C34.8795 39.8194 34.9291 39.8293 34.9792 39.8293C35.0292 39.8293 35.0788 39.8194 35.125 39.8001L47.6667 34.3834ZM27.5 22.4543L30 23.5376V25.9626L27.5 24.8793V22.4543ZM41.775 17.8084L30.3208 22.7501H30.2292L28.225 21.8793L39.6792 16.9168L41.775 17.8084ZM35.4167 38.7834V25.5251L44.5833 21.5501L47.0833 20.4668V33.7251L35.4167 38.7834ZM35 24.7959L31.3667 23.2209L42.825 18.2626L46.45 19.8334L35 24.7959ZM35 14.8709L38.6333 16.4459L27.175 21.4043L23.55 19.8334L35 14.8709ZM22.9167 20.4668L23.6292 20.7751L26.6667 22.0918V25.1543C26.6664 25.2356 26.6899 25.3152 26.7343 25.3833C26.7787 25.4514 26.8421 25.5051 26.9167 25.5376L30.25 26.9793C30.3031 27.0003 30.3596 27.0116 30.4167 27.0126C30.4976 27.011 30.5767 26.988 30.6458 26.9459C30.7037 26.9078 30.7512 26.8558 30.784 26.7947C30.8167 26.7336 30.8337 26.6653 30.8333 26.5959V23.9001L34.5833 25.5251V38.7834L22.9167 33.7251V20.4668Z" fill="#39426A"/>
<path d="M41.75 23.9541L45.0833 22.5083C45.2104 22.4528 45.3492 22.43 45.4874 22.4417C45.6255 22.4535 45.7585 22.4995 45.8743 22.5756C45.9902 22.6518 46.0852 22.7556 46.1508 22.8777C46.2164 22.9998 46.2505 23.1363 46.25 23.275V31.7041C46.2497 31.8661 46.2023 32.0244 46.1135 32.1598C46.0247 32.2952 45.8984 32.4019 45.75 32.4666L42.4167 33.9125C42.2912 33.9672 42.1542 33.9903 42.0178 33.9795C41.8813 33.9688 41.7496 33.9246 41.6343 33.8509C41.519 33.7772 41.4236 33.6762 41.3565 33.5568C41.2895 33.4375 41.2529 33.3035 41.25 33.1666V24.7166C41.2502 24.5547 41.2977 24.3963 41.3865 24.2609C41.4753 24.1255 41.6016 24.0189 41.75 23.9541Z" fill="#F2D3B8"/>
</svg>
