<svg width="84" height="50" viewBox="0 0 84 50" fill="none" xmlns="http://www.w3.org/2000/svg">
<path d="M71.1365 37.2325C77.8929 30.4761 77.8929 19.5219 71.1365 12.7655C64.3802 6.00915 53.4259 6.00915 46.6695 12.7655C39.9132 19.5219 39.9132 30.4761 46.6695 37.2325C53.4259 43.9889 64.3802 43.9889 71.1365 37.2325Z" fill="#0F203A"/>
<path d="M37.9356 28.9725C40.1305 19.673 34.3711 10.3551 25.0716 8.16018C15.7722 5.96531 6.45419 11.7247 4.25932 21.0242C2.06445 30.3236 7.82385 39.6416 17.1233 41.8365C26.4228 44.0313 35.7407 38.2719 37.9356 28.9725Z" fill="#70BC29"/>
<path d="M45.8945 32.5996L53.4941 25L45.8945 17.4004" stroke="white" stroke-width="2" stroke-linecap="round" stroke-linejoin="round"/>
<path d="M26.5059 25.1836L53.4941 25" stroke="white" stroke-width="2" stroke-linecap="round" stroke-linejoin="round"/>
</svg>
