<svg width="69" height="69" viewBox="0 0 69 69" fill="none" xmlns="http://www.w3.org/2000/svg">
<path fill-rule="evenodd" clip-rule="evenodd" d="M34.5 69C53.5538 69 69 53.5538 69 34.5C69 15.4462 53.5538 0 34.5 0C15.4462 0 0 15.4462 0 34.5C0 53.5538 15.4462 69 34.5 69Z" fill="#DFF8FF"/>
<g clip-path="url(#clip0_326_364)">
<path d="M46.0834 44.8333V52.3333C46.0834 52.7753 45.9078 53.1992 45.5952 53.5118C45.2826 53.8243 44.8587 53.9999 44.4167 53.9999H23.5834C23.1413 53.9999 22.7174 53.8243 22.4048 53.5118C22.0923 53.1992 21.9167 52.7753 21.9167 52.3333V16.4999C21.9167 16.0579 22.0923 15.634 22.4048 15.3214C22.7174 15.0088 23.1413 14.8333 23.5834 14.8333H44.4167C44.8587 14.8333 45.2826 15.0088 45.5952 15.3214C45.9078 15.634 46.0834 16.0579 46.0834 16.4999V44.8333Z" fill="#8288A1"/>
<path d="M43.5834 17.3333V51.9166H24.4167V17.3333H29.4167C29.5356 17.8091 29.8101 18.2316 30.1966 18.5336C30.5832 18.8355 31.0595 18.9997 31.55 18.9999H36.45C36.8925 19.0004 37.3247 18.8668 37.6899 18.617C38.0551 18.3671 38.336 18.0125 38.4959 17.5999C38.53 17.5127 38.5592 17.4237 38.5834 17.3333H43.5834Z" fill="#90D1D7"/>
<path d="M43.5834 17.3333V50.6666H28.1667C27.5036 50.6666 26.8678 50.4032 26.3989 49.9344C25.9301 49.4655 25.6667 48.8296 25.6667 48.1666V17.3333H29.4167C29.5356 17.8091 29.8101 18.2316 30.1966 18.5336C30.5832 18.8355 31.0595 18.9997 31.55 18.9999H36.45C36.8925 19.0004 37.3247 18.8668 37.6899 18.617C38.0551 18.3671 38.336 18.0125 38.4959 17.5999C38.6759 17.5358 38.8457 17.446 39 17.3333H43.5834Z" fill="#ABD9E6"/>
<path d="M34.8333 20.25H41.5C41.721 20.25 41.933 20.3378 42.0893 20.4941C42.2455 20.6504 42.3333 20.8623 42.3333 21.0833V49C42.3333 49.221 42.2455 49.433 42.0893 49.5893C41.933 49.7455 41.721 49.8333 41.5 49.8333C39.5109 49.8333 37.6032 49.0432 36.1967 47.6366C34.7902 46.2301 34 44.3225 34 42.3333V21.0833C34 20.8623 34.0878 20.6504 34.2441 20.4941C34.4004 20.3378 34.6123 20.25 34.8333 20.25Z" fill="#C3E1F5"/>
<path d="M31.9167 17.3333C32.1468 17.3333 32.3333 17.1468 32.3333 16.9167C32.3333 16.6865 32.1468 16.5 31.9167 16.5C31.6865 16.5 31.5 16.6865 31.5 16.9167C31.5 17.1468 31.6865 17.3333 31.9167 17.3333Z" fill="#8288A1"/>
<path d="M36.0834 17.3333C36.3135 17.3333 36.5 17.1468 36.5 16.9167C36.5 16.6865 36.3135 16.5 36.0834 16.5C35.8532 16.5 35.6667 16.6865 35.6667 16.9167C35.6667 17.1468 35.8532 17.3333 36.0834 17.3333Z" fill="#8288A1"/>
<path d="M35.6666 47.7499C35.6666 48.192 35.491 48.6159 35.1785 48.9285C34.8659 49.241 34.442 49.4166 34 49.4166C33.5579 49.4166 33.134 49.241 32.8215 48.9285C32.5089 48.6159 32.3333 48.192 32.3333 47.7499C32.3317 47.5352 32.3742 47.3225 32.4583 47.1249C32.5839 46.8193 32.7975 46.5578 33.072 46.3738C33.3465 46.1898 33.6695 46.0916 34 46.0916C34.3304 46.0916 34.6534 46.1898 34.9279 46.3738C35.2025 46.5578 35.4161 46.8193 35.5416 47.1249C35.6257 47.3225 35.6682 47.5352 35.6666 47.7499Z" fill="#7190C4"/>
<path d="M41.0833 47.7499C41.0833 48.192 40.9077 48.6159 40.5951 48.9285C40.2825 49.241 39.8586 49.4166 39.4166 49.4166C38.9746 49.4166 38.5506 49.241 38.2381 48.9285C37.9255 48.6159 37.7499 48.192 37.7499 47.7499C37.7483 47.5352 37.7909 47.3225 37.8749 47.1249C38.0005 46.8193 38.2141 46.5578 38.4886 46.3738C38.7631 46.1898 39.0861 46.0916 39.4166 46.0916C39.7471 46.0916 40.0701 46.1898 40.3446 46.3738C40.6191 46.5578 40.8327 46.8193 40.9582 47.1249C41.0423 47.3225 41.0849 47.5352 41.0833 47.7499Z" fill="#F6B756"/>
<path d="M30.2499 47.7499C30.2499 48.192 30.0743 48.6159 29.7618 48.9285C29.4492 49.241 29.0253 49.4166 28.5833 49.4166C28.1412 49.4166 27.7173 49.241 27.4048 48.9285C27.0922 48.6159 26.9166 48.192 26.9166 47.7499C26.915 47.5352 26.9576 47.3225 27.0416 47.1249C27.1672 46.8193 27.3808 46.5578 27.6553 46.3738C27.9298 46.1898 28.2528 46.0916 28.5833 46.0916C28.9137 46.0916 29.2368 46.1898 29.5113 46.3738C29.7858 46.5578 29.9994 46.8193 30.1249 47.1249C30.209 47.3225 30.2515 47.5352 30.2499 47.7499Z" fill="#DC5D6B"/>
<path d="M35.6666 42.3332C35.6666 42.7752 35.491 43.1991 35.1785 43.5117C34.8659 43.8243 34.442 43.9999 34 43.9999C33.5579 43.9999 33.134 43.8243 32.8215 43.5117C32.5089 43.1991 32.3333 42.7752 32.3333 42.3332C32.3317 42.1185 32.3742 41.9058 32.4583 41.7082C32.5839 41.4025 32.7975 41.1411 33.072 40.9571C33.3465 40.773 33.6695 40.6748 34 40.6748C34.3304 40.6748 34.6534 40.773 34.9279 40.9571C35.2025 41.1411 35.4161 41.4025 35.5416 41.7082C35.6257 41.9058 35.6682 42.1185 35.6666 42.3332Z" fill="#CCD1DC"/>
<path d="M41.0833 42.3332C41.0833 42.7752 40.9077 43.1991 40.5951 43.5117C40.2825 43.8243 39.8586 43.9999 39.4166 43.9999C38.9746 43.9999 38.5506 43.8243 38.2381 43.5117C37.9255 43.1991 37.7499 42.7752 37.7499 42.3332C37.7483 42.1185 37.7909 41.9058 37.8749 41.7082C38.0005 41.4025 38.2141 41.1411 38.4886 40.9571C38.7631 40.773 39.0861 40.6748 39.4166 40.6748C39.7471 40.6748 40.0701 40.773 40.3446 40.9571C40.6191 41.1411 40.8327 41.4025 40.9582 41.7082C41.0423 41.9058 41.0849 42.1185 41.0833 42.3332Z" fill="#85BD79"/>
<path d="M30.2499 42.3332C30.2499 42.7752 30.0743 43.1991 29.7618 43.5117C29.4492 43.8243 29.0253 43.9999 28.5833 43.9999C28.1412 43.9999 27.7173 43.8243 27.4048 43.5117C27.0922 43.1991 26.9166 42.7752 26.9166 42.3332C26.915 42.1185 26.9576 41.9058 27.0416 41.7082C27.1672 41.4025 27.3808 41.1411 27.6553 40.9571C27.9298 40.773 28.2528 40.6748 28.5833 40.6748C28.9137 40.6748 29.2368 40.773 29.5113 40.9571C29.7858 41.1411 29.9994 41.4025 30.1249 41.7082C30.209 41.9058 30.2515 42.1185 30.2499 42.3332Z" fill="#ECAA63"/>
<path d="M35.6666 36.9167C35.6666 37.3587 35.491 37.7826 35.1785 38.0952C34.8659 38.4078 34.442 38.5834 34 38.5834C33.5579 38.5834 33.134 38.4078 32.8215 38.0952C32.5089 37.7826 32.3333 37.3587 32.3333 36.9167C32.3317 36.702 32.3742 36.4893 32.4583 36.2917C32.5839 35.986 32.7975 35.7246 33.072 35.5405C33.3465 35.3565 33.6695 35.2583 34 35.2583C34.3304 35.2583 34.6534 35.3565 34.9279 35.5405C35.2025 35.7246 35.4161 35.986 35.5416 36.2917C35.6257 36.4893 35.6682 36.702 35.6666 36.9167Z" fill="#F69163"/>
<path d="M41.0833 36.9167C41.0833 37.3587 40.9077 37.7826 40.5951 38.0952C40.2825 38.4078 39.8586 38.5834 39.4166 38.5834C38.9746 38.5834 38.5506 38.4078 38.2381 38.0952C37.9255 37.7826 37.7499 37.3587 37.7499 36.9167C37.7483 36.702 37.7909 36.4893 37.8749 36.2917C38.0005 35.986 38.2141 35.7246 38.4886 35.5405C38.7631 35.3565 39.0861 35.2583 39.4166 35.2583C39.7471 35.2583 40.0701 35.3565 40.3446 35.5405C40.6191 35.7246 40.8327 35.986 40.9582 36.2917C41.0423 36.4893 41.0849 36.702 41.0833 36.9167Z" fill="#E47980"/>
<path d="M30.2499 36.9167C30.2499 37.3587 30.0743 37.7826 29.7618 38.0952C29.4492 38.4078 29.0253 38.5834 28.5833 38.5834C28.1412 38.5834 27.7173 38.4078 27.4048 38.0952C27.0922 37.7826 26.9166 37.3587 26.9166 36.9167C26.915 36.702 26.9576 36.4893 27.0416 36.2917C27.1672 35.986 27.3808 35.7246 27.6553 35.5405C27.9298 35.3565 28.2528 35.2583 28.5833 35.2583C28.9137 35.2583 29.2368 35.3565 29.5113 35.5405C29.7858 35.7246 29.9994 35.986 30.1249 36.2917C30.209 36.4893 30.2515 36.702 30.2499 36.9167Z" fill="#75BE9A"/>
<path d="M34 48.1666C34.8514 48.1666 35.5416 47.7002 35.5416 47.1249C35.5416 46.5496 34.8514 46.0833 34 46.0833C33.1485 46.0833 32.4583 46.5496 32.4583 47.1249C32.4583 47.7002 33.1485 48.1666 34 48.1666Z" fill="#89A3CE"/>
<path d="M39.4167 48.1666C40.2681 48.1666 40.9583 47.7002 40.9583 47.1249C40.9583 46.5496 40.2681 46.0833 39.4167 46.0833C38.5652 46.0833 37.875 46.5496 37.875 47.1249C37.875 47.7002 38.5652 48.1666 39.4167 48.1666Z" fill="#FAC77D"/>
<path d="M28.5833 48.1666C29.4347 48.1666 30.125 47.7002 30.125 47.1249C30.125 46.5496 29.4347 46.0833 28.5833 46.0833C27.7319 46.0833 27.0416 46.5496 27.0416 47.1249C27.0416 47.7002 27.7319 48.1666 28.5833 48.1666Z" fill="#E47980"/>
<path d="M34 42.7501C34.8514 42.7501 35.5416 42.2837 35.5416 41.7084C35.5416 41.1331 34.8514 40.6667 34 40.6667C33.1485 40.6667 32.4583 41.1331 32.4583 41.7084C32.4583 42.2837 33.1485 42.7501 34 42.7501Z" fill="#DEE1E7"/>
<path d="M39.4167 42.7501C40.2681 42.7501 40.9583 42.2837 40.9583 41.7084C40.9583 41.1331 40.2681 40.6667 39.4167 40.6667C38.5652 40.6667 37.875 41.1331 37.875 41.7084C37.875 42.2837 38.5652 42.7501 39.4167 42.7501Z" fill="#9FC98A"/>
<path d="M28.5833 42.7501C29.4347 42.7501 30.125 42.2837 30.125 41.7084C30.125 41.1331 29.4347 40.6667 28.5833 40.6667C27.7319 40.6667 27.0416 41.1331 27.0416 41.7084C27.0416 42.2837 27.7319 42.7501 28.5833 42.7501Z" fill="#F4BB79"/>
<path d="M34 37.3333C34.8514 37.3333 35.5416 36.867 35.5416 36.2917C35.5416 35.7164 34.8514 35.25 34 35.25C33.1485 35.25 32.4583 35.7164 32.4583 36.2917C32.4583 36.867 33.1485 37.3333 34 37.3333Z" fill="#F7A079"/>
<path d="M39.4167 37.3333C40.2681 37.3333 40.9583 36.867 40.9583 36.2917C40.9583 35.7164 40.2681 35.25 39.4167 35.25C38.5652 35.25 37.875 35.7164 37.875 36.2917C37.875 36.867 38.5652 37.3333 39.4167 37.3333Z" fill="#E49FC6"/>
<path d="M28.5833 37.3333C29.4347 37.3333 30.125 36.867 30.125 36.2917C30.125 35.7164 29.4347 35.25 28.5833 35.25C27.7319 35.25 27.0416 35.7164 27.0416 36.2917C27.0416 36.867 27.7319 37.3333 28.5833 37.3333Z" fill="#85CBA9"/>
<path d="M44.4167 14.4167H23.5833C23.0308 14.4167 22.5009 14.6362 22.1102 15.0269C21.7195 15.4176 21.5 15.9475 21.5 16.5001V52.3334C21.5 52.8859 21.7195 53.4159 22.1102 53.8066C22.5009 54.1973 23.0308 54.4167 23.5833 54.4167H44.4167C44.9692 54.4167 45.4991 54.1973 45.8898 53.8066C46.2805 53.4159 46.5 52.8859 46.5 52.3334V16.5001C46.5 16.2265 46.4461 15.9556 46.3414 15.7028C46.2367 15.4501 46.0833 15.2204 45.8898 15.0269C45.6964 14.8335 45.4667 14.68 45.2139 14.5753C44.9612 14.4706 44.6903 14.4167 44.4167 14.4167ZM45.6667 52.3334C45.6667 52.6649 45.535 52.9829 45.3006 53.2173C45.0661 53.4517 44.7482 53.5834 44.4167 53.5834H23.5833C23.2518 53.5834 22.9339 53.4517 22.6994 53.2173C22.465 52.9829 22.3333 52.6649 22.3333 52.3334V16.5001C22.3333 16.1686 22.465 15.8506 22.6994 15.6162C22.9339 15.3818 23.2518 15.2501 23.5833 15.2501H44.4167C44.7482 15.2501 45.0661 15.3818 45.3006 15.6162C45.535 15.8506 45.6667 16.1686 45.6667 16.5001V52.3334Z" fill="#39426A"/>
<path d="M43.5833 16.9167H38.5833C38.4887 16.9137 38.3959 16.943 38.3202 16.9998C38.2444 17.0566 38.1903 17.1375 38.1667 17.2292C38.0708 17.6131 37.8502 17.9543 37.5395 18.1994C37.2289 18.4444 36.8457 18.5795 36.45 18.5834H31.55C31.1547 18.5804 30.7716 18.4463 30.4608 18.2019C30.1501 17.9575 29.9294 17.6168 29.8333 17.2334C29.8105 17.1409 29.7567 17.0591 29.6809 17.0015C29.6051 16.9439 29.5118 16.9139 29.4167 16.9167H24.4167C24.3062 16.9167 24.2002 16.9606 24.122 17.0388C24.0439 17.1169 24 17.2229 24 17.3334V51.9167C24 52.0272 24.0439 52.1332 24.122 52.2113C24.2002 52.2895 24.3062 52.3334 24.4167 52.3334H43.5833C43.6938 52.3334 43.7998 52.2895 43.878 52.2113C43.9561 52.1332 44 52.0272 44 51.9167V17.3334C44 17.2229 43.9561 17.1169 43.878 17.0388C43.7998 16.9606 43.6938 16.9167 43.5833 16.9167ZM43.1667 51.5H24.8333V17.75H29.1125C29.3033 18.2413 29.6382 18.6633 30.0732 18.9608C30.5082 19.2582 31.023 19.4172 31.55 19.4167H36.45C37.0332 19.4185 37.6 19.2233 38.0583 18.8625C38.4302 18.5725 38.7178 18.1884 38.8917 17.75H43.1667V51.5Z" fill="#39426A"/>
<path d="M31.9166 17.7499C32.3769 17.7499 32.75 17.3768 32.75 16.9166C32.75 16.4563 32.3769 16.0833 31.9166 16.0833C31.4564 16.0833 31.0833 16.4563 31.0833 16.9166C31.0833 17.3768 31.4564 17.7499 31.9166 17.7499Z" fill="#39426A"/>
<path d="M36.0833 17.7499C36.5436 17.7499 36.9167 17.3768 36.9167 16.9166C36.9167 16.4563 36.5436 16.0833 36.0833 16.0833C35.6231 16.0833 35.25 16.4563 35.25 16.9166C35.25 17.3768 35.6231 17.7499 36.0833 17.7499Z" fill="#39426A"/>
<path d="M34 45.6667C33.588 45.6667 33.1852 45.7889 32.8426 46.0179C32.5 46.2468 32.233 46.5721 32.0753 46.9528C31.9176 47.3335 31.8763 47.7524 31.9567 48.1565C32.0371 48.5606 32.2355 48.9319 32.5269 49.2232C32.8182 49.5146 33.1895 49.713 33.5936 49.7934C33.9977 49.8738 34.4166 49.8325 34.7973 49.6748C35.178 49.5171 35.5033 49.2501 35.7323 48.9075C35.9612 48.5649 36.0834 48.1621 36.0834 47.7501C36.0834 47.1975 35.8639 46.6676 35.4732 46.2769C35.0825 45.8862 34.5526 45.6667 34 45.6667ZM34 49.0001C33.7528 49.0001 33.5111 48.9268 33.3056 48.7894C33.1 48.6521 32.9398 48.4568 32.8452 48.2284C32.7506 48 32.7258 47.7487 32.774 47.5062C32.8223 47.2637 32.9413 47.041 33.1161 46.8662C33.291 46.6914 33.5137 46.5723 33.7562 46.5241C33.9986 46.4759 34.25 46.5006 34.4784 46.5952C34.7068 46.6898 34.902 46.8501 35.0394 47.0556C35.1767 47.2612 35.25 47.5029 35.25 47.7501C35.25 48.0816 35.1183 48.3995 34.8839 48.634C34.6495 48.8684 34.3315 49.0001 34 49.0001Z" fill="#39426A"/>
<path d="M39.4166 45.6667C39.0046 45.6667 38.6018 45.7889 38.2592 46.0179C37.9166 46.2468 37.6496 46.5721 37.4919 46.9528C37.3342 47.3335 37.293 47.7524 37.3733 48.1565C37.4537 48.5606 37.6521 48.9319 37.9435 49.2232C38.2349 49.5146 38.6061 49.713 39.0102 49.7934C39.4143 49.8738 39.8332 49.8325 40.2139 49.6748C40.5946 49.5171 40.92 49.2501 41.1489 48.9075C41.3778 48.5649 41.5 48.1621 41.5 47.7501C41.5 47.1975 41.2805 46.6676 40.8898 46.2769C40.4991 45.8862 39.9692 45.6667 39.4166 45.6667ZM39.4166 49.0001C39.1694 49.0001 38.9277 48.9268 38.7222 48.7894C38.5166 48.6521 38.3564 48.4568 38.2618 48.2284C38.1672 48 38.1424 47.7487 38.1907 47.5062C38.2389 47.2637 38.3579 47.041 38.5328 46.8662C38.7076 46.6914 38.9303 46.5723 39.1728 46.5241C39.4153 46.4759 39.6666 46.5006 39.895 46.5952C40.1234 46.6898 40.3186 46.8501 40.456 47.0556C40.5933 47.2612 40.6666 47.5029 40.6666 47.7501C40.6666 48.0816 40.535 48.3995 40.3005 48.634C40.0661 48.8684 39.7482 49.0001 39.4166 49.0001Z" fill="#39426A"/>
<path d="M28.5833 45.6667C28.1713 45.6667 27.7685 45.7889 27.4259 46.0179C27.0833 46.2468 26.8163 46.5721 26.6586 46.9528C26.5009 47.3335 26.4596 47.7524 26.54 48.1565C26.6204 48.5606 26.8188 48.9319 27.1102 49.2232C27.4016 49.5146 27.7728 49.713 28.1769 49.7934C28.581 49.8738 28.9999 49.8325 29.3806 49.6748C29.7613 49.5171 30.0866 49.2501 30.3156 48.9075C30.5445 48.5649 30.6667 48.1621 30.6667 47.7501C30.6667 47.1975 30.4472 46.6676 30.0565 46.2769C29.6658 45.8862 29.1359 45.6667 28.5833 45.6667ZM28.5833 49.0001C28.3361 49.0001 28.0944 48.9268 27.8889 48.7894C27.6833 48.6521 27.5231 48.4568 27.4285 48.2284C27.3339 48 27.3091 47.7487 27.3574 47.5062C27.4056 47.2637 27.5246 47.041 27.6995 46.8662C27.8743 46.6914 28.097 46.5723 28.3395 46.5241C28.5819 46.4759 28.8333 46.5006 29.0617 46.5952C29.2901 46.6898 29.4853 46.8501 29.6227 47.0556C29.76 47.2612 29.8333 47.5029 29.8333 47.7501C29.8333 48.0816 29.7016 48.3995 29.4672 48.634C29.2328 48.8684 28.9149 49.0001 28.5833 49.0001Z" fill="#39426A"/>
<path d="M34 40.25C33.588 40.25 33.1852 40.3722 32.8426 40.6011C32.5 40.83 32.233 41.1554 32.0753 41.5361C31.9176 41.9168 31.8763 42.3356 31.9567 42.7398C32.0371 43.1439 32.2355 43.5151 32.5269 43.8065C32.8182 44.0978 33.1895 44.2962 33.5936 44.3766C33.9977 44.457 34.4166 44.4158 34.7973 44.2581C35.178 44.1004 35.5033 43.8334 35.7323 43.4908C35.9612 43.1482 36.0834 42.7454 36.0834 42.3333C36.0834 41.7808 35.8639 41.2509 35.4732 40.8602C35.0825 40.4695 34.5526 40.25 34 40.25ZM34 43.5833C33.7528 43.5833 33.5111 43.51 33.3056 43.3727C33.1 43.2353 32.9398 43.0401 32.8452 42.8117C32.7506 42.5833 32.7258 42.3319 32.774 42.0895C32.8223 41.847 32.9413 41.6243 33.1161 41.4494C33.291 41.2746 33.5137 41.1556 33.7562 41.1074C33.9986 41.0591 34.25 41.0839 34.4784 41.1785C34.7068 41.2731 34.902 41.4333 35.0394 41.6389C35.1767 41.8444 35.25 42.0861 35.25 42.3333C35.25 42.6649 35.1183 42.9828 34.8839 43.2172C34.6495 43.4516 34.3315 43.5833 34 43.5833Z" fill="#39426A"/>
<path d="M39.4166 40.25C39.0046 40.25 38.6018 40.3722 38.2592 40.6011C37.9166 40.83 37.6496 41.1554 37.4919 41.5361C37.3342 41.9168 37.293 42.3356 37.3733 42.7398C37.4537 43.1439 37.6521 43.5151 37.9435 43.8065C38.2349 44.0978 38.6061 44.2962 39.0102 44.3766C39.4143 44.457 39.8332 44.4158 40.2139 44.2581C40.5946 44.1004 40.92 43.8334 41.1489 43.4908C41.3778 43.1482 41.5 42.7454 41.5 42.3333C41.5 41.7808 41.2805 41.2509 40.8898 40.8602C40.4991 40.4695 39.9692 40.25 39.4166 40.25ZM39.4166 43.5833C39.1694 43.5833 38.9277 43.51 38.7222 43.3727C38.5166 43.2353 38.3564 43.0401 38.2618 42.8117C38.1672 42.5833 38.1424 42.3319 38.1907 42.0895C38.2389 41.847 38.3579 41.6243 38.5328 41.4494C38.7076 41.2746 38.9303 41.1556 39.1728 41.1074C39.4153 41.0591 39.6666 41.0839 39.895 41.1785C40.1234 41.2731 40.3186 41.4333 40.456 41.6389C40.5933 41.8444 40.6666 42.0861 40.6666 42.3333C40.6666 42.6649 40.535 42.9828 40.3005 43.2172C40.0661 43.4516 39.7482 43.5833 39.4166 43.5833Z" fill="#39426A"/>
<path d="M28.5833 40.25C28.1713 40.25 27.7685 40.3722 27.4259 40.6011C27.0833 40.83 26.8163 41.1554 26.6586 41.5361C26.5009 41.9168 26.4596 42.3356 26.54 42.7398C26.6204 43.1439 26.8188 43.5151 27.1102 43.8065C27.4016 44.0978 27.7728 44.2962 28.1769 44.3766C28.581 44.457 28.9999 44.4158 29.3806 44.2581C29.7613 44.1004 30.0866 43.8334 30.3156 43.4908C30.5445 43.1482 30.6667 42.7454 30.6667 42.3333C30.6667 41.7808 30.4472 41.2509 30.0565 40.8602C29.6658 40.4695 29.1359 40.25 28.5833 40.25ZM28.5833 43.5833C28.3361 43.5833 28.0944 43.51 27.8889 43.3727C27.6833 43.2353 27.5231 43.0401 27.4285 42.8117C27.3339 42.5833 27.3091 42.3319 27.3574 42.0895C27.4056 41.847 27.5246 41.6243 27.6995 41.4494C27.8743 41.2746 28.097 41.1556 28.3395 41.1074C28.5819 41.0591 28.8333 41.0839 29.0617 41.1785C29.2901 41.2731 29.4853 41.4333 29.6227 41.6389C29.76 41.8444 29.8333 42.0861 29.8333 42.3333C29.8333 42.6649 29.7016 42.9828 29.4672 43.2172C29.2328 43.4516 28.9149 43.5833 28.5833 43.5833Z" fill="#39426A"/>
<path d="M34 34.8333C33.588 34.8333 33.1852 34.9554 32.8426 35.1844C32.5 35.4133 32.233 35.7386 32.0753 36.1193C31.9176 36.5 31.8763 36.9189 31.9567 37.323C32.0371 37.7272 32.2355 38.0984 32.5269 38.3897C32.8182 38.6811 33.1895 38.8795 33.5936 38.9599C33.9977 39.0403 34.4166 38.999 34.7973 38.8413C35.178 38.6837 35.5033 38.4166 35.7323 38.074C35.9612 37.7314 36.0834 37.3286 36.0834 36.9166C36.0834 36.3641 35.8639 35.8341 35.4732 35.4434C35.0825 35.0527 34.5526 34.8333 34 34.8333ZM34 38.1666C33.7528 38.1666 33.5111 38.0933 33.3056 37.9559C33.1 37.8186 32.9398 37.6233 32.8452 37.3949C32.7506 37.1665 32.7258 36.9152 32.774 36.6727C32.8223 36.4302 32.9413 36.2075 33.1161 36.0327C33.291 35.8579 33.5137 35.7388 33.7562 35.6906C33.9986 35.6424 34.25 35.6671 34.4784 35.7617C34.7068 35.8563 34.902 36.0166 35.0394 36.2221C35.1767 36.4277 35.25 36.6694 35.25 36.9166C35.25 37.2481 35.1183 37.566 34.8839 37.8005C34.6495 38.0349 34.3315 38.1666 34 38.1666Z" fill="#39426A"/>
<path d="M37.3333 36.9166C37.3333 37.3286 37.4555 37.7314 37.6844 38.074C37.9133 38.4166 38.2387 38.6837 38.6194 38.8413C39.0001 38.999 39.419 39.0403 39.8231 38.9599C40.2272 38.8795 40.5984 38.6811 40.8898 38.3897C41.1811 38.0984 41.3796 37.7272 41.4599 37.323C41.5403 36.9189 41.4991 36.5 41.3414 36.1193C41.1837 35.7386 40.9167 35.4133 40.5741 35.1844C40.2315 34.9554 39.8287 34.8333 39.4166 34.8333C38.8641 34.8333 38.3342 35.0527 37.9435 35.4434C37.5528 35.8341 37.3333 36.3641 37.3333 36.9166ZM40.6666 36.9166C40.6666 37.1638 40.5933 37.4055 40.456 37.611C40.3186 37.8166 40.1234 37.9768 39.895 38.0714C39.6666 38.166 39.4153 38.1908 39.1728 38.1426C38.9303 38.0943 38.7076 37.9753 38.5328 37.8005C38.3579 37.6257 38.2389 37.4029 38.1907 37.1604C38.1424 36.918 38.1672 36.6666 38.2618 36.4382C38.3564 36.2098 38.5166 36.0146 38.7222 35.8772C38.9277 35.7399 39.1694 35.6666 39.4166 35.6666C39.7482 35.6666 40.0661 35.7983 40.3005 36.0327C40.535 36.2671 40.6666 36.5851 40.6666 36.9166Z" fill="#39426A"/>
<path d="M28.5833 34.8333C28.1713 34.8333 27.7685 34.9554 27.4259 35.1844C27.0833 35.4133 26.8163 35.7386 26.6586 36.1193C26.5009 36.5 26.4596 36.9189 26.54 37.323C26.6204 37.7272 26.8188 38.0984 27.1102 38.3897C27.4016 38.6811 27.7728 38.8795 28.1769 38.9599C28.581 39.0403 28.9999 38.999 29.3806 38.8413C29.7613 38.6837 30.0866 38.4166 30.3156 38.074C30.5445 37.7314 30.6667 37.3286 30.6667 36.9166C30.6667 36.3641 30.4472 35.8341 30.0565 35.4434C29.6658 35.0527 29.1359 34.8333 28.5833 34.8333ZM28.5833 38.1666C28.3361 38.1666 28.0944 38.0933 27.8889 37.9559C27.6833 37.8186 27.5231 37.6233 27.4285 37.3949C27.3339 37.1665 27.3091 36.9152 27.3574 36.6727C27.4056 36.4302 27.5246 36.2075 27.6995 36.0327C27.8743 35.8579 28.097 35.7388 28.3395 35.6906C28.5819 35.6424 28.8333 35.6671 29.0617 35.7617C29.2901 35.8563 29.4853 36.0166 29.6227 36.2221C29.76 36.4277 29.8333 36.6694 29.8333 36.9166C29.8333 37.2481 29.7016 37.566 29.4672 37.8005C29.2328 38.0349 28.9149 38.1666 28.5833 38.1666Z" fill="#39426A"/>
</g>
<defs>
<clipPath id="clip0_326_364">
<rect width="40" height="40" fill="white" transform="translate(14 14)"/>
</clipPath>
</defs>
</svg>
