<svg width="69" height="69" viewBox="0 0 69 69" fill="none" xmlns="http://www.w3.org/2000/svg">
<path fill-rule="evenodd" clip-rule="evenodd" d="M34.5 69C53.5538 69 69 53.5538 69 34.5C69 15.4462 53.5538 0 34.5 0C15.4462 0 0 15.4462 0 34.5C0 53.5538 15.4462 69 34.5 69Z" fill="#EBF2FD"/>
<g clip-path="url(#clip0_326_491)">
<path d="M31.5542 49.4666L29.0792 51.9416L24.7542 47.6125L21.3875 44.2458L17.0584 39.9208L19.5334 37.4458L23.2167 39.725L29.275 45.7833L31.5542 49.4666Z" fill="#A5B9DB"/>
<path d="M30.5125 50.5084L29.0792 51.9417L24.7542 47.6126L21.3875 44.2459L17.0584 39.9209L18.4917 38.4875L22.175 40.7667L28.2334 46.8251L30.5125 50.5084Z" fill="#89A3CE"/>
<path d="M46.7209 32.8875L47.5959 32.0125C47.7839 31.8265 48.0377 31.7222 48.3022 31.7222C48.5666 31.7222 48.8204 31.8265 49.0084 32.0125L50.0709 33.075C50.2569 33.263 50.3612 33.5168 50.3612 33.7812C50.3612 34.0457 50.2569 34.2995 50.0709 34.4875L47.7584 36.8" fill="#F3F4F5"/>
<path d="M48.6541 40.1459L49.3625 39.4375C49.5505 39.2515 49.8043 39.1472 50.0687 39.1472C50.3332 39.1472 50.587 39.2515 50.775 39.4375L51.8375 40.5C52.0237 40.6888 52.1282 40.9432 52.1282 41.2084C52.1282 41.4735 52.0237 41.728 51.8375 41.9167L49.6958 44.0542" fill="#F3F4F5"/>
<path d="M32.2 21.2417L34.5125 18.9292C34.7005 18.7432 34.9543 18.6389 35.2187 18.6389C35.4832 18.6389 35.737 18.7432 35.925 18.9292L36.9875 19.9917C37.1735 20.1797 37.2778 20.4335 37.2778 20.698C37.2778 20.9625 37.1735 21.2162 36.9875 21.4042L36.1125 22.2792" fill="#F3F4F5"/>
<path d="M24.9458 19.3042L27.0833 17.1625C27.272 16.9763 27.5265 16.8718 27.7916 16.8718C28.0568 16.8718 28.3112 16.9763 28.4999 17.1625L29.5833 18.225C29.7693 18.413 29.8736 18.6668 29.8736 18.9313C29.8736 19.1957 29.7693 19.4495 29.5833 19.6375L28.8749 20.3459" fill="#F3F4F5"/>
<path d="M51.4834 50.7543L48.6542 53.5834L47.3042 51.3959L38.4001 36.9626L45.8251 29.5376L51.4834 50.7543Z" fill="#A5B9DB"/>
<path d="M39.4625 23.1749L32.0375 30.5999L17.6042 21.6958L15.4167 20.3458L18.2458 17.5166L39.4625 23.1749Z" fill="#A5B9DB"/>
<path d="M49.0084 49.6958L47.7584 50.9458L47.3042 51.3999L38.4001 36.9624L42.8459 32.5166L44.0959 31.2666L49.0084 49.6958Z" fill="#DEE1E7"/>
<path d="M37.7333 24.9042L32.0375 30.6L17.6 21.6959L18.0542 21.2417L19.3042 19.9917L37.7333 24.9042Z" fill="#DEE1E7"/>
<path d="M47.7584 50.9458L47.3042 51.3999L38.4001 36.9624L42.8459 32.5166L47.7584 50.9458Z" fill="#F3F4F5"/>
<path d="M36.4833 26.1542L32.0375 30.6L17.6 21.6959L18.0542 21.2417L36.4833 26.1542Z" fill="#F3F4F5"/>
<path d="M54.4417 16.5916C54.3982 17.1532 54.3104 17.7105 54.1792 18.2583C54.0917 18.6291 53.9792 19 53.8583 19.3625C53.5473 20.2603 53.1275 21.1167 52.6083 21.9125C51.8099 23.1343 50.8915 24.2732 49.8667 25.3125L31.1167 44.4291C29.8679 45.6995 28.346 46.6684 26.6667 47.2625C25.4119 47.7026 24.0922 47.9294 22.7625 47.9333L21.3333 46.5291C21.32 45.8794 21.3633 45.2297 21.4625 44.5875C21.8206 42.1491 22.9441 39.8876 24.6708 38.1291L43.4208 19.0208C44.4372 17.979 45.5537 17.0397 46.7542 16.2166C47.5569 15.6817 48.4233 15.2491 49.3333 14.9291C49.6917 14.8 50.0625 14.6833 50.4333 14.5875C50.9751 14.4473 51.5266 14.3484 52.0833 14.2916C52.395 14.2608 52.7096 14.2989 53.0048 14.4033C53.3001 14.5077 53.5687 14.6759 53.7917 14.8958C53.9957 15.093 54.1574 15.3298 54.2667 15.5916C54.4066 15.9054 54.4667 16.249 54.4417 16.5916Z" fill="#CCD1DC"/>
<path d="M54.2833 15.5916C54.2458 15.7916 54.2083 15.9875 54.1583 16.1833C54.0708 16.5541 53.9625 16.925 53.8416 17.2875C53.5304 18.1852 53.1106 19.0415 52.5916 19.8375C51.7934 21.0582 50.8764 22.1971 49.8541 23.2375L31.1041 42.3541C29.8585 43.6203 28.341 44.5864 26.6666 45.1791C25.4119 45.6193 24.0922 45.8461 22.7625 45.85L21.4833 44.6C21.8414 42.1616 22.9649 39.9001 24.6916 38.1416L43.4416 19.0333C44.458 17.9915 45.5745 17.0522 46.775 16.2291C47.5705 15.6914 48.4299 15.2547 49.3333 14.9291C49.6916 14.8 50.0625 14.6833 50.4333 14.5875C50.975 14.4473 51.5266 14.3484 52.0833 14.2916C52.395 14.2608 52.7096 14.2989 53.0048 14.4033C53.3001 14.5077 53.5687 14.6759 53.7916 14.8958C54.0017 15.0914 54.1691 15.3283 54.2833 15.5916Z" fill="#DEE1E7"/>
<path d="M28.3731 42.039C28.7636 41.6485 28.7636 41.0154 28.3731 40.6248C27.9826 40.2343 27.3494 40.2343 26.9589 40.6248L19.8878 47.6959C19.4973 48.0864 19.4973 48.7196 19.8878 49.1101C20.2784 49.5006 20.9115 49.5006 21.3021 49.1101L28.3731 42.039Z" fill="#A5B9DB"/>
<path d="M54.5834 16.7457C54.5345 17.3078 54.4412 17.8651 54.3042 18.4124C53.3666 18.2869 52.4997 17.846 51.8459 17.1624C51.1622 16.5086 50.7214 15.6416 50.5959 14.7041C51.1432 14.5671 51.7005 14.4738 52.2625 14.4249C52.5744 14.3968 52.8886 14.4375 53.1829 14.5442C53.4772 14.6509 53.7446 14.8209 53.966 15.0423C54.1873 15.2637 54.3574 15.531 54.4641 15.8254C54.5708 16.1197 54.6115 16.4339 54.5834 16.7457Z" fill="#8288A1"/>
<path d="M49.7167 23.5293L49.0084 24.2334C49.425 23.2209 48.8625 21.9668 47.9459 21.0543C47.0292 20.1418 45.7792 19.5626 44.7667 19.9918L45.4709 19.2834C46.6417 18.1126 48.1917 18.4501 49.3625 19.6376C50.5334 20.8251 50.8875 22.3584 49.7167 23.5293Z" fill="#77CACB"/>
<path d="M54.2542 14.7457C53.991 14.4783 53.6717 14.2726 53.3193 14.1436C52.9669 14.0146 52.5903 13.9656 52.2167 13.9999C51.6322 14.05 51.0527 14.1461 50.4833 14.2874C50.125 14.3749 49.7542 14.4874 49.35 14.6291C48.4204 14.9537 47.5355 15.3947 46.7167 15.9416C45.4796 16.7665 44.3268 17.7114 43.275 18.7624L39.3375 22.7082L36.9167 22.0624L37.2792 21.6999C37.4108 21.5683 37.5153 21.4121 37.5865 21.2402C37.6578 21.0682 37.6945 20.8839 37.6945 20.6978C37.6945 20.5117 37.6578 20.3274 37.5865 20.1554C37.5153 19.9835 37.4108 19.8273 37.2792 19.6957L36.2208 18.6374C35.9505 18.3803 35.5918 18.237 35.2188 18.237C34.8457 18.237 34.487 18.3803 34.2167 18.6374L32.0833 20.7749L29.6625 20.1291L29.8583 19.9332C29.99 19.8017 30.0944 19.6454 30.1657 19.4735C30.2369 19.3016 30.2736 19.1173 30.2736 18.9311C30.2736 18.745 30.2369 18.5607 30.1657 18.3888C30.0944 18.2168 29.99 18.0606 29.8583 17.9291L28.7958 16.8666C28.5255 16.6095 28.1668 16.4662 27.7938 16.4662C27.4207 16.4662 27.062 16.6095 26.7917 16.8666L24.8208 18.8374L18.3542 17.1124C18.2814 17.0908 18.2042 17.0895 18.1308 17.1086C18.0573 17.1277 17.9905 17.1664 17.9375 17.2207L15.1208 20.0499C15.077 20.0944 15.0438 20.1483 15.0236 20.2074C15.0034 20.2666 14.9967 20.3295 15.0042 20.3916C15.0108 20.4541 15.0315 20.5143 15.0647 20.5677C15.0978 20.6211 15.1427 20.6663 15.1958 20.6999L17.375 22.0457L31.3667 30.6666L24.3292 37.7166C23.8817 38.1651 23.4707 38.6486 23.1 39.1624L19.7667 37.0791C19.6867 37.0288 19.592 37.0071 19.4981 37.0177C19.4042 37.0283 19.3168 37.0705 19.25 37.1374L16.7625 39.6249C16.6849 39.703 16.6413 39.8086 16.6413 39.9186C16.6413 40.0287 16.6849 40.1343 16.7625 40.2124L20.9292 44.3791C20.8332 44.9757 20.7831 45.5789 20.7792 46.1832L19.5833 47.4041C19.3165 47.6709 19.1665 48.0329 19.1665 48.4103C19.1665 48.7877 19.3165 49.1497 19.5833 49.4166C19.8502 49.6834 20.2122 49.8334 20.5896 49.8334C20.967 49.8334 21.329 49.6834 21.5958 49.4166L22.8 48.2124C23.4055 48.2078 24.0099 48.1591 24.6083 48.0666L28.775 52.2332C28.8531 52.3108 28.9587 52.3544 29.0688 52.3544C29.1788 52.3544 29.2844 52.3108 29.3625 52.2332L31.8375 49.7582C31.9044 49.6915 31.9465 49.604 31.9571 49.5101C31.9677 49.4162 31.9461 49.3215 31.8958 49.2416L29.8125 45.9082C30.326 45.5294 30.8093 45.1115 31.2583 44.6582L38.3333 37.6332L46.95 51.6166L48.2958 53.7957C48.3294 53.8489 48.3746 53.8937 48.428 53.9269C48.4814 53.9601 48.5416 53.9808 48.6042 53.9874H48.65C48.7048 53.9877 48.7592 53.9772 48.81 53.9565C48.8607 53.9357 48.9069 53.9052 48.9458 53.8666L51.775 51.0374C51.8293 50.9844 51.8681 50.9176 51.8872 50.8441C51.9062 50.7707 51.9049 50.6935 51.8833 50.6207L50.1625 44.1791L52.1333 42.2082C52.3972 41.9414 52.5452 41.5814 52.5452 41.2061C52.5452 40.8309 52.3972 40.4708 52.1333 40.2041L51.0708 39.1457C50.9393 39.0141 50.7831 38.9096 50.6111 38.8384C50.4392 38.7671 50.2549 38.7304 50.0688 38.7304C49.8826 38.7304 49.6983 38.7671 49.5264 38.8384C49.3544 38.9096 49.1982 39.0141 49.0667 39.1457L48.8708 39.3416L48.225 36.9166L50.3625 34.7791C50.4947 34.6478 50.5995 34.4916 50.6711 34.3197C50.7427 34.1477 50.7795 33.9632 50.7795 33.777C50.7795 33.5907 50.7427 33.4063 50.6711 33.2343C50.5995 33.0623 50.4947 32.9062 50.3625 32.7749L49.3042 31.7166C49.1726 31.5849 49.0164 31.4805 48.8444 31.4092C48.6725 31.3379 48.4882 31.3013 48.3021 31.3013C48.116 31.3013 47.9317 31.3379 47.7597 31.4092C47.5878 31.4805 47.4316 31.5849 47.3 31.7166L46.9375 32.0791L46.2917 29.6624L50.225 25.7291C51.276 24.6773 52.2209 23.5245 53.0458 22.2874C53.5917 21.4694 54.0326 20.5861 54.3583 19.6582C54.4915 19.2851 54.6055 18.9054 54.7 18.5207C54.7833 18.1832 54.8458 17.8374 54.9 17.4874C54.9333 17.2541 54.9667 17.0207 54.9875 16.7832C55.0234 16.4105 54.9763 16.0345 54.8495 15.6822C54.7227 15.3299 54.5194 15.01 54.2542 14.7457ZM51.3375 14.9749L51.5542 14.9332C51.8 14.8957 52.0458 14.8624 52.2917 14.8416C52.5432 14.8172 52.7971 14.8486 53.0351 14.9337C53.2731 15.0188 53.4893 15.1553 53.6684 15.3336C53.8476 15.512 53.9851 15.7276 54.0712 15.9652C54.1573 16.2029 54.1899 16.4566 54.1667 16.7082C54.1667 16.9582 54.1125 17.2041 54.075 17.4457C54.075 17.5207 54.0458 17.5916 54.0333 17.6624C54.0208 17.7332 53.9958 17.8499 53.975 17.9416C53.2774 17.7568 52.6435 17.3851 52.1417 16.8666C51.6231 16.3647 51.2514 15.7308 51.0667 15.0332L51.3375 14.9749ZM18.2708 21.6166L19.4292 20.4582L36.9292 25.1207L31.975 30.0707L18.2708 21.6166ZM34.8042 19.2249C34.9165 19.1179 35.0657 19.0582 35.2208 19.0582C35.376 19.0582 35.5252 19.1179 35.6375 19.2249L36.7 20.2874C36.7549 20.342 36.7985 20.4069 36.8283 20.4784C36.858 20.5499 36.8733 20.6266 36.8733 20.7041C36.8733 20.7815 36.858 20.8582 36.8283 20.9297C36.7985 21.0012 36.7549 21.0661 36.7 21.1207L35.9958 21.8249L33.0167 21.0291L34.8042 19.2249ZM27.3792 17.4582C27.4905 17.3493 27.6401 17.2883 27.7958 17.2883C27.9516 17.2883 28.1012 17.3493 28.2125 17.4582L29.275 18.5166C29.3299 18.5712 29.3735 18.6361 29.4033 18.7076C29.433 18.7791 29.4483 18.8558 29.4483 18.9332C29.4483 19.0107 29.433 19.0874 29.4033 19.1589C29.3735 19.2304 29.3299 19.2953 29.275 19.3499L28.75 19.8791L25.7708 19.0874L27.3792 17.4582ZM18.3708 17.9791L38.6542 23.3957L37.6083 24.4416L19.4125 19.5874C19.3398 19.5658 19.2625 19.5645 19.1891 19.5836C19.1157 19.6027 19.0488 19.6414 18.9958 19.6957L17.5417 21.1666L16.0833 20.2499L18.3708 17.9791ZM17.6458 39.9207L19.5833 37.9707L22.625 39.8582C21.9399 40.956 21.4336 42.1557 21.125 43.4124L17.6458 39.9207ZM21.0083 48.8166C20.8978 48.9271 20.7479 48.9891 20.5917 48.9891C20.4354 48.9891 20.2855 48.9271 20.175 48.8166C20.0645 48.706 20.0024 48.5562 20.0024 48.3999C20.0024 48.2436 20.0645 48.0937 20.175 47.9832L21.5 46.6582L27.2542 40.9207C27.3089 40.866 27.3738 40.8226 27.4453 40.793C27.5168 40.7634 27.5935 40.7481 27.6708 40.7481C27.7482 40.7481 27.8248 40.7634 27.8963 40.793C27.9678 40.8226 28.0328 40.866 28.0875 40.9207C28.1422 40.9754 28.1856 41.0404 28.2152 41.1119C28.2448 41.1834 28.2601 41.26 28.2601 41.3374C28.2601 41.4148 28.2448 41.4914 28.2152 41.5629C28.1856 41.6344 28.1422 41.6993 28.0875 41.7541L22.3375 47.5041L21.0083 48.8166ZM31.0083 49.4041L29.0583 51.3541L25.5708 47.8624C25.9413 47.7774 26.3071 47.6731 26.6667 47.5499C27.5429 47.2533 28.3818 46.8562 29.1667 46.3666L31.0083 49.4041ZM38.925 37.0249L43.8792 32.0749L48.5417 49.5749L47.3833 50.7332L38.925 37.0249ZM49.6542 39.7332C49.7088 39.6783 49.7737 39.6347 49.8452 39.605C49.9167 39.5752 49.9934 39.5599 50.0708 39.5599C50.1483 39.5599 50.225 39.5752 50.2965 39.605C50.368 39.6347 50.4329 39.6783 50.4875 39.7332L51.5458 40.7957C51.6007 40.8502 51.6441 40.9152 51.6734 40.9868C51.7027 41.0583 51.7175 41.135 51.7167 41.2124C51.717 41.2897 51.7021 41.3662 51.6728 41.4377C51.6434 41.5092 51.6003 41.5742 51.5458 41.6291L49.9125 43.2499L49.1208 40.2707L49.6542 39.7332ZM47.8875 32.3082C47.9421 32.2533 48.007 32.2097 48.0785 32.18C48.15 32.1502 48.2267 32.1349 48.3042 32.1349C48.3816 32.1349 48.4583 32.1502 48.5298 32.18C48.6013 32.2097 48.6662 32.2533 48.7208 32.3082L49.7833 33.3707C49.8382 33.4252 49.8816 33.4902 49.9109 33.5618C49.9402 33.6333 49.955 33.71 49.9542 33.7874C49.9539 33.9433 49.8926 34.0929 49.7833 34.2041L47.9875 35.9999L47.1917 33.0207L47.8875 32.3082ZM51.0208 50.6416L48.75 52.9166L47.8333 51.4582L49.3042 49.9874C49.3585 49.9344 49.3972 49.8676 49.4163 49.7941C49.4354 49.7207 49.4341 49.6435 49.4125 49.5707L44.5833 31.3916L45.6292 30.3457L51.0208 50.6416ZM52.3542 21.8374C51.5602 23.0349 50.6502 24.1514 49.6375 25.1707L45.5292 29.2791L43.8042 31.0041L38.1042 36.6707L30.6958 44.0791C29.4846 45.2881 28.0142 46.2057 26.3958 46.7624C25.5151 47.0663 24.5995 47.2581 23.6708 47.3332L28.6708 42.3332C28.8022 42.2016 28.9063 42.0455 28.9772 41.8736C29.0482 41.7018 29.0846 41.5177 29.0844 41.3317C29.0842 41.1458 29.0474 40.9618 28.9761 40.7901C28.9048 40.6184 28.8003 40.4625 28.6688 40.3311C28.5372 40.1998 28.381 40.0957 28.2092 40.0247C28.0373 39.9538 27.8532 39.9173 27.6673 39.9175C27.4814 39.9177 27.2973 39.9545 27.1256 40.0259C26.9539 40.0972 26.798 40.2016 26.6667 40.3332L21.6667 45.3332C21.8938 42.6823 23.0457 40.1957 24.9208 38.3082L32.3292 30.8957L38.025 25.1999L39.75 23.4749L43.8583 19.3666C44.8776 18.3538 45.9941 17.4439 47.1917 16.6499C47.9531 16.1441 48.7748 15.7354 49.6375 15.4332C49.8583 15.3541 50.0542 15.2874 50.2708 15.2291C50.4835 16.074 50.9229 16.8448 51.5417 17.4582C52.1543 18.0837 52.9268 18.529 53.775 18.7457C53.7167 18.9499 53.65 19.1624 53.5708 19.3791C53.2687 20.2418 52.86 21.0634 52.3542 21.8249V21.8374Z" fill="#39426A"/>
<path d="M45.1792 19L44.4708 19.7041C44.4022 19.7727 44.3596 19.8631 44.3505 19.9597C44.3414 20.0563 44.3662 20.1531 44.4208 20.2333C44.4748 20.3125 44.5544 20.3706 44.6462 20.3979C44.7381 20.4252 44.8365 20.4201 44.925 20.3833C45.8375 20 46.9667 20.6666 47.6542 21.3541C48.3417 22.0416 49.0083 23.1666 48.625 24.075C48.5991 24.1381 48.589 24.2066 48.5958 24.2745C48.6025 24.3424 48.6259 24.4077 48.6637 24.4644C48.7016 24.5212 48.7528 24.5678 48.8129 24.6002C48.873 24.6325 48.9401 24.6496 49.0083 24.65C49.0632 24.6503 49.1175 24.6398 49.1683 24.619C49.2191 24.5983 49.2652 24.5678 49.3042 24.5291L50 23.8208C51.25 22.5708 51.0917 20.7875 49.65 19.3416C48.2083 17.8958 46.4125 17.75 45.1792 19ZM49.5417 23.1041C49.3594 22.2073 48.9055 21.3883 48.2417 20.7583C47.6117 20.0945 46.7927 19.6406 45.8958 19.4583C46.9583 18.5375 48.2208 19.0833 49.0667 19.9333C49.9125 20.7833 50.4625 22.0416 49.5417 23.1041Z" fill="#39426A"/>
<path d="M44.4752 22.2243L44.434 22.1831C44.0288 21.7779 43.3719 21.7779 42.9668 22.1831L27.9761 37.1737C27.5709 37.5789 27.5709 38.2358 27.9761 38.641L28.0173 38.6822C28.4225 39.0874 29.0794 39.0874 29.4846 38.6822L44.4752 23.6916C44.8804 23.2864 44.8804 22.6295 44.4752 22.2243Z" fill="#F3F4F5"/>
</g>
<defs>
<clipPath id="clip0_326_491">
<rect width="40" height="40" fill="white" transform="translate(15 14)"/>
</clipPath>
</defs>
</svg>
