<svg width="69" height="69" viewBox="0 0 69 69" fill="none" xmlns="http://www.w3.org/2000/svg">
<path fill-rule="evenodd" clip-rule="evenodd" d="M34.5 69C53.5538 69 69 53.5538 69 34.5C69 15.4462 53.5538 0 34.5 0C15.4462 0 0 15.4462 0 34.5C0 53.5538 15.4462 69 34.5 69Z" fill="#FFEACB"/>
<g clip-path="url(#clip0_4955_3621)">
<path d="M50 43.5833H19.5833V34L23.3333 31.5H46.6667L50 34V43.5833Z" fill="#E69C4B"/>
<path d="M46.6667 14.4167H23.3333V43.5834H46.6667V14.4167Z" fill="#CCD1DC"/>
<path d="M46.6667 14.4167V40.2501H32.9167C30.7065 40.2501 28.5869 39.3721 27.0241 37.8093C25.4613 36.2465 24.5833 34.1269 24.5833 31.9167V14.4167H46.6667Z" fill="#DEE1E7"/>
<path d="M44.1667 15.6667H36.25C35.5596 15.6667 35 16.2264 35 16.9167V38.1667C35 38.8571 35.5596 39.4167 36.25 39.4167H44.1667C44.857 39.4167 45.4167 38.8571 45.4167 38.1667V16.9167C45.4167 16.2264 44.857 15.6667 44.1667 15.6667Z" fill="#F3F4F5"/>
<path d="M41.6667 26.2C41.6667 28.525 40.3333 29.6583 39 30.425L35 32.75L31 30.425C29.6667 29.6583 28.3333 28.525 28.3333 26.2C28.333 26.021 28.3497 25.8424 28.3833 25.6667C28.6667 24.0958 30.1667 22.75 31.6667 22.75C34.1667 22.75 35 24.4167 35 24.4167C35 24.4167 35.8333 22.75 38.3333 22.75C39.8333 22.75 41.3333 24.1 41.6167 25.6667C41.6502 25.8424 41.667 26.021 41.6667 26.2Z" fill="#DC5D6B"/>
<path d="M41.6667 26.2001C41.6982 27.1918 41.3878 28.1642 40.7875 28.9542C40.2942 29.5574 39.6868 30.0572 39 30.4251L35 32.7501L31 30.4251C29.6667 29.6584 28.3333 28.5251 28.3333 26.2001C28.333 26.0211 28.3497 25.8425 28.3833 25.6667C28.569 24.7489 29.0942 23.9349 29.8542 23.3876C30.3756 22.9885 31.0102 22.7653 31.6667 22.7501C34.1667 22.7501 35 24.4167 35 24.4167C35.2021 24.0674 35.4745 23.7637 35.8 23.5251L35.9167 23.4459C36.6301 22.9681 37.475 22.7248 38.3333 22.7501C39.8333 22.7501 41.3333 24.1001 41.6167 25.6667C41.6502 25.8425 41.667 26.0211 41.6667 26.2001Z" fill="#DC5D6B"/>
<path d="M41.6667 26.2001C41.6982 27.1918 41.3878 28.1642 40.7875 28.9542C40.4856 29.19 40.1667 29.4031 39.8333 29.5917L35.8333 31.9167L31.8333 29.5917C30.5 28.8251 29.1667 27.6917 29.1667 25.3667C29.1663 25.1878 29.1831 25.0092 29.2167 24.8334C29.3152 24.3089 29.5333 23.8141 29.8542 23.3876C30.3756 22.9885 31.0102 22.7653 31.6667 22.7501C34.1667 22.7501 35 24.4167 35 24.4167C35.2021 24.0674 35.4745 23.7637 35.8 23.5251C35.8129 23.5434 35.824 23.563 35.8333 23.5834C35.8585 23.5361 35.8864 23.4902 35.9167 23.4459C36.6302 22.9681 37.475 22.7248 38.3333 22.7501C39.8333 22.7501 41.3333 24.1001 41.6167 25.6667C41.6503 25.8425 41.667 26.0211 41.6667 26.2001Z" fill="#E47980"/>
<path d="M41.6667 17.3333H28.3333V19.8333H41.6667V17.3333Z" fill="#878C9F"/>
<path d="M50.4167 34V53.5833H19.5833V34L20.8333 34.8792L23.3333 36.6333L32.6292 43.1667L35 41.5L37.3708 43.1667L46.6667 36.6333L50.4167 34Z" fill="#F6B756"/>
<path d="M50.4167 34V51.9167H25.8333C24.5073 51.9167 23.2355 51.3899 22.2978 50.4522C21.3601 49.5145 20.8333 48.2428 20.8333 46.9167V34.8792L23.3333 36.6333L32.6292 43.1667L35 41.5L37.3708 43.1667L46.6667 36.6333L50.4167 34Z" fill="#FAC77D"/>
<path d="M50.8333 33.8917C50.8344 33.8806 50.8344 33.8694 50.8333 33.8583C50.8287 33.8362 50.8202 33.8151 50.8083 33.7958L50.7833 33.7625C50.7729 33.7433 50.7587 33.7263 50.7417 33.7125C50.733 33.7018 50.7232 33.692 50.7125 33.6833L50.6833 33.6583L47.1125 31.1583V14.4167C47.1125 14.3062 47.0686 14.2002 46.9905 14.122C46.9123 14.0439 46.8063 14 46.6958 14H23.3333C23.2228 14 23.1168 14.0439 23.0387 14.122C22.9606 14.2002 22.9167 14.3062 22.9167 14.4167V31.15L19.3458 33.65L19.3167 33.675L19.2875 33.7042C19.2704 33.7179 19.2563 33.7349 19.2458 33.7542L19.2208 33.7875C19.2107 33.8076 19.2023 33.8285 19.1958 33.85C19.1947 33.8611 19.1947 33.8722 19.1958 33.8833C19.1789 33.9201 19.169 33.9596 19.1667 34V53.5833C19.1667 53.6938 19.2106 53.7998 19.2887 53.878C19.3668 53.9561 19.4728 54 19.5833 54H50.4167C50.5272 54 50.6331 53.9561 50.7113 53.878C50.7894 53.7998 50.8333 53.6938 50.8333 53.5833V34C50.8394 33.9641 50.8394 33.9275 50.8333 33.8917ZM50 34.8V51.5333L38.0958 43.1667L50 34.8ZM49.6917 34L47.0833 35.8333V32.1667L49.6917 34ZM23.75 14.8333H46.25V36.4167L37.3708 42.6667L35.2375 41.1667C35.1677 41.1183 35.0849 41.0924 35 41.0924C34.9151 41.0924 34.8322 41.1183 34.7625 41.1667L32.6292 42.6667L23.75 36.4167V14.8333ZM20 34.8L31.9042 43.1667L20 51.5333V34.8ZM22.9167 32.1667V35.8333L20.3083 34L22.9167 32.1667ZM20 53.1667V52.55L32.85 43.5208L35 42.0083L50 52.55V53.1667H20Z" fill="#39426A"/>
<path d="M30.7917 30.7832L34.7917 33.1082C34.855 33.1448 34.9268 33.164 35 33.164C35.0731 33.164 35.145 33.1448 35.2083 33.1082L39.2083 30.7874C40.5458 30.0165 42.0833 28.7999 42.0833 26.204C42.0833 24.2124 40.2625 22.3332 38.3333 22.3332C37.7112 22.3035 37.0902 22.4109 36.5141 22.6478C35.9381 22.8847 35.4212 23.2453 35 23.704C34.5788 23.2453 34.0619 22.8847 33.4858 22.6478C32.9098 22.4109 32.2888 22.3035 31.6667 22.3332C29.7375 22.3332 27.9167 24.2124 27.9167 26.1999C27.9167 28.7999 29.4542 30.0165 30.7917 30.7832ZM31.6667 23.1665C33.8583 23.1665 34.5833 24.5457 34.6292 24.604C34.6638 24.6728 34.7168 24.7305 34.7822 24.771C34.8477 24.8114 34.923 24.833 35 24.8332C35.0769 24.833 35.1523 24.8114 35.2178 24.771C35.2832 24.7305 35.3362 24.6728 35.3708 24.604C35.4167 24.5457 36.1417 23.1665 38.3333 23.1665C39.8042 23.1665 41.25 24.6707 41.25 26.1999C41.25 28.3582 40 29.3665 38.7917 30.0665L35 32.2665L31.2083 30.0624C30 29.3665 28.75 28.3582 28.75 26.1999C28.75 24.6707 30.1958 23.1665 31.6667 23.1665Z" fill="#39426A"/>
<path d="M28.3333 20.2501H41.6667C41.7772 20.2501 41.8831 20.2062 41.9613 20.128C42.0394 20.0499 42.0833 19.9439 42.0833 19.8334V17.3334C42.0833 17.2229 42.0394 17.1169 41.9613 17.0388C41.8831 16.9606 41.7772 16.9167 41.6667 16.9167H28.3333C28.2228 16.9167 28.1168 16.9606 28.0387 17.0388C27.9606 17.1169 27.9167 17.2229 27.9167 17.3334V19.8334C27.9167 19.9439 27.9606 20.0499 28.0387 20.128C28.1168 20.2062 28.2228 20.2501 28.3333 20.2501ZM28.75 17.7501H41.25V19.4167H28.75V17.7501Z" fill="#39426A"/>
<path d="M28.3333 35.6666H41.6667C41.7772 35.6666 41.8831 35.6227 41.9613 35.5445C42.0394 35.4664 42.0833 35.3604 42.0833 35.2499C42.0833 35.1394 42.0394 35.0334 41.9613 34.9553C41.8831 34.8772 41.7772 34.8333 41.6667 34.8333H28.3333C28.2228 34.8333 28.1168 34.8772 28.0387 34.9553C27.9606 35.0334 27.9167 35.1394 27.9167 35.2499C27.9167 35.3604 27.9606 35.4664 28.0387 35.5445C28.1168 35.6227 28.2228 35.6666 28.3333 35.6666Z" fill="#39426A"/>
<path d="M28.3333 38.1666H41.6667C41.7772 38.1666 41.8831 38.1227 41.9613 38.0445C42.0394 37.9664 42.0833 37.8604 42.0833 37.7499C42.0833 37.6394 42.0394 37.5334 41.9613 37.4553C41.8831 37.3772 41.7772 37.3333 41.6667 37.3333H28.3333C28.2228 37.3333 28.1168 37.3772 28.0387 37.4553C27.9606 37.5334 27.9167 37.6394 27.9167 37.7499C27.9167 37.8604 27.9606 37.9664 28.0387 38.0445C28.1168 38.1227 28.2228 38.1666 28.3333 38.1666Z" fill="#39426A"/>
<path d="M49.1667 38.1666C49.1667 37.7063 48.7936 37.3333 48.3333 37.3333C47.8731 37.3333 47.5 37.7063 47.5 38.1666V48.1666C47.5 48.6268 47.8731 48.9999 48.3333 48.9999C48.7936 48.9999 49.1667 48.6268 49.1667 48.1666V38.1666Z" fill="#FFD69E"/>
<path d="M36.6667 30.2749C36.5937 30.2757 36.5218 30.2572 36.4582 30.2213C36.3945 30.1855 36.3415 30.1336 36.3042 30.0708C36.2765 30.0235 36.2584 29.9711 36.2509 29.9168C36.2435 29.8625 36.2468 29.8072 36.2607 29.7542C36.2747 29.7012 36.2989 29.6514 36.3321 29.6078C36.3653 29.5642 36.4068 29.5275 36.4542 29.4999L37.9667 28.6208C39.1667 27.9208 39.5834 27.3333 39.5834 26.1999C39.5891 26.1487 39.5891 26.097 39.5834 26.0458C39.5624 25.9353 39.5861 25.8209 39.6494 25.728C39.7127 25.635 39.8104 25.5709 39.9209 25.5499C40.0314 25.5289 40.1457 25.5527 40.2387 25.616C40.3317 25.6793 40.3957 25.7769 40.4167 25.8874C40.4362 25.9905 40.446 26.0951 40.4459 26.1999C40.4459 27.6166 39.875 28.4958 38.4042 29.3416L36.8959 30.2208C36.8263 30.2605 36.7467 30.2793 36.6667 30.2749Z" fill="#F4929C"/>
<path d="M39.0417 25.0667C38.9618 25.0665 38.8837 25.0433 38.8167 25C38.6739 24.9011 38.5067 24.8435 38.3333 24.8333C38.2228 24.8333 38.1168 24.7894 38.0387 24.7113C37.9606 24.6332 37.9167 24.5272 37.9167 24.4167C37.9167 24.3062 37.9606 24.2002 38.0387 24.122C38.1168 24.0439 38.2228 24 38.3333 24C38.6646 24.0102 38.9864 24.1126 39.2625 24.2958C39.3396 24.3436 39.399 24.4153 39.4317 24.4999C39.4644 24.5846 39.4685 24.6775 39.4436 24.7648C39.4186 24.852 39.3658 24.9287 39.2933 24.9831C39.2207 25.0376 39.1324 25.067 39.0417 25.0667Z" fill="#F4929C"/>
</g>
<defs>
<clipPath id="clip0_4955_3621">
<rect width="40" height="40" fill="white" transform="translate(15 14)"/>
</clipPath>
</defs>
</svg>
