<svg xmlns="http://www.w3.org/2000/svg" viewBox="0 0 280 555"><path d="M2.996 96.778h-.678c-1.247 0-2.259-.768-2.259-1.715V77.057c0-.948 1.012-1.715 2.259-1.715h.678V41.199C2.996 18.714 21.384.486 44.067.486h194.548c22.682 0 41.07 18.228 41.07 40.713v472.7c0 22.485-18.388 40.713-41.07 40.713H44.067c-22.683 0-41.071-18.228-41.071-40.713v-307.58h-.678c-1.247 0-2.259-.768-2.259-1.715v-36.656c0-.948 1.012-1.715 2.259-1.715h.678V154.87h-.678c-1.247 0-2.259-.768-2.259-1.715V116.5c0-.947 1.012-1.715 2.259-1.715h.678V96.778z"/></svg>