<?xml version="1.0" encoding="utf-8"?>
<!-- Generator: Adobe Illustrator 24.0.0, SVG Export Plug-In . SVG Version: 6.00 Build 0)  -->
<svg version="1.1" id="Layer_1" xmlns="http://www.w3.org/2000/svg" xmlns:xlink="http://www.w3.org/1999/xlink" x="0px" y="0px"
	 viewBox="0 0 325.5 298" style="enable-background:new 0 0 325.5 298;" xml:space="preserve">
<style type="text/css">
	.st0{fill:#E7E8EF;fill-opacity:0.1;}
	.st1{fill:#FFFFFF;filter:url(#Adobe_OpacityMaskFilter);}
	.st2{mask:url(#path-3-inside-1_1_);fill:none;stroke:url(#SVGID_1_);stroke-width:38.5135;}
	.st3{fill:#FFFFFF;filter:url(#Adobe_OpacityMaskFilter_1_);}
	.st4{mask:url(#path-4-inside-2_1_);fill:none;stroke:#FFFFFF;stroke-width:38.5135;}
	.st5{fill:#FFFFFF;filter:url(#Adobe_OpacityMaskFilter_2_);}
	.st6{mask:url(#path-5-inside-3_1_);fill:none;stroke:url(#SVGID_2_);stroke-width:38.5135;}
	.st7{fill:#FFFFFF;filter:url(#Adobe_OpacityMaskFilter_3_);}
	.st8{mask:url(#path-6-inside-4_1_);fill:none;stroke:#FFFFFF;stroke-width:38.5135;}
	.st9{fill:#FFFFFF;filter:url(#Adobe_OpacityMaskFilter_4_);}
	.st10{mask:url(#path-7-inside-5_1_);fill:none;stroke:url(#SVGID_3_);stroke-width:38.5135;}
	.st11{fill:#FFFFFF;filter:url(#Adobe_OpacityMaskFilter_5_);}
	.st12{mask:url(#path-8-inside-6_1_);fill:none;stroke:#FFFFFF;stroke-width:38.5135;}
	.st13{fill:#FFFFFF;filter:url(#Adobe_OpacityMaskFilter_6_);}
	.st14{mask:url(#path-9-inside-7_1_);fill:none;stroke:url(#SVGID_4_);stroke-width:38.5135;}
</style>
<path class="st0" d="M258.6,270.5c21.6-19.4,36.8-44.9,43.6-73.2c6.8-28.2,4.8-57.9-5.6-85c-10.4-27.1-28.8-50.4-52.8-66.9
	c-23.9-16.4-52.3-25.2-81.4-25.2c-29,0-57.4,8.9-81.3,25.4c-23.9,16.5-42.2,39.9-52.6,67s-12.2,56.8-5.3,85
	c6.9,28.2,22.1,53.7,43.8,73.1l95.6-107L258.6,270.5z"/>
<defs>
	<filter id="Adobe_OpacityMaskFilter" filterUnits="userSpaceOnUse" x="0" y="1.1" width="325.5" height="296.6">
		<feColorMatrix  type="matrix" values="1 0 0 0 0  0 1 0 0 0  0 0 1 0 0  0 0 0 1 0"/>
	</filter>
</defs>
<mask maskUnits="userSpaceOnUse" x="0" y="1.1" width="325.5" height="296.6" id="path-3-inside-1_1_">
	<path class="st1" d="M55,258.5c-18.7-21.3-30.7-47.6-34.4-75.6s0.9-56.6,13.3-82C46.2,75.4,65.9,54.2,90.3,40
		c24.4-14.3,52.6-21,80.8-19.4c28.3,1.7,55.4,11.6,78,28.7c22.6,17.1,39.6,40.4,49,67.1c9.4,26.7,10.6,55.6,3.6,83
		c-7,27.4-22,52.2-43.1,71.1l-11.4-12.6c18.6-16.7,31.8-38.5,38-62.7c6.2-24.2,5.1-49.6-3.1-73.2c-8.2-23.6-23.3-44.1-43.2-59.2
		c-19.9-15-43.8-23.8-68.8-25.3c-24.9-1.5-49.7,4.5-71.2,17.1C77.4,67.2,60,85.9,49.1,108.3c-11,22.4-15,47.6-11.7,72.3
		s13.9,47.9,30.4,66.7L55,258.5z"/>
</mask>
<linearGradient id="SVGID_1_" gradientUnits="userSpaceOnUse" x1="187.4027" y1="120.0364" x2="138.9837" y2="207.955" gradientTransform="matrix(1 0 0 -1 0 328.6695)">
	<stop  offset="0" style="stop-color:#56DD47"/>
	<stop  offset="1" style="stop-color:#A0FEAD"/>
</linearGradient>
<path class="st2" d="M55,258.5c-18.7-21.3-30.7-47.6-34.4-75.6s0.9-56.6,13.3-82C46.2,75.4,65.9,54.2,90.3,40
	c24.4-14.3,52.6-21,80.8-19.4c28.3,1.7,55.4,11.6,78,28.7c22.6,17.1,39.6,40.4,49,67.1c9.4,26.7,10.6,55.6,3.6,83
	c-7,27.4-22,52.2-43.1,71.1l-11.4-12.6c18.6-16.7,31.8-38.5,38-62.7c6.2-24.2,5.1-49.6-3.1-73.2c-8.2-23.6-23.3-44.1-43.2-59.2
	c-19.9-15-43.8-23.8-68.8-25.3c-24.9-1.5-49.7,4.5-71.2,17.1C77.4,67.2,60,85.9,49.1,108.3c-11,22.4-15,47.6-11.7,72.3
	s13.9,47.9,30.4,66.7L55,258.5z"/>
<defs>
	<filter id="Adobe_OpacityMaskFilter_1_" filterUnits="userSpaceOnUse" x="0" y="1.1" width="290.7" height="284.6">
		<feColorMatrix  type="matrix" values="1 0 0 0 0  0 1 0 0 0  0 0 1 0 0  0 0 0 1 0"/>
	</filter>
</defs>
<mask maskUnits="userSpaceOnUse" x="0" y="1.1" width="290.7" height="284.6" id="path-4-inside-2_1_">
	<path class="st3" d="M55,258.5c-24.5-27.9-37.3-64.3-35.5-101.4C21.1,120,37.2,85,64.2,59.5C91.3,34,127.2,20,164.3,20.4
		c37.2,0.4,72.7,15.2,99.2,41.3l-11.9,12.1c-23.3-23-54.7-36.1-87.4-36.4c-32.8-0.4-64.4,12-88.2,34.5c-23.8,22.5-38,53.4-39.5,86.1
		c-1.5,32.7,9.7,64.8,31.3,89.4L55,258.5z"/>
</mask>
<path class="st4" d="M55,258.5c-24.5-27.9-37.3-64.3-35.5-101.4C21.1,120,37.2,85,64.2,59.5C91.3,34,127.2,20,164.3,20.4
	c37.2,0.4,72.7,15.2,99.2,41.3l-11.9,12.1c-23.3-23-54.7-36.1-87.4-36.4c-32.8-0.4-64.4,12-88.2,34.5c-23.8,22.5-38,53.4-39.5,86.1
	c-1.5,32.7,9.7,64.8,31.3,89.4L55,258.5z"/>
<defs>
	<filter id="Adobe_OpacityMaskFilter_2_" filterUnits="userSpaceOnUse" x="0" y="1.1" width="289.2" height="284.6">
		<feColorMatrix  type="matrix" values="1 0 0 0 0  0 1 0 0 0  0 0 1 0 0  0 0 0 1 0"/>
	</filter>
</defs>
<mask maskUnits="userSpaceOnUse" x="0" y="1.1" width="289.2" height="284.6" id="path-5-inside-3_1_">
	<path class="st5" d="M55,258.5c-24.4-27.8-37.2-63.9-35.6-100.9c1.6-36.9,17.4-71.9,44.1-97.4c26.7-25.6,62.3-39.9,99.2-39.9
		c37,0,72.5,14.3,99.3,39.8l-11.7,12.3c-23.6-22.5-54.9-35.1-87.5-35.1c-32.6,0-63.9,12.6-87.5,35.2c-23.5,22.6-37.5,53.3-38.9,85.9
		c-1.4,32.6,9.8,64.4,31.4,88.9L55,258.5z"/>
</mask>
<linearGradient id="SVGID_2_" gradientUnits="userSpaceOnUse" x1="227.5336" y1="153.9041" x2="109.0346" y2="188.307" gradientTransform="matrix(1 0 0 -1 0 328.6695)">
	<stop  offset="0" style="stop-color:#97FFB3"/>
	<stop  offset="1" style="stop-color:#EEED72"/>
</linearGradient>
<path class="st6" d="M55,258.5c-24.4-27.8-37.2-63.9-35.6-100.9c1.6-36.9,17.4-71.9,44.1-97.4c26.7-25.6,62.3-39.9,99.2-39.9
	c37,0,72.5,14.3,99.3,39.8l-11.7,12.3c-23.6-22.5-54.9-35.1-87.5-35.1c-32.6,0-63.9,12.6-87.5,35.2c-23.5,22.6-37.5,53.3-38.9,85.9
	c-1.4,32.6,9.8,64.4,31.4,88.9L55,258.5z"/>
<defs>
	<filter id="Adobe_OpacityMaskFilter_3_" filterUnits="userSpaceOnUse" x="0" y="0" width="167.1" height="285.7">
		<feColorMatrix  type="matrix" values="1 0 0 0 0  0 1 0 0 0  0 0 1 0 0  0 0 0 1 0"/>
	</filter>
</defs>
<mask maskUnits="userSpaceOnUse" x="0" y="0" width="167.1" height="285.7" id="path-6-inside-4_1_">
	<path class="st7" d="M55,258.5c-17.1-19.5-28.6-43.2-33.3-68.7c-4.7-25.5-2.4-51.8,6.6-76.1S52.8,68.1,73,51.9
		c20.2-16.2,44.5-26.6,70.1-30.2l2.3,16.8c-22.6,3.1-44,12.3-61.8,26.6c-17.8,14.3-31.4,33.1-39.4,54.6c-8,21.4-10,44.6-5.8,67.1
		s14.3,43.4,29.4,60.6L55,258.5z"/>
</mask>
<path class="st8" d="M55,258.5c-17.1-19.5-28.6-43.2-33.3-68.7c-4.7-25.5-2.4-51.8,6.6-76.1S52.8,68.1,73,51.9
	c20.2-16.2,44.5-26.6,70.1-30.2l2.3,16.8c-22.6,3.1-44,12.3-61.8,26.6c-17.8,14.3-31.4,33.1-39.4,54.6c-8,21.4-10,44.6-5.8,67.1
	s14.3,43.4,29.4,60.6L55,258.5z"/>
<defs>
	<filter id="Adobe_OpacityMaskFilter_4_" filterUnits="userSpaceOnUse" x="0" y="0.1" width="165.4" height="285.6">
		<feColorMatrix  type="matrix" values="1 0 0 0 0  0 1 0 0 0  0 0 1 0 0  0 0 0 1 0"/>
	</filter>
</defs>
<mask maskUnits="userSpaceOnUse" x="0" y="0.1" width="165.4" height="285.6" id="path-7-inside-5_1_">
	<path class="st9" d="M55,258.5c-17-19.3-28.5-42.9-33.2-68.1s-2.6-51.4,6.1-75.5C36.7,90.7,51.8,69.3,71.6,53
		c19.9-16.3,43.8-27,69.2-30.9l2.6,16.8c-22.4,3.5-43.5,12.9-61,27.3c-17.5,14.4-30.8,33.2-38.6,54.6c-7.7,21.3-9.6,44.3-5.4,66.6
		s14.3,43,29.3,60.1L55,258.5z"/>
</mask>
<linearGradient id="SVGID_3_" gradientUnits="userSpaceOnUse" x1="101.6139" y1="192.9218" x2="181.8879" y2="236.2443" gradientTransform="matrix(1 0 0 -1 0 328.6695)">
	<stop  offset="0" style="stop-color:#EAAB63"/>
	<stop  offset="1" style="stop-color:#EEF774"/>
</linearGradient>
<path class="st10" d="M55,258.5c-17-19.3-28.5-42.9-33.2-68.1s-2.6-51.4,6.1-75.5C36.7,90.7,51.8,69.3,71.6,53
	c19.9-16.3,43.8-27,69.2-30.9l2.6,16.8c-22.4,3.5-43.5,12.9-61,27.3c-17.5,14.4-30.8,33.2-38.6,54.6c-7.7,21.3-9.6,44.3-5.4,66.6
	s14.3,43,29.3,60.1L55,258.5z"/>
<defs>
	<filter id="Adobe_OpacityMaskFilter_5_" filterUnits="userSpaceOnUse" x="0" y="26.4" width="109" height="259.3">
		<feColorMatrix  type="matrix" values="1 0 0 0 0  0 1 0 0 0  0 0 1 0 0  0 0 0 1 0"/>
	</filter>
</defs>
<mask maskUnits="userSpaceOnUse" x="0" y="26.4" width="109" height="259.3" id="path-8-inside-6_1_">
	<path class="st11" d="M55,258.5c-12.7-14.4-22.3-31.2-28.4-49.4c-6.1-18.2-8.4-37.4-6.9-56.5c1.5-19.1,6.8-37.7,15.6-54.8
		c8.8-17,21-32.1,35.7-44.4l10.9,13.1c-13,10.8-23.7,24.1-31.5,39.1S38,137.1,36.6,154c-1.3,16.9,0.8,33.8,6.1,49.8
		c5.3,16,13.8,30.8,25,43.5L55,258.5z"/>
</mask>
<path class="st12" d="M55,258.5c-12.7-14.4-22.3-31.2-28.4-49.4c-6.1-18.2-8.4-37.4-6.9-56.5c1.5-19.1,6.8-37.7,15.6-54.8
	c8.8-17,21-32.1,35.7-44.4l10.9,13.1c-13,10.8-23.7,24.1-31.5,39.1S38,137.1,36.6,154c-1.3,16.9,0.8,33.8,6.1,49.8
	c5.3,16,13.8,30.8,25,43.5L55,258.5z"/>
<defs>
	<filter id="Adobe_OpacityMaskFilter_6_" filterUnits="userSpaceOnUse" x="0" y="27.8" width="107.5" height="270.2">
		<feColorMatrix  type="matrix" values="1 0 0 0 0  0 1 0 0 0  0 0 1 0 0  0 0 0 1 0"/>
	</filter>
</defs>
<mask maskUnits="userSpaceOnUse" x="0" y="27.8" width="107.5" height="270.2" id="path-9-inside-7_1_">
	<path class="st13" d="M67.1,270.8c-15.2-13.6-27.4-30.3-35.6-49c-8.2-18.7-12.4-38.9-12.2-59.4c0.2-20.4,4.8-40.6,13.4-59.1
		c8.6-18.5,21.1-35,36.6-48.3l11.1,12.9c-13.7,11.7-24.7,26.2-32.3,42.6c-7.6,16.3-11.6,34.1-11.8,52.1c-0.2,18,3.5,35.9,10.8,52.3
		c7.3,16.5,18,31.2,31.4,43.2L67.1,270.8z"/>
</mask>
<linearGradient id="SVGID_4_" gradientUnits="userSpaceOnUse" x1="44.3548" y1="74.5623" x2="81.2164" y2="295.4403" gradientTransform="matrix(1 0 0 -1 0 328.6695)">
	<stop  offset="0" style="stop-color:#C40808"/>
	<stop  offset="1" style="stop-color:#F4D479"/>
</linearGradient>
<path class="st14" d="M67.1,270.8c-15.2-13.6-27.4-30.3-35.6-49c-8.2-18.7-12.4-38.9-12.2-59.4c0.2-20.4,4.8-40.6,13.4-59.1
	c8.6-18.5,21.1-35,36.6-48.3l11.1,12.9c-13.7,11.7-24.7,26.2-32.3,42.6c-7.6,16.3-11.6,34.1-11.8,52.1c-0.2,18,3.5,35.9,10.8,52.3
	c7.3,16.5,18,31.2,31.4,43.2L67.1,270.8z"/>
</svg>
