<svg width="35" height="28" viewBox="0 0 35 28" fill="none" xmlns="http://www.w3.org/2000/svg">
<path d="M19.9155 28H33.0282V14.2937H27.0141C27.3427 12.3357 28.1972 10.6387 29.5775 9.20279C30.9577 7.76689 32.7653 6.78787 35 6.26573V0C30.0047 1.04429 26.2254 3.2634 23.662 6.65734C21.1643 10.0513 19.9155 14.359 19.9155 19.5804V28ZM0 28H13.0141V14.2937H7C7.32864 12.3357 8.1831 10.6387 9.56338 9.20279C10.9437 7.76689 12.7512 6.78787 14.9859 6.26573V0C10.0563 1.04429 6.30986 3.2634 3.74648 6.65734C1.24883 10.0513 0 14.359 0 19.5804V28Z" fill="#BBF613" fill-opacity="0.25"/>
</svg>
