<svg width="65" height="65" viewBox="0 0 65 65" fill="none" xmlns="http://www.w3.org/2000/svg">
<path fill-rule="evenodd" clip-rule="evenodd" d="M50.5412 54.9185C45.2054 59.2849 38.3848 61.9045 30.9524 61.9045C13.8578 61.9045 0 48.0467 0 30.9523C0 13.8578 13.8578 0 30.9524 0C48.0469 0 61.9047 13.8578 61.9047 30.9523C61.9047 38.3848 59.285 45.2054 54.9185 50.5412L64.0934 59.7161C65.3022 60.9249 65.3022 62.8847 64.0934 64.0934C62.8847 65.3022 60.9249 65.3022 59.7161 64.0934L50.5412 54.9185ZM55.7142 30.9523C55.7142 44.6278 44.628 55.7141 30.9524 55.7141C17.2767 55.7141 6.19047 44.6278 6.19047 30.9523C6.19047 17.2767 17.2767 6.19045 30.9524 6.19045C44.628 6.19045 55.7142 17.2767 55.7142 30.9523Z" fill="white"/>
</svg>
