<svg width="158" height="203" viewBox="0 0 158 203" fill="none" xmlns="http://www.w3.org/2000/svg">
<path d="M154.611 23.3791L154.617 23.3807C155.171 23.5371 155.659 23.8779 156 24.3504C156.342 24.823 156.517 25.3993 156.496 25.9864L156.495 26.0047V26.023V98.692C156.456 121.951 148.94 144.568 135.077 163.142C121.215 181.715 101.756 195.242 79.6277 201.692C79.1778 201.819 78.7024 201.819 78.2525 201.692C56.1242 195.242 36.6658 181.715 22.8035 163.142C8.94057 144.568 1.42398 121.951 1.38525 98.6928V26.023V26.0047L1.38458 25.9864C1.36308 25.3993 1.53808 24.823 1.87984 24.3504C2.22147 23.878 2.70932 23.5371 3.26354 23.3807L3.26354 23.3807L3.26898 23.3791L78.2484 1.75232C78.2491 1.75213 78.2498 1.75193 78.2505 1.75174C78.7017 1.62442 79.1786 1.62442 79.6298 1.75174C79.6305 1.75193 79.6312 1.75213 79.6318 1.75232L154.611 23.3791Z" fill="#FCCE31" stroke="#F3C732" stroke-width="2"/>
</svg>
