<svg width="158" height="203" viewBox="0 0 158 203" fill="none" xmlns="http://www.w3.org/2000/svg">
<path d="M155.115 22.7229L155.121 22.7244C155.675 22.8809 156.163 23.2217 156.504 23.6941C156.846 24.1668 157.021 24.7431 157 25.3301L156.999 25.3484V25.3667V98.0357C156.96 121.295 149.444 143.911 135.581 162.486C121.718 181.059 102.26 194.586 80.1317 201.036C79.6818 201.162 79.2063 201.162 78.7564 201.036C56.6281 194.586 37.1697 181.059 23.3074 162.486C9.44447 143.912 1.92789 121.295 1.88916 98.0366V25.3667V25.3484L1.88849 25.3301C1.86699 24.7431 2.04199 24.1668 2.38375 23.6941C2.72538 23.2217 3.21323 22.8809 3.76745 22.7244L3.76745 22.7244L3.77289 22.7229L78.7523 1.09607C78.753 1.09588 78.7537 1.09568 78.7544 1.09549C79.2056 0.968169 79.6825 0.968169 80.1337 1.09549C80.1344 1.09568 80.1351 1.09588 80.1357 1.09607L155.115 22.7229Z" fill="#7B67FB" stroke="#6B58E8" stroke-width="2"/>
</svg>
