<svg width="158" height="203" viewBox="0 0 158 203" fill="none" xmlns="http://www.w3.org/2000/svg">
<path d="M154.228 22.7229L154.234 22.7244C154.788 22.8809 155.276 23.2217 155.618 23.6941C155.959 24.1668 156.134 24.7431 156.113 25.3301L156.112 25.3484V25.3667V98.0357C156.074 121.295 148.557 143.911 134.694 162.486C120.832 181.059 101.373 194.586 79.2449 201.036C78.795 201.162 78.3196 201.162 77.8697 201.036C55.7414 194.586 36.283 181.059 22.4207 162.486C8.55775 143.912 1.04117 121.295 1.00244 98.0366V25.3667V25.3484L1.00177 25.3301C0.980268 24.7431 1.15527 24.1668 1.49703 23.6941C1.83866 23.2217 2.32651 22.8809 2.88073 22.7244L2.88073 22.7244L2.88617 22.7229L77.8656 1.09607C77.8663 1.09588 77.867 1.09568 77.8677 1.09549C78.3189 0.968169 78.7958 0.968169 79.247 1.09549C79.2477 1.09568 79.2484 1.09588 79.249 1.09607L154.228 22.7229Z" fill="#2687E5" stroke="#1775D0" stroke-width="2"/>
</svg>
