<svg width="111" height="20" viewBox="0 0 111 20" fill="none" xmlns="http://www.w3.org/2000/svg">
<path d="M9.49342 0.506592L11.6248 7.06638H18.5222L12.9421 11.1206L15.0735 17.6804L9.49342 13.6262L3.91333 17.6804L6.04473 11.1206L0.464641 7.06638H7.36201L9.49342 0.506592Z" fill="#FBBC04"/>
<path d="M32.1316 0.506592L34.263 7.06638H41.1604L35.5803 11.1206L37.7117 17.6804L32.1316 13.6262L26.5515 17.6804L28.6829 11.1206L23.1028 7.06638H30.0002L32.1316 0.506592Z" fill="#FBBC04"/>
<path d="M55.5 0.506592L57.6314 7.06638H64.5288L58.9487 11.1206L61.0801 17.6804L55.5 13.6262L49.9199 17.6804L52.0513 11.1206L46.4712 7.06638H53.3686L55.5 0.506592Z" fill="#FBBC04"/>
<path d="M78.1382 0.506592L80.2696 7.06638H87.1669L81.5869 11.1206L83.7183 17.6804L78.1382 13.6262L72.5581 17.6804L74.6895 11.1206L69.1094 7.06638H76.0068L78.1382 0.506592Z" fill="#FBBC04"/>
<path d="M101.507 0.506592L103.638 7.06638H110.535L104.955 11.1206L107.087 17.6804L101.507 13.6262L95.9265 17.6804L98.0579 11.1206L92.4778 7.06638H99.3752L101.507 0.506592Z" fill="#FBBC04"/>
<path d="M9.49342 0.506592L11.6248 7.06638H18.5222L12.9421 11.1206L15.0735 17.6804L9.49342 13.6262L3.91333 17.6804L6.04473 11.1206L0.464641 7.06638H7.36201L9.49342 0.506592Z" fill="#FBBC04"/>
<path d="M32.1316 0.506592L34.263 7.06638H41.1604L35.5803 11.1206L37.7117 17.6804L32.1316 13.6262L26.5515 17.6804L28.6829 11.1206L23.1028 7.06638H30.0002L32.1316 0.506592Z" fill="#FBBC04"/>
<path d="M55.5 0.506592L57.6314 7.06638H64.5288L58.9487 11.1206L61.0801 17.6804L55.5 13.6262L49.9199 17.6804L52.0513 11.1206L46.4712 7.06638H53.3686L55.5 0.506592Z" fill="#FBBC04"/>
<path d="M78.1382 0.506592L80.2696 7.06638H87.1669L81.5869 11.1206L83.7183 17.6804L78.1382 13.6262L72.5581 17.6804L74.6895 11.1206L69.1094 7.06638H76.0068L78.1382 0.506592Z" fill="#FBBC04"/>
<path d="M101.507 0.506592L103.638 7.06638H110.535L104.955 11.1206L107.087 17.6804L101.507 13.6262L95.9265 17.6804L98.0579 11.1206L92.4778 7.06638H99.3752L101.507 0.506592Z" fill="#FBBC04"/>
</svg>
