<svg width="72" height="23" viewBox="0 0 72 23" fill="none" xmlns="http://www.w3.org/2000/svg">
<path d="M28.8291 0.367676L25.17 21.785H31.0222L34.6844 0.367676H28.8291Z" fill="white"/>
<path d="M20.2631 0.391711L14.5313 14.9977L13.9202 12.7923C12.7897 10.1351 9.58065 6.31879 5.81311 3.91373L11.0542 21.7745L17.2467 21.764L26.4631 0.387207L20.2631 0.391711Z" fill="white"/>
<path d="M11.6985 1.92456C11.3583 0.619944 10.3724 0.23111 9.14865 0.18457H0.0752604L0 0.610937C7.06093 2.3194 11.7331 6.43593 13.6718 11.3857L11.6985 1.92456Z" fill="white"/>
<path d="M46.5452 4.47383C48.4599 4.44381 49.8477 4.86117 50.9254 5.29354L51.4537 5.54125L52.2455 0.899269C51.0864 0.465397 49.2697 0 47.0028 0C41.2198 0 37.1437 2.90499 37.1121 7.06806C37.0745 10.1442 40.0156 11.8617 42.2373 12.887C44.5177 13.9379 45.2824 14.606 45.2718 15.5443C45.2538 16.9781 43.4535 17.6356 41.7722 17.6356C39.4286 17.6356 38.1838 17.3128 36.2617 16.5142L35.5076 16.1719L34.6842 20.9655C36.0539 21.5645 38.5812 22.0794 41.2048 22.1064C47.3565 22.1064 51.3544 19.236 51.3965 14.7877C51.4221 12.3541 49.8612 10.497 46.479 8.97319C44.4319 7.97934 43.1796 7.31877 43.1916 6.31591C43.1916 5.42565 44.2543 4.47383 46.5452 4.47383Z" fill="white"/>
<path d="M67.2645 0.391602H62.7428C61.3385 0.391602 60.2939 0.772928 59.6767 2.16912L50.9872 21.7969H57.1329C57.1329 21.7969 58.1354 19.1577 58.3627 18.5797C59.0355 18.5797 65.0067 18.5887 65.8571 18.5887C66.0317 19.3363 66.5706 21.7969 66.5706 21.7969H71.9999L67.2645 0.391602ZM60.047 14.1959C60.5287 12.9664 62.3786 8.2103 62.3786 8.2103C62.347 8.26885 62.8557 6.97174 63.1583 6.16555L63.5527 8.01213C63.5527 8.01213 64.674 13.1255 64.9088 14.1959H60.047Z" fill="white"/>
</svg>
